<svg width="945" height="945" viewBox="0 0 945 945" fill="none" xmlns="http://www.w3.org/2000/svg">
<path d="M945 722.732H0V723.205H945V722.732Z" fill="#EBEBEB"/>
<path d="M774.271 753.39H742.97V753.862H774.271V753.39Z" fill="#EBEBEB"/>
<path d="M693.63 746.523H622.177V746.996H693.63V746.523Z" fill="#EBEBEB"/>
<path d="M631.413 735.603H500.85V736.076H631.413V735.603Z" fill="#EBEBEB"/>
<path d="M123.137 738.778H99.1475V739.251H123.137V738.778Z" fill="#EBEBEB"/>
<path d="M209.58 738.778H139.966V739.251H209.58V738.778Z" fill="#EBEBEB"/>
<path d="M400.419 746.76H287.909V747.232H400.419V746.76Z" fill="#EBEBEB"/>
<path d="M447.957 638.442H82.9995C77.0517 638.442 72.2114 633.604 72.2114 627.654V114.647C72.2114 108.7 77.0517 103.859 82.9995 103.859H447.957C453.903 103.859 458.743 108.7 458.743 114.647V627.654C458.743 633.602 453.903 638.442 447.957 638.442ZM82.9995 104.334C77.3106 104.334 72.6839 108.96 72.6839 114.649V627.656C72.6839 633.345 77.3106 637.971 82.9995 637.971H447.957C453.644 637.971 458.27 633.345 458.27 627.656V114.647C458.27 108.96 453.644 104.332 447.957 104.332L82.9995 104.334Z" fill="#EBEBEB"/>
<path d="M856.756 638.442H491.801C485.853 638.442 481.015 633.604 481.015 627.654V114.647C481.015 108.7 485.855 103.859 491.801 103.859H856.756C862.706 103.859 867.544 108.7 867.544 114.647V627.654C867.546 633.602 862.706 638.442 856.756 638.442ZM491.801 104.334C486.114 104.334 481.487 108.96 481.487 114.649V627.656C481.487 633.345 486.114 637.971 491.801 637.971H856.756C862.445 637.971 867.072 633.345 867.072 627.656V114.647C867.072 108.96 862.445 104.332 856.756 104.332L491.801 104.334Z" fill="#EBEBEB"/>
<path d="M482.819 0H442.079V722.732H482.819V0Z" fill="#F5F5F5"/>
<path d="M482.818 722.733H488.539L488.539 0.000610352H482.818L482.818 722.733Z" fill="#E0E0E0"/>
<path d="M263.025 649.939H48.1948C48.1948 636.716 58.913 625.998 72.1355 625.998H263.025V649.939Z" fill="#E6E6E6"/>
<path d="M278.777 649.939H184.906C184.906 636.716 195.624 625.998 208.847 625.998H278.777V649.939Z" fill="#E0E0E0"/>
<path d="M413.129 649.939H198.299C198.299 636.716 209.017 625.998 222.239 625.998H413.129V649.939Z" fill="#E6E6E6"/>
<path d="M428.879 649.939H335.008C335.008 636.716 345.726 625.998 358.949 625.998H428.879V649.939Z" fill="#E0E0E0"/>
<path d="M718.119 649.939H503.288C503.288 636.716 514.006 625.998 527.229 625.998H718.119V649.939Z" fill="#E6E6E6"/>
<path d="M733.868 649.939H639.998C639.998 636.716 650.716 625.998 663.938 625.998H733.868V649.939Z" fill="#E0E0E0"/>
<path d="M809.714 575.189H714.571L727.966 722.732H796.319L809.714 575.189Z" fill="#EBEBEB"/>
<path d="M761.198 599.788C759.45 538.752 773.736 412.362 799.255 360.947L800.947 361.786C776.445 411.154 761.325 538.187 763.088 599.733L761.198 599.788Z" fill="#EBEBEB"/>
<path d="M770.642 479.603C770.642 479.603 764.399 420.51 741.3 402.377C728.911 439.686 754.278 452.549 770.642 479.603Z" fill="#EBEBEB"/>
<path d="M770.642 480.548C770.319 480.548 770.007 480.381 769.833 480.092C765.575 473.052 760.716 467 756.019 461.145C742.647 444.485 731.099 430.094 740.402 402.079C740.498 401.788 740.733 401.561 741.028 401.472C741.321 401.385 741.642 401.444 741.884 401.634C765.031 419.803 771.326 477.074 771.581 479.502C771.629 479.943 771.362 480.357 770.944 480.498C770.844 480.532 770.742 480.548 770.642 480.548ZM741.774 403.989C733.587 430.17 744.681 443.995 757.493 459.962C761.411 464.842 765.439 469.862 769.16 475.496C767.253 461.977 759.964 419.639 741.774 403.989Z" fill="#EBEBEB"/>
<path d="M774.078 457.217C774.078 457.217 798.583 402.577 826.308 392.895C825.962 432.203 798.313 436.913 774.078 457.217Z" fill="#EBEBEB"/>
<path d="M774.078 458.162C773.878 458.162 773.677 458.098 773.507 457.971C773.156 457.705 773.035 457.232 773.216 456.83C774.223 454.585 798.207 401.708 825.996 392.001C826.285 391.899 826.609 391.944 826.858 392.126C827.107 392.305 827.257 392.594 827.253 392.902C826.99 422.742 811.334 432.938 793.203 444.743C787.1 448.716 780.791 452.825 774.685 457.941C774.509 458.089 774.293 458.162 774.078 458.162ZM825.338 394.267C803.004 403.237 782.696 441.68 776.713 453.878C781.868 449.869 787.091 446.469 792.171 443.161C809.561 431.837 824.616 422.035 825.338 394.267Z" fill="#EBEBEB"/>
<path d="M762.689 562.789C762.689 562.789 753.22 480.566 724.545 458.865C710.181 504.813 742.065 530.02 762.689 562.789Z" fill="#EBEBEB"/>
<path d="M762.689 563.946C762.3 563.946 761.925 563.749 761.71 563.405C757.302 556.401 752.307 549.652 747.476 543.122C729.226 518.455 711.988 495.157 723.439 458.52C723.553 458.16 723.832 457.877 724.19 457.764C724.553 457.648 724.942 457.714 725.242 457.943C753.982 479.693 763.449 559.279 763.838 562.657C763.9 563.193 763.581 563.702 763.073 563.879C762.946 563.925 762.816 563.946 762.689 563.946ZM725.157 460.835C715.065 495.426 731.719 517.935 749.336 541.746C753.195 546.96 757.157 552.317 760.858 557.847C758.28 539.986 748.096 480.12 725.157 460.835Z" fill="#EBEBEB"/>
<path d="M765.993 518.461C765.993 518.461 797.968 459.903 831.702 447.446C832.129 495.585 795.229 493.077 765.993 518.461Z" fill="#EBEBEB"/>
<path d="M765.993 519.618C765.736 519.618 765.479 519.533 765.267 519.363C764.83 519.011 764.709 518.399 764.976 517.907C766.29 515.501 797.546 458.826 831.302 446.361C831.657 446.231 832.052 446.28 832.36 446.494C832.67 446.707 832.857 447.059 832.861 447.437C833.162 481.247 815.382 490.619 794.796 501.472C785.448 506.399 775.781 511.496 766.753 519.336C766.535 519.523 766.263 519.618 765.993 519.618ZM830.544 449.142C804.169 460.028 778.809 499.168 770.145 513.613C777.892 507.764 785.913 503.538 793.715 499.423C813.282 489.109 830.228 480.173 830.544 449.142Z" fill="#EBEBEB"/>
<path d="M781.052 419.829C781.052 419.829 776.698 378.607 760.584 365.957C751.939 391.984 769.635 400.958 781.052 419.829Z" fill="#EBEBEB"/>
<path d="M781.052 420.489C780.826 420.489 780.61 420.372 780.489 420.172C777.518 415.259 774.129 411.037 770.852 406.953C761.525 395.329 753.468 385.292 759.958 365.749C760.026 365.545 760.189 365.388 760.393 365.326C760.597 365.261 760.822 365.305 760.99 365.439C777.138 378.115 781.529 418.068 781.708 419.761C781.742 420.069 781.555 420.357 781.264 420.455C781.194 420.478 781.122 420.489 781.052 420.489ZM760.912 367.081C755.201 385.346 762.94 394.991 771.878 406.129C774.611 409.535 777.422 413.035 780.019 416.964C778.688 407.535 773.602 377.998 760.912 367.081Z" fill="#EBEBEB"/>
<path d="M788.548 392.069C788.548 392.069 805.643 353.952 824.985 347.197C824.743 374.621 805.456 377.906 788.548 392.069Z" fill="#EBEBEB"/>
<path d="M788.55 392.729C788.41 392.729 788.27 392.685 788.151 392.596C787.907 392.411 787.822 392.08 787.947 391.801C788.65 390.234 805.382 353.347 824.768 346.575C824.972 346.505 825.195 346.537 825.369 346.662C825.543 346.787 825.647 346.989 825.645 347.204C825.461 368.021 814.539 375.133 801.893 383.369C797.637 386.142 793.235 389.007 788.975 392.577C788.85 392.678 788.699 392.729 788.55 392.729ZM824.31 348.155C808.729 354.413 794.562 381.23 790.389 389.739C793.985 386.942 797.629 384.57 801.173 382.262C813.301 374.364 823.804 367.524 824.31 348.155Z" fill="#EBEBEB"/>
<path d="M294.915 367.945C276.947 366.684 269.175 368.784 261.406 352.613C253.636 336.441 226.543 327.786 217.722 341.88C208.901 355.974 205.751 365.777 185.379 357.41C165.006 349.043 158.285 355.135 155.346 366.265C152.406 377.395 105.781 372.029 119.433 387.943H292.069C292.069 387.943 312.884 369.206 294.915 367.945Z" fill="#F5F5F5"/>
<path d="M829.333 281.548C819.167 280.835 814.771 282.022 810.373 272.873C805.977 263.723 790.647 258.826 785.657 266.8C780.666 274.774 778.884 280.321 767.358 275.587C755.833 270.852 752.031 274.299 750.365 280.597C748.702 286.894 722.322 283.857 730.046 292.863H827.721C827.721 292.863 839.5 282.26 829.333 281.548Z" fill="#F5F5F5"/>
<path d="M707.648 59.947C702.605 51.7519 688.189 49.0209 675.291 55.394C662.392 61.767 671.179 21.8427 647.066 28.5352C612.619 38.0948 622.212 66.664 607.86 64.0426C593.507 61.4212 551.436 68.4444 573.681 82.7101H700.978C700.978 82.7101 712.691 68.142 707.648 59.947Z" fill="#F5F5F5"/>
<path d="M472.5 808.09C674.885 808.09 838.95 798.509 838.95 786.69C838.95 774.871 674.885 765.29 472.5 765.29C270.115 765.29 106.05 774.871 106.05 786.69C106.05 798.509 270.115 808.09 472.5 808.09Z" fill="#F5F5F5"/>
<path d="M157.235 0H153.967V237.24H157.235V0Z" fill="#9DADF9"/>
<path d="M349.299 0H346.031V237.24H349.299V0Z" fill="#9DADF9"/>
<path d="M386.469 148.911H116.796V210.259H386.469V148.911Z" fill="#9DADF9"/>
<path opacity="0.3" d="M386.469 148.911H116.796V210.259H386.469V148.911Z" fill="white"/>
<path d="M149.866 174.965L143.181 168.28H133.942L141.984 176.322H125.785V182.85H141.992L133.942 190.888H143.181L149.866 184.203L154.475 179.575L149.866 174.965Z" fill="white"/>
<path opacity="0.7" d="M371.011 170.625H274.073V188.545H371.011V170.625Z" fill="#9DADF9"/>
<path opacity="0.7" d="M259.408 170.625H217.891V188.545H259.408V170.625Z" fill="#9DADF9"/>
<path d="M202.631 161.304H166.065V197.87H202.631V161.304Z" fill="white"/>
<path d="M198.497 170.629L197.586 170.627C197.471 170.627 197.358 170.631 197.242 170.637C197.233 170.637 197.225 170.637 197.216 170.637L197.212 170.639C196.458 170.686 195.719 170.884 195.04 171.225L189.386 174.061L178.754 172.289C177.853 172.173 176.94 172.323 176.122 172.716L175.112 173.201L182.041 178.047L175.598 181.077L171.336 179.847L169.438 180.76L174.436 184.545L184.933 179.495L190.952 176.598L196.932 173.721C197.382 173.504 197.8 173.23 198.174 172.907C198.199 172.886 198.223 172.865 198.246 172.844H198.242C198.577 172.546 198.877 172.211 199.132 171.839C199.486 171.329 199.119 170.629 198.497 170.629Z" fill="#282828"/>
<path d="M200.132 190.427H168.565V193.498H200.132V190.427Z" fill="#282828"/>
<path d="M386.469 228.497H116.796V289.845H386.469V228.497Z" fill="#9DADF9"/>
<path opacity="0.3" d="M386.469 228.497H116.796V289.845H386.469V228.497Z" fill="white"/>
<path d="M130.397 254.549L137.082 247.864H146.32L138.278 255.908H154.475V262.434H138.27L146.32 270.472H137.082L130.397 263.787L125.785 259.161L130.397 254.549Z" fill="white"/>
<path opacity="0.7" d="M371.011 250.212H274.073V268.131H371.011V250.212Z" fill="#9DADF9"/>
<path opacity="0.7" d="M259.408 250.212H217.891V268.131H259.408V250.212Z" fill="#9DADF9"/>
<path d="M202.631 240.888H166.065V277.454H202.631V240.888Z" fill="white"/>
<path d="M198.497 250.213L197.586 250.212C197.471 250.212 197.358 250.215 197.242 250.221C197.233 250.221 197.225 250.221 197.216 250.221L197.212 250.223C196.458 250.27 195.719 250.469 195.04 250.809L189.386 253.646L178.754 251.873C177.853 251.758 176.94 251.907 176.122 252.3L175.112 252.786L182.041 257.632L175.598 260.661L171.336 259.431L169.438 260.344L174.436 264.13L184.933 259.079L190.952 256.182L196.932 253.305C197.382 253.088 197.8 252.814 198.174 252.491C198.199 252.47 198.223 252.449 198.246 252.429H198.242C198.577 252.13 198.877 251.795 199.132 251.423C199.486 250.915 199.119 250.215 198.497 250.213Z" fill="#282828"/>
<path d="M200.132 270.013H168.565V273.084H200.132V270.013Z" fill="#282828"/>
<path d="M618.102 208.896L602.734 199.713L611.68 197.961L635.49 202.682L618.102 208.896Z" fill="#9DADF9"/>
<path opacity="0.3" d="M618.102 208.896L602.734 199.713L611.68 197.961L635.49 202.682L618.102 208.896Z" fill="#282828"/>
<path d="M724.407 180.746L705.701 157.275L712.619 155.919C718.232 154.821 724.042 155.369 729.351 157.498L765.52 172.003L724.407 180.746Z" fill="#9DADF9"/>
<path opacity="0.3" d="M724.407 180.746L705.701 157.275L712.619 155.919C718.232 154.821 724.042 155.369 729.351 157.498L765.52 172.003L724.407 180.746Z" fill="#282828"/>
<path d="M822.42 163.912L816.866 162.449C811.485 161.032 805.845 160.898 800.402 162.058L617.357 203.57L615.624 211.461L622.768 216.554L807.964 180.289C814.031 179.102 819.682 176.352 824.361 172.313C827.332 169.75 826.212 164.91 822.42 163.912Z" fill="#9DADF9"/>
<path d="M710.453 221.34L630.323 238.372L630.529 239.344L710.659 222.312L710.453 221.34Z" fill="#9DADF9"/>
<path d="M700.103 169.854L647.873 180.956L648.079 181.928L700.31 170.826L700.103 169.854Z" fill="#9DADF9"/>
<path d="M615.36 241.583L593.889 246.147L594.095 247.119L615.567 242.555L615.36 241.583Z" fill="#9DADF9"/>
<path opacity="0.3" d="M803.369 177.187L622.462 215.725C621.613 215.904 620.831 216.207 620.113 216.634C620.978 216.749 621.871 216.724 622.774 216.547L807.958 180.285C810.995 179.69 813.929 178.709 816.682 177.367C816.905 177.256 817.141 177.14 817.365 177.029C812.749 176.152 807.988 176.201 803.369 177.187Z" fill="#282828"/>
<path d="M615.626 211.459L610.977 231.094L619.92 229.342L636.201 208.082L615.626 211.459Z" fill="#9DADF9"/>
<path d="M617.359 203.568L606.497 183.931L614.845 182.296L638.888 199.354L617.359 203.568Z" fill="#9DADF9"/>
<path d="M726.03 189.04L723.016 245.702C731.592 244.022 738.99 238.645 743.233 231.005L771.487 180.138L726.03 189.04Z" fill="#9DADF9"/>
<g opacity="0.5">
<path d="M678.998 195.89L676.711 196.359L677.567 200.532L679.853 200.063L678.998 195.89Z" fill="white"/>
<path d="M683.598 194.955L681.311 195.424L682.166 199.597L684.453 199.129L683.598 194.955Z" fill="white"/>
<path d="M688.211 194.011L685.925 194.479L686.78 198.652L689.067 198.184L688.211 194.011Z" fill="white"/>
<path d="M692.826 193.064L690.54 193.532L691.395 197.705L693.681 197.237L692.826 193.064Z" fill="white"/>
<path d="M697.44 192.119L695.153 192.588L696.009 196.761L698.295 196.292L697.44 192.119Z" fill="white"/>
<path d="M702.055 191.172L699.769 191.641L700.624 195.814L702.911 195.345L702.055 191.172Z" fill="white"/>
<path d="M706.67 190.225L704.383 190.694L705.239 194.867L707.525 194.398L706.67 190.225Z" fill="white"/>
<path d="M711.299 189.268L709.013 189.736L709.869 193.91L712.155 193.441L711.299 189.268Z" fill="white"/>
<path d="M715.899 188.333L713.612 188.802L714.468 192.975L716.754 192.506L715.899 188.333Z" fill="white"/>
<path d="M720.512 187.389L718.226 187.858L719.081 192.031L721.368 191.562L720.512 187.389Z" fill="white"/>
<path d="M725.128 186.43L722.841 186.898L723.697 191.071L725.983 190.603L725.128 186.43Z" fill="white"/>
<path d="M729.741 185.497L727.455 185.966L728.31 190.139L730.597 189.67L729.741 185.497Z" fill="white"/>
<path d="M734.371 184.537L732.085 185.005L732.941 189.179L735.227 188.71L734.371 184.537Z" fill="white"/>
<path d="M738.972 183.593L736.686 184.062L737.541 188.235L739.828 187.766L738.972 183.593Z" fill="white"/>
<path d="M743.585 182.658L741.298 183.127L742.154 187.3L744.44 186.832L743.585 182.658Z" fill="white"/>
<path d="M748.2 181.713L745.914 182.182L746.769 186.355L749.056 185.887L748.2 181.713Z" fill="white"/>
<path d="M752.814 180.754L750.527 181.223L751.383 185.396L753.669 184.927L752.814 180.754Z" fill="white"/>
<path d="M757.429 179.82L755.142 180.289L755.998 184.462L758.284 183.993L757.429 179.82Z" fill="white"/>
<path d="M762.042 178.875L759.755 179.344L760.611 183.517L762.897 183.048L762.042 178.875Z" fill="white"/>
<path d="M766.673 177.914L764.387 178.383L765.243 182.556L767.529 182.087L766.673 177.914Z" fill="white"/>
<path d="M771.271 176.984L768.984 177.452L769.84 181.626L772.126 181.157L771.271 176.984Z" fill="white"/>
<path d="M775.886 176.037L773.599 176.505L774.455 180.679L776.741 180.21L775.886 176.037Z" fill="white"/>
</g>
<path opacity="0.5" d="M822.422 163.916L816.862 162.449C816.117 162.255 815.361 162.077 814.599 161.928L806.406 163.532C805.268 163.755 804.52 164.867 804.743 166.004C804.966 167.144 806.079 167.904 807.219 167.681L823.698 164.455C823.308 164.217 822.895 164.041 822.422 163.916Z" fill="white"/>
<path d="M525.513 254.946C548.625 304.899 605.284 332.079 546.219 359.684C487.157 387.289 481.321 311.672 483.042 288.637C484.764 265.602 513.023 227.953 525.513 254.946Z" fill="#282828"/>
<path d="M569.523 325.951C569.491 325.951 569.457 325.948 569.423 325.94C569.164 325.885 568.998 325.628 569.052 325.369C572.109 311.001 561.4 300.372 549.001 288.062C539.759 278.888 529.285 268.49 523.757 255.129C521.046 248.578 517.387 245.736 512.895 246.658C500.818 249.155 487.231 276.887 487.48 293.096C487.484 293.362 487.272 293.579 487.006 293.585C486.733 293.57 486.522 293.377 486.516 293.111C486.263 276.586 500.262 248.287 512.7 245.715C516.148 245.001 521.02 245.993 524.647 254.761C530.101 267.942 540.502 278.268 549.68 287.378C562.281 299.886 573.161 310.69 569.995 325.57C569.946 325.796 569.746 325.951 569.523 325.951Z" fill="#282828"/>
<path d="M480.712 272.277C486.526 276.218 496.501 261.03 501.298 241.153C489.3 231.262 482.009 232.799 477.208 241.449C471.606 251.538 474.059 267.766 480.712 272.277Z" fill="#282828"/>
<path d="M460.835 585.327C460.835 585.327 541.941 568.807 601.003 582.64C583.67 556.667 510.172 441.612 510.172 441.612L475.233 483.16L460.835 585.327Z" fill="#9DADF9"/>
<path opacity="0.2" d="M460.835 585.327C460.835 585.327 541.941 568.807 601.003 582.64C583.67 556.667 510.172 441.612 510.172 441.612L475.233 483.16L460.835 585.327Z" fill="black"/>
<path d="M486.081 335.159C484.819 340.71 483.403 345.745 481.795 350.958C480.198 356.123 478.432 361.251 476.465 366.354C474.482 371.453 472.362 376.547 469.846 381.601C467.348 386.67 464.611 391.723 460.969 396.783C460.528 397.414 460.06 398.049 459.559 398.686C459.054 399.333 458.659 399.886 457.864 400.782C457.153 401.618 456.433 402.385 455.72 403.035C454.998 403.748 454.28 404.366 453.568 404.929C450.699 407.244 447.864 408.877 445.097 410.317C439.57 413.182 434.148 414.968 428.773 416.569C423.381 418.076 418.034 419.255 412.666 420.132C407.27 421.013 402.012 421.661 396.423 421.931L393.898 408.817C403.241 405.214 412.868 401.536 421.562 397.303C425.906 395.226 430.094 392.927 433.554 390.544C435.271 389.355 436.775 388.085 437.826 386.978C438.107 386.702 438.344 386.437 438.51 386.199C438.739 385.948 438.865 385.732 438.964 385.547L439.61 384.526C439.876 384.116 440.141 383.676 440.4 383.211C442.485 379.582 444.446 375.316 446.248 370.924C448.022 366.505 449.718 361.912 451.277 357.237C452.849 352.561 454.341 347.807 455.773 343.026C457.187 338.289 458.614 333.317 459.882 328.779L486.081 335.159Z" fill="#9DADF9"/>
<path d="M396.889 410.669L381.631 411.461L390.283 427.106C390.283 427.106 400.047 423.628 402.445 414.037L396.889 410.669Z" fill="#FFC3BD"/>
<path d="M370.381 421.449L382.727 431.158L390.283 427.106L381.631 411.46L370.381 421.449Z" fill="#FFC3BD"/>
<path d="M523.01 772.424L505.922 774.038L502.403 734.704L519.491 733.088L523.01 772.424Z" fill="#FFC3BD"/>
<path d="M656.941 714.271L644.53 725.924L617.733 696.474L630.145 684.819L656.941 714.271Z" fill="#FFC3BD"/>
<path d="M641.128 722.897L650.455 706.091C650.795 705.478 651.494 705.219 652.139 705.463L666.499 710.929C667.988 711.496 668.635 713.407 667.828 714.804C664.475 720.606 662.564 723.239 658.461 730.631C655.938 735.178 651.024 745.605 647.538 751.885C644.131 758.026 637.659 755.053 638.548 752.126C642.534 739.003 641.783 731.698 640.659 725.907C640.457 724.862 640.632 723.791 641.128 722.897Z" fill="#282828"/>
<path d="M503.653 768.931H523.95C524.689 768.931 525.354 769.444 525.552 770.166L529.965 786.223C530.423 787.888 529.196 789.421 527.49 789.436C520.338 789.5 516.947 789.47 508.021 789.47C502.53 789.47 488.323 789.47 480.74 789.47C473.324 789.47 471.772 781.972 474.842 781.292C488.601 778.247 496.533 774.048 500.778 770.043C501.544 769.321 502.572 768.931 503.653 768.931Z" fill="#282828"/>
<path opacity="0.2" d="M502.407 734.713L504.218 754.989H521.458L519.502 733.097L502.407 734.713Z" fill="black"/>
<path opacity="0.2" d="M630.154 684.824L617.737 696.484L631.557 711.659L643.974 699.999L630.154 684.824Z" fill="black"/>
<path d="M459.538 335.819C460.67 348.667 464.946 374.161 477.714 424.7L546.941 418.713C543.615 392.765 542.052 375.961 548.518 326.991C549.447 319.943 544.212 313.543 537.113 313.152C532.196 312.882 526.382 312.727 520.54 312.95C508.843 313.396 499.266 313.85 489.105 315.67C482.834 316.792 476.106 318.433 470.721 319.858C463.598 321.746 458.892 328.478 459.538 335.819Z" fill="#282828"/>
<path d="M514.365 277.824C513.258 288.11 512.882 306.813 520.542 312.95C520.542 312.95 521.154 323.575 499.57 327.047C484.418 325.757 489.107 315.67 489.107 315.67C500.152 312.001 499.137 303.657 496.493 295.968L514.365 277.824Z" fill="#FFC3BD"/>
<path opacity="0.2" d="M507.079 285.228L496.501 295.961C497.134 297.781 497.663 299.635 497.953 301.457C502.207 300.461 508.366 296.04 508.434 291.489C508.468 289.219 507.537 286.244 507.079 285.228Z" fill="black"/>
<path d="M523.415 261.754C519.124 278.182 517.66 285.227 507.582 292.113C492.424 302.468 473.184 293.606 472.479 276.225C471.844 260.582 478.968 236.343 496.546 232.925C513.865 229.557 527.705 245.326 523.415 261.754Z" fill="#FFC3BD"/>
<path d="M487.474 231.612C480.498 238.62 495.074 256.322 519.257 271.945C537.981 260.603 531.564 245.409 523.001 236.796C514.607 228.35 495.458 223.591 487.474 231.612Z" fill="#282828"/>
<path d="M493.999 249.82C493.876 249.82 493.753 249.773 493.658 249.678C485.947 241.98 482.944 236.142 484.728 232.324C487.357 226.705 499.215 227.718 499.718 227.764C499.982 227.788 500.179 228.023 500.154 228.287C500.13 228.552 499.907 228.745 499.631 228.724C499.514 228.715 487.941 227.726 485.599 232.733C484.027 236.097 487.049 241.72 494.339 248.996C494.528 249.183 494.528 249.489 494.339 249.677C494.246 249.773 494.123 249.82 493.999 249.82Z" fill="#282828"/>
<path d="M524.77 276.584C523.154 279.712 520.245 281.801 517.474 282.634C513.307 283.889 511.139 280.183 512.224 276.205C513.201 272.625 516.546 267.658 520.763 268.146C524.919 268.626 526.618 273.009 524.77 276.584Z" fill="#FFC3BD"/>
<path d="M477.715 424.7C477.715 424.7 457.72 528.238 473.354 601.285C483.827 650.207 497.255 749.111 497.255 749.111L526.783 748.351C526.783 748.351 519.106 644.637 513.196 603.849C503.086 534.08 528.408 420.315 528.408 420.315L477.715 424.7Z" fill="#282828"/>
<path opacity="0.2" d="M504.722 445.622L519.487 468.907C515.732 493.052 511.993 523.254 511.041 552.313C490.277 515.142 500.107 465.301 504.722 445.622Z" fill="black"/>
<path d="M494.656 750.255L529.446 750.16L529.34 738.51L492.5 738.03L494.656 750.255Z" fill="#9DADF9"/>
<path d="M492.852 423.598C492.852 423.598 506.592 533.479 536.376 593.469C560.434 641.923 624.63 710.899 624.63 710.899L641.045 693.989C641.045 693.989 597.682 619.026 579.803 586.839C535.961 507.917 571.791 447.69 546.941 418.712L492.852 423.598Z" fill="#282828"/>
<path d="M622.967 713.159L644.148 692.513L637.123 682.951L614.66 705.372L622.967 713.159Z" fill="#9DADF9"/>
<path d="M547.627 414.56L551.285 420.487C551.568 420.947 551.041 421.487 550.241 421.555L477.641 427.834C477.017 427.889 476.473 427.626 476.401 427.238L475.24 421.096C475.159 420.671 475.669 420.26 476.352 420.202L546.454 414.139C546.97 414.093 547.444 414.265 547.627 414.56Z" fill="white"/>
<path d="M538.89 423.214L540.767 423.052C541.141 423.02 541.409 422.802 541.362 422.568L539.786 414.594C539.741 414.362 539.397 414.197 539.022 414.229L537.146 414.392C536.771 414.424 536.503 414.641 536.55 414.876L538.127 422.85C538.172 423.082 538.516 423.247 538.89 423.214Z" fill="#282828"/>
<path d="M482.976 428.049L484.853 427.887C485.227 427.854 485.495 427.637 485.448 427.403L483.872 419.429C483.827 419.196 483.483 419.032 483.108 419.064L481.232 419.227C480.857 419.259 480.589 419.476 480.636 419.71L482.213 427.684C482.258 427.917 482.602 428.081 482.976 428.049Z" fill="#282828"/>
<path d="M510.933 425.632L512.81 425.469C513.184 425.437 513.453 425.22 513.405 424.985L511.829 417.012C511.784 416.779 511.44 416.613 511.065 416.647L509.189 416.809C508.814 416.841 508.546 417.059 508.593 417.293L510.17 425.267C510.215 425.5 510.559 425.664 510.933 425.632Z" fill="#282828"/>
<path d="M495.602 261.19C495.335 262.544 494.401 263.502 493.517 263.328C492.632 263.154 492.13 261.914 492.396 260.561C492.663 259.208 493.596 258.25 494.481 258.425C495.367 258.597 495.868 259.837 495.602 261.19Z" fill="#282828"/>
<path d="M480.298 258.182C480.031 259.535 479.098 260.493 478.213 260.317C477.329 260.143 476.826 258.905 477.092 257.55C477.359 256.197 478.293 255.239 479.177 255.415C480.062 255.588 480.562 256.828 480.298 258.182Z" fill="#282828"/>
<path d="M479.553 255.568L476.486 253.991C476.486 253.991 477.654 256.859 479.553 255.568Z" fill="#282828"/>
<path d="M485.558 261.557C485.558 261.557 482.114 266.934 479.032 269.249C480.491 271.27 483.681 271.104 483.681 271.104L485.558 261.557Z" fill="#ED847E"/>
<path d="M489.943 277.56C494.738 277.56 497.524 274.763 497.658 274.625C497.788 274.49 497.785 274.279 497.652 274.148C497.522 274.02 497.308 274.02 497.176 274.154C497.14 274.19 493.502 277.822 487.544 276.647C487.355 276.607 487.185 276.73 487.149 276.912C487.114 277.095 487.233 277.272 487.414 277.307C488.308 277.482 489.153 277.56 489.943 277.56Z" fill="#282828"/>
<path d="M504.796 255.94C504.915 255.94 505.034 255.908 505.144 255.842C505.461 255.649 505.564 255.235 505.371 254.916C503.09 251.141 499.423 250.975 499.268 250.971C498.875 250.986 498.588 251.249 498.574 251.619C498.559 251.99 498.848 252.302 499.221 252.319C499.347 252.324 502.326 252.485 504.218 255.615C504.345 255.825 504.568 255.94 504.796 255.94Z" fill="#282828"/>
<path d="M476.047 250.518C476.159 250.518 476.27 250.489 476.374 250.431C479.597 248.631 482.32 250.024 482.347 250.038C482.677 250.211 483.084 250.083 483.256 249.754C483.428 249.425 483.303 249.017 482.972 248.845C482.834 248.771 479.566 247.102 475.716 249.253C475.391 249.435 475.276 249.845 475.456 250.17C475.582 250.393 475.811 250.518 476.047 250.518Z" fill="#282828"/>
<path d="M519.487 311.02C519.487 311.02 516.658 329.266 516.904 359.013C517.064 378.677 512.065 466.654 538.958 570.015C581.959 570.257 601.005 582.64 601.005 582.64C601.005 582.64 559.308 414.364 554.029 327.384C553.504 318.716 546.624 311.82 537.958 311.276C529.414 310.739 519.487 311.02 519.487 311.02Z" fill="#9DADF9"/>
<path d="M562.965 454.354C562.851 454.354 562.734 454.324 562.628 454.261C550.546 447.053 538.179 426.834 537.66 425.978C537.471 425.668 537.571 425.261 537.881 425.074C538.194 424.885 538.595 424.985 538.784 425.295C538.909 425.503 551.504 446.091 563.303 453.133C563.615 453.32 563.717 453.723 563.532 454.035C563.407 454.241 563.188 454.354 562.965 454.354Z" fill="white"/>
<path opacity="0.2" d="M556.405 353.528L542.441 341.279C542.441 341.279 548.546 367.703 560.873 386.828C559.121 375.273 557.58 364.082 556.405 353.528Z" fill="black"/>
<path d="M486.994 314.367C486.994 314.367 485.456 332.583 485.456 379.436C485.456 424.645 491.037 489.765 482.451 571.753C468.54 575.178 460.837 585.327 460.837 585.327C460.837 585.327 472.439 436.478 459.107 335.609C457.956 326.902 464.405 319 473.037 317.378C481.426 315.8 486.994 314.367 486.994 314.367Z" fill="#9DADF9"/>
<path d="M617.689 449.467L576.043 460.306L579.896 475.11L621.542 464.27L617.689 449.467Z" fill="#9DADF9"/>
<path opacity="0.8" d="M620.127 458.845L578.481 469.684L579.175 472.349L620.821 461.51L620.127 458.845Z" fill="white"/>
<path d="M615.831 447.33L580.1 454.806L583.786 472.423L619.517 464.947L615.831 447.33Z" fill="#282828"/>
<path d="M584.81 443.874L581.859 458.865L596.006 455.293C596.006 455.293 596.966 444.983 591.151 440.892L584.81 443.874Z" fill="#FFC3BD"/>
<path d="M585.456 466.681L599.682 465.295L596.004 455.293L581.857 458.866L585.456 466.681Z" fill="#FFC3BD"/>
<path d="M548.833 316.278C552.982 320.559 556.663 324.78 560.396 329.195C564.07 333.612 567.69 338.083 571.124 342.778C574.588 347.456 577.937 352.239 581.092 357.367C582.666 359.96 584.238 362.513 585.667 365.362L586.756 367.452L587.795 369.692L588.816 371.946C589.154 372.685 589.502 373.647 589.833 374.488C591.067 377.883 591.836 380.969 592.467 384.025C593.095 387.066 593.594 390.036 594.012 392.969C594.819 398.835 595.297 404.602 595.626 410.336C596.23 421.823 596.219 433.105 595.397 444.572L582.059 445.278C579.91 434.494 577.892 423.562 575.645 412.942C574.529 407.626 573.324 402.37 571.995 397.297C571.341 394.762 570.625 392.288 569.855 389.935C569.075 387.603 568.257 385.335 567.406 383.559C567.17 383.128 567.034 382.78 566.737 382.279L565.877 380.801L565.015 379.317L564.015 377.786C562.734 375.764 561.226 373.666 559.763 371.591C556.756 367.429 553.413 363.288 550.073 359.142C543.343 350.914 536.062 342.619 529.113 334.664L548.833 316.278Z" fill="#9DADF9"/>
<path d="M637.856 731.931C638.077 731.931 638.296 731.893 638.518 731.819C640.547 731.135 641.88 727.378 642.492 725.201C642.528 725.07 642.485 724.932 642.381 724.847C642.277 724.764 642.131 724.749 642.012 724.811C641.394 725.134 635.972 728.034 635.794 730.175C635.768 730.502 635.847 730.975 636.372 731.371C636.862 731.744 637.361 731.931 637.856 731.931ZM641.61 725.798C640.668 728.803 639.453 730.793 638.3 731.182C637.801 731.349 637.306 731.235 636.775 730.835C636.469 730.604 636.45 730.379 636.463 730.23C636.573 728.916 639.75 726.852 641.61 725.798Z" fill="#9DADF9"/>
<path d="M637.019 726.644C638.945 726.644 641.305 726.03 642.343 725.397C642.445 725.335 642.506 725.221 642.504 725.102C642.502 724.983 642.434 724.874 642.33 724.815C642.148 724.715 637.852 722.352 635.543 723.174C634.94 723.386 634.513 723.791 634.276 724.373C633.908 725.28 634.31 725.805 634.585 726.036C635.097 726.472 635.996 726.644 637.019 726.644ZM641.424 725.108C639.587 725.89 636.025 726.372 635.019 725.524C634.853 725.382 634.687 725.151 634.9 724.628C635.063 724.227 635.346 723.959 635.766 723.811C637.342 723.248 640.203 724.507 641.424 725.108Z" fill="#9DADF9"/>
<path d="M494.647 772.216C496.597 772.216 498.716 771.84 500.188 771.513C500.328 771.481 500.434 771.364 500.451 771.222C500.466 771.078 500.39 770.942 500.258 770.88C499.425 770.487 492.061 767.085 490.205 768.34C489.969 768.498 489.693 768.81 489.725 769.381C489.771 770.173 490.107 770.812 490.727 771.281C491.649 771.976 493.093 772.216 494.647 772.216ZM499.03 771.061C496.843 771.471 492.8 772.003 491.135 770.744C490.674 770.394 490.434 769.937 490.398 769.343C490.383 769.069 490.489 768.96 490.583 768.897C491.619 768.192 495.974 769.716 499.03 771.061Z" fill="#9DADF9"/>
<path d="M500.115 771.521C500.192 771.521 500.272 771.492 500.332 771.441C500.428 771.36 500.47 771.232 500.444 771.109C500.374 770.799 498.703 763.537 494.706 764C493.706 764.12 493.432 764.617 493.377 765.012C493.127 766.86 497.769 770.587 499.986 771.494C500.028 771.511 500.071 771.521 500.115 771.521ZM495.067 764.653C497.62 764.653 499.107 768.879 499.601 770.57C497.202 769.313 493.883 766.286 494.044 765.102C494.055 765.015 494.091 764.751 494.785 764.668C494.881 764.658 494.976 764.653 495.067 764.653Z" fill="#9DADF9"/>
<path d="M494.858 258.577L491.791 257C491.791 257 492.959 259.867 494.858 258.577Z" fill="#282828"/>
<path d="M524.533 310.559L519.285 310.693C518.986 310.701 518.733 310.909 518.674 311.202C518.017 314.515 514.486 334.411 516.784 370.172C519.032 359.739 524.528 337.671 526.854 332.855C524.849 331.33 521.638 328.764 521.638 328.764L527.529 324.991L525.18 311.094C525.127 310.778 524.851 310.55 524.533 310.559Z" fill="#9DADF9"/>
<path opacity="0.2" d="M524.533 310.559L519.285 310.693C518.986 310.701 518.733 310.909 518.674 311.202C518.017 314.515 514.486 334.411 516.784 370.172C519.032 359.739 524.528 337.671 526.854 332.855C524.849 331.33 521.638 328.764 521.638 328.764L527.529 324.991L525.18 311.094C525.127 310.778 524.851 310.55 524.533 310.559Z" fill="white"/>
<path d="M481.238 314.91L487.459 313.825C487.459 313.825 488.002 331.597 485.473 370.918C483.226 360.485 478.544 338.871 478.28 332.853C480.287 331.328 483.496 328.762 483.496 328.762L477.605 324.989L481.238 314.91Z" fill="#9DADF9"/>
<path opacity="0.2" d="M481.238 314.91L487.459 313.825C487.459 313.825 488.002 331.597 485.473 370.918C483.226 360.485 478.544 338.871 478.28 332.853C480.287 331.328 483.496 328.762 483.496 328.762L477.605 324.989L481.238 314.91Z" fill="white"/>
<path d="M400.969 558.546H329.703C312.591 558.546 298.59 572.547 298.59 589.659V739.765C298.59 756.877 312.591 770.878 329.703 770.878H400.969C418.081 770.878 432.082 756.877 432.082 739.765V589.659C432.082 572.547 418.081 558.546 400.969 558.546Z" fill="#282828"/>
<path d="M374.736 420.739C384.441 420.739 392.335 428.635 392.335 438.338V641.245C392.335 650.95 384.439 658.845 374.736 658.845H355.936C346.231 658.845 338.336 650.95 338.336 641.245V438.34C338.336 428.635 346.233 420.741 355.936 420.741L374.736 420.739ZM374.736 417.344H355.936C344.388 417.344 334.94 426.792 334.94 438.34V641.247C334.94 652.795 344.388 662.243 355.936 662.243H374.736C386.284 662.243 395.732 652.795 395.732 641.247V438.34C395.73 426.792 386.282 417.344 374.736 417.344Z" fill="#282828"/>
<path d="M405.938 781.203C410.313 781.203 413.859 777.657 413.859 773.282C413.859 768.908 410.313 765.361 405.938 765.361C401.563 765.361 398.017 768.908 398.017 773.282C398.017 777.657 401.563 781.203 405.938 781.203Z" fill="#282828"/>
<path d="M385.987 773.282C385.987 777.658 382.439 781.203 378.066 781.203C373.691 781.203 370.145 777.656 370.145 773.282C370.145 768.907 373.691 765.361 378.066 765.361C382.439 765.359 385.987 768.907 385.987 773.282Z" fill="#282828"/>
<path d="M340.408 773.282C340.408 777.658 336.862 781.203 332.487 781.203C328.112 781.203 324.566 777.656 324.566 773.282C324.566 768.907 328.112 765.361 332.487 765.361C336.862 765.359 340.408 768.907 340.408 773.282Z" fill="#282828"/>
<path d="M304.613 781.203C308.988 781.203 312.534 777.657 312.534 773.282C312.534 768.908 308.988 765.361 304.613 765.361C300.239 765.361 296.692 768.908 296.692 773.282C296.692 777.657 300.239 781.203 304.613 781.203Z" fill="#282828"/>
<path d="M380.85 558.546H309.584C292.472 558.546 278.471 572.547 278.471 589.659V739.765C278.471 756.877 292.472 770.878 309.584 770.878H380.85C397.962 770.878 411.963 756.877 411.963 739.765V589.659C411.963 572.547 397.962 558.546 380.85 558.546Z" fill="#9DADF9"/>
<path opacity="0.2" d="M380.85 558.546H309.584C292.472 558.546 278.471 572.547 278.471 589.659V739.765C278.471 756.877 292.472 770.878 309.584 770.878H380.85C397.962 770.878 411.963 756.877 411.963 739.765V589.659C411.963 572.547 397.962 558.546 380.85 558.546Z" fill="white"/>
<path d="M366.792 578.329H308.805C294.882 578.329 283.491 589.72 283.491 603.643V725.779C283.491 739.703 294.882 751.094 308.805 751.094H366.792C380.716 751.094 392.107 739.703 392.107 725.779V603.643C392.107 589.722 380.714 578.329 366.792 578.329Z" fill="#9DADF9"/>
<path d="M301.882 738.586C297.906 738.586 294.67 735.35 294.67 731.373V598.051C294.67 594.074 297.906 590.839 301.882 590.839C305.859 590.839 309.094 594.074 309.094 598.051V731.373C309.094 735.35 305.859 738.586 301.882 738.586ZM301.882 592.536C298.841 592.536 296.367 595.01 296.367 598.051V731.373C296.367 734.414 298.841 736.888 301.882 736.888C304.923 736.888 307.395 734.414 307.395 731.373V598.051C307.397 595.01 304.923 592.536 301.882 592.536Z" fill="white"/>
<path d="M373.957 738.586C369.981 738.586 366.745 735.35 366.745 731.373V598.051C366.745 594.074 369.981 590.839 373.957 590.839C377.936 590.839 381.17 594.074 381.17 598.051V731.373C381.17 735.35 377.934 738.586 373.957 738.586ZM373.957 592.536C370.916 592.536 368.444 595.01 368.444 598.051V731.373C368.444 734.414 370.918 736.888 373.957 736.888C376.998 736.888 379.472 734.414 379.472 731.373V598.051C379.472 595.01 376.998 592.536 373.957 592.536Z" fill="white"/>
<path d="M349.931 738.586C345.955 738.586 342.719 735.35 342.719 731.373V598.051C342.719 594.074 345.955 590.839 349.931 590.839C353.908 590.839 357.144 594.074 357.144 598.051V731.373C357.144 735.35 353.908 738.586 349.931 738.586ZM349.931 592.536C346.89 592.536 344.418 595.01 344.418 598.051V731.373C344.418 734.414 346.892 736.888 349.931 736.888C352.971 736.888 355.445 734.414 355.445 731.373V598.051C355.447 595.01 352.973 592.536 349.931 592.536Z" fill="white"/>
<path d="M325.908 738.586C321.931 738.586 318.695 735.35 318.695 731.373V598.051C318.695 594.074 321.931 590.839 325.908 590.839C329.884 590.839 333.12 594.074 333.12 598.051V731.373C333.118 735.35 329.884 738.586 325.908 738.586ZM325.908 592.536C322.867 592.536 320.394 595.01 320.394 598.051V731.373C320.394 734.414 322.868 736.888 325.908 736.888C328.947 736.888 331.421 734.414 331.421 731.373V598.051C331.421 595.01 328.947 592.536 325.908 592.536Z" fill="white"/>
</svg>
