<svg width="508" height="339" viewBox="0 0 508 339" fill="none" xmlns="http://www.w3.org/2000/svg">
<path d="M195.243 331.36H12.6545C12.4301 331.36 12.248 331.178 12.248 330.954V231.442C12.248 231.218 12.4296 231.036 12.6535 231.036C29.1368 231.006 29.1475 231.013 29.282 231.091C29.4761 231.203 29.542 231.452 29.4292 231.646C29.346 231.789 29.1896 231.863 29.0341 231.846C28.5048 231.825 17.7125 231.839 13.0607 231.847V330.548H195.243C195.467 330.548 195.649 330.73 195.649 330.954C195.649 331.178 195.468 331.36 195.243 331.36Z" fill="#282828"/>
<path d="M406.665 14.3184H344.891V136.767H406.665V14.3184Z" fill="white"/>
<path d="M406.665 137.173H344.891C344.666 137.173 344.484 136.991 344.484 136.767V14.3183C344.484 14.0941 344.666 13.9121 344.891 13.9121H406.665C406.889 13.9121 407.072 14.0939 407.072 14.3183V136.767C407.072 136.991 406.889 137.173 406.665 137.173ZM345.297 136.361H406.259V14.7244H345.297V136.361Z" fill="#282828"/>
<path d="M406.665 21.1094H351.742V129.976H406.665V21.1094Z" fill="#E2EAFF"/>
<path d="M406.664 136.767L444.639 150.29V27.8417L406.664 14.3184V136.767Z" fill="white"/>
<path d="M444.639 150.696C444.593 150.696 444.546 150.688 444.502 150.673L406.528 137.149C406.366 137.092 406.258 136.938 406.258 136.767V14.3182C406.258 14.1862 406.322 14.0624 406.43 13.9863C406.538 13.9101 406.677 13.8915 406.801 13.9356L444.775 27.4591C444.937 27.5168 445.045 27.6699 445.045 27.8417V150.29C445.045 150.422 444.981 150.546 444.873 150.622C444.803 150.671 444.721 150.696 444.639 150.696ZM407.071 136.48L444.232 149.714V28.1281L407.071 14.8941V136.48Z" fill="#282828"/>
<path d="M506.739 27.8418H444.639V150.29H506.739V27.8418Z" fill="white"/>
<path d="M506.739 150.696H444.639C444.414 150.696 444.232 150.515 444.232 150.29V27.8418C444.232 27.6176 444.414 27.4355 444.639 27.4355H506.739C506.964 27.4355 507.146 27.6174 507.146 27.8418V150.29C507.146 150.515 506.964 150.696 506.739 150.696ZM445.045 149.884H506.333V28.248H445.045V149.884Z" fill="#282828"/>
<path d="M499.326 35.1504H444.639V142.981H499.326V35.1504Z" fill="#E2EAFF"/>
<path d="M406.664 129.976L444.639 142.675V34.9032L406.664 21.1094V129.976Z" fill="#E2EAFF"/>
<path d="M445.248 143.521L406.055 130.414V20.2393L445.248 34.4759V143.521ZM407.274 129.537L444.029 141.829V35.3294L407.274 21.9783V129.537Z" fill="white"/>
<path d="M498.697 127.184C497.618 125.621 459.306 87.6946 444.39 72.9708H427.094V28.751H428.313V71.7523H444.89L445.068 71.9281C445.205 72.0629 458.871 85.553 472.362 98.9491C480.286 106.817 486.6 113.114 491.128 117.665C499.835 126.414 499.834 126.533 499.834 126.888H498.615C498.615 127.061 498.688 127.172 498.697 127.184Z" fill="white"/>
<path d="M380.363 82.8214L363.93 66.4056V21.1094H365.149V65.9007L381.225 81.9595L380.363 82.8214Z" fill="white"/>
<path d="M381.403 112.645H349.188V111.427H380.184V63.8165H406.189L444.893 102.479H478.313V35.1504H479.532V103.697H444.388L405.684 65.035H381.403V112.645Z" fill="white"/>
<path d="M381.407 25.6334C385.738 25.6334 389.249 22.1239 389.249 17.7947C389.249 13.4655 385.738 9.95605 381.407 9.95605C377.075 9.95605 373.564 13.4655 373.564 17.7947C373.564 22.1239 377.075 25.6334 381.407 25.6334Z" fill="white"/>
<path d="M381.407 6.12012C375.099 6.12012 369.986 11.2309 369.986 17.5356C369.986 28.5301 381.407 40.1074 381.407 40.1074C381.407 40.1074 392.827 28.4248 392.827 17.5356C392.827 11.2309 387.714 6.12012 381.407 6.12012ZM381.407 23.1139C378.468 23.1139 376.085 20.7323 376.085 17.7947C376.085 14.857 378.468 12.4755 381.407 12.4755C384.346 12.4755 386.728 14.857 386.728 17.7947C386.728 20.7323 384.346 23.1139 381.407 23.1139Z" fill="#30A2FF"/>
<path d="M484.13 84.3023C488.406 83.6088 491.309 79.5824 490.615 75.309C489.921 71.0357 485.893 68.1337 481.618 68.8273C477.343 69.5208 474.439 73.5472 475.133 77.8206C475.827 82.0939 479.855 84.9959 484.13 84.3023Z" fill="white"/>
<path d="M482.866 64.8984C476.558 64.8984 471.445 70.0093 471.445 76.3139C471.445 87.3084 482.866 98.8859 482.866 98.8859C482.866 98.8859 494.286 87.2033 494.286 76.3139C494.286 70.0093 489.173 64.8984 482.866 64.8984ZM482.866 81.8922C479.927 81.8922 477.544 79.5107 477.544 76.573C477.544 73.6353 479.927 71.2538 482.866 71.2538C485.805 71.2538 488.187 73.6353 488.187 76.573C488.187 79.5107 485.805 81.8922 482.866 81.8922Z" fill="#30A2FF"/>
<path d="M372.664 84.4117C376.995 84.4117 380.506 80.9022 380.506 76.573C380.506 72.2439 376.995 68.7344 372.664 68.7344C368.333 68.7344 364.822 72.2439 364.822 76.573C364.822 80.9022 368.333 84.4117 372.664 84.4117Z" fill="white"/>
<path d="M372.665 64.8984C366.357 64.8984 361.244 70.0093 361.244 76.3139C361.244 87.3084 372.665 98.8857 372.665 98.8857C372.665 98.8857 384.085 87.2031 384.085 76.3139C384.085 70.0093 378.972 64.8984 372.665 64.8984ZM372.665 81.8922C369.726 81.8922 367.343 79.5107 367.343 76.573C367.343 73.6353 369.726 71.2538 372.665 71.2538C375.604 71.2538 377.986 73.6353 377.986 76.573C377.986 79.5107 375.604 81.8922 372.665 81.8922Z" fill="#30A2FF"/>
<path d="M136.898 37.5869V130.824L96.7598 129.807L97.0444 60.0843H109.601L109.526 37.5869H136.898Z" fill="white"/>
<path d="M136.899 91.3688C136.675 91.3688 136.493 91.187 136.493 90.9626V37.9931H110.008V60.0842C110.008 60.3085 109.826 60.4905 109.602 60.4905H97.0451C96.8208 60.4905 96.6387 60.3087 96.6387 60.0842C96.6387 59.86 96.8206 59.678 97.0451 59.678H109.196V37.5869C109.196 37.3627 109.377 37.1807 109.602 37.1807H136.899C137.123 37.1807 137.306 37.3625 137.306 37.5869V90.9626C137.305 91.187 137.123 91.3688 136.899 91.3688Z" fill="#282828"/>
<path d="M112.877 44.3968C112.653 44.3968 112.471 44.215 112.471 43.9906V40.2832C112.471 40.059 112.653 39.877 112.877 39.877C113.101 39.877 113.284 40.0588 113.284 40.2832V43.9906C113.284 44.215 113.102 44.3968 112.877 44.3968Z" fill="#282828"/>
<path d="M112.877 52.1556C112.653 52.1556 112.471 51.9737 112.471 51.7493V48.042C112.471 47.8177 112.653 47.6357 112.877 47.6357C113.101 47.6357 113.284 47.8176 113.284 48.042V51.7493C113.284 51.9736 113.102 52.1556 112.877 52.1556Z" fill="#282828"/>
<path d="M112.877 59.9144C112.653 59.9144 112.471 59.7325 112.471 59.5081V55.8008C112.471 55.5765 112.653 55.3945 112.877 55.3945C113.101 55.3945 113.284 55.5764 113.284 55.8008V59.5081C113.284 59.7325 113.102 59.9144 112.877 59.9144Z" fill="#282828"/>
<path d="M117.067 52.1556C116.842 52.1556 116.66 51.9737 116.66 51.7493V48.042C116.66 47.8177 116.842 47.6357 117.067 47.6357C117.291 47.6357 117.473 47.8176 117.473 48.042V51.7493C117.473 51.9736 117.291 52.1556 117.067 52.1556Z" fill="#282828"/>
<path d="M117.067 59.9144C116.842 59.9144 116.66 59.7325 116.66 59.5081V55.8008C116.66 55.5765 116.842 55.3945 117.067 55.3945C117.291 55.3945 117.473 55.5764 117.473 55.8008V59.5081C117.473 59.7325 117.291 59.9144 117.067 59.9144Z" fill="#282828"/>
<path d="M117.067 67.6731C116.842 67.6731 116.66 67.4913 116.66 67.2669V63.5596C116.66 63.3353 116.842 63.1533 117.067 63.1533C117.291 63.1533 117.473 63.3351 117.473 63.5596V67.2669C117.473 67.4913 117.291 67.6731 117.067 67.6731Z" fill="#282828"/>
<path d="M121.256 59.9144C121.032 59.9144 120.85 59.7325 120.85 59.5081V55.8008C120.85 55.5765 121.032 55.3945 121.256 55.3945C121.48 55.3945 121.662 55.5764 121.662 55.8008V59.5081C121.662 59.7325 121.48 59.9144 121.256 59.9144Z" fill="#282828"/>
<path d="M121.256 67.6731C121.032 67.6731 120.85 67.4913 120.85 67.2669V63.5596C120.85 63.3353 121.032 63.1533 121.256 63.1533C121.48 63.1533 121.662 63.3351 121.662 63.5596V67.2669C121.662 67.4913 121.48 67.6731 121.256 67.6731Z" fill="#282828"/>
<path d="M121.256 75.4329C121.032 75.4329 120.85 75.2511 120.85 75.0267V71.3193C120.85 71.0951 121.032 70.9131 121.256 70.9131C121.48 70.9131 121.662 71.0949 121.662 71.3193V75.0267C121.662 75.2509 121.48 75.4329 121.256 75.4329Z" fill="#282828"/>
<path d="M125.445 52.1556C125.221 52.1556 125.039 51.9737 125.039 51.7493V48.042C125.039 47.8177 125.221 47.6357 125.445 47.6357C125.67 47.6357 125.852 47.8176 125.852 48.042V51.7493C125.852 51.9736 125.67 52.1556 125.445 52.1556Z" fill="#282828"/>
<path d="M125.445 59.9144C125.221 59.9144 125.039 59.7325 125.039 59.5081V55.8008C125.039 55.5765 125.221 55.3945 125.445 55.3945C125.67 55.3945 125.852 55.5764 125.852 55.8008V59.5081C125.852 59.7325 125.67 59.9144 125.445 59.9144Z" fill="#282828"/>
<path d="M125.445 67.6731C125.221 67.6731 125.039 67.4913 125.039 67.2669V63.5596C125.039 63.3353 125.221 63.1533 125.445 63.1533C125.67 63.1533 125.852 63.3351 125.852 63.5596V67.2669C125.852 67.4913 125.67 67.6731 125.445 67.6731Z" fill="#282828"/>
<path d="M129.26 67.6731C129.036 67.6731 128.854 67.4913 128.854 67.2669V63.5596C128.854 63.3353 129.035 63.1533 129.26 63.1533C129.484 63.1533 129.666 63.3351 129.666 63.5596V67.2669C129.666 67.4913 129.484 67.6731 129.26 67.6731Z" fill="#282828"/>
<path d="M129.26 75.4319C129.036 75.4319 128.854 75.2501 128.854 75.0257V71.3183C128.854 71.0941 129.035 70.9121 129.26 70.9121C129.484 70.9121 129.666 71.0939 129.666 71.3183V75.0257C129.666 75.2499 129.484 75.4319 129.26 75.4319Z" fill="#282828"/>
<path d="M129.26 83.1905C129.036 83.1905 128.854 83.0087 128.854 82.7843V79.0771C128.854 78.8529 129.035 78.6709 129.26 78.6709C129.484 78.6709 129.666 78.8527 129.666 79.0771V82.7845C129.666 83.0087 129.484 83.1905 129.26 83.1905Z" fill="#282828"/>
<path d="M133.449 75.4319C133.225 75.4319 133.043 75.2501 133.043 75.0257V71.3183C133.043 71.0941 133.225 70.9121 133.449 70.9121C133.674 70.9121 133.856 71.0939 133.856 71.3183V75.0257C133.856 75.2499 133.674 75.4319 133.449 75.4319Z" fill="#282828"/>
<path d="M133.449 83.1905C133.225 83.1905 133.043 83.0087 133.043 82.7843V79.0771C133.043 78.8529 133.225 78.6709 133.449 78.6709C133.674 78.6709 133.856 78.8527 133.856 79.0771V82.7845C133.856 83.0087 133.674 83.1905 133.449 83.1905Z" fill="#282828"/>
<path d="M133.449 90.9497C133.225 90.9497 133.043 90.7679 133.043 90.5435V86.8359C133.043 86.6117 133.225 86.4297 133.449 86.4297C133.674 86.4297 133.856 86.6115 133.856 86.8359V90.5435C133.856 90.7679 133.674 90.9497 133.449 90.9497Z" fill="#282828"/>
<path d="M97.2909 1.18066H37.9883V134.185H97.2909V1.18066Z" fill="white"/>
<path d="M87.1719 17.4141H93.9512V10.0963H87.1719V17.4141Z" fill="#E2EAFF"/>
<path d="M64.0508 17.4141H70.8301V10.0963H64.0508V17.4141Z" fill="#E2EAFF"/>
<path d="M52.4903 17.4141H59.2695V10.0963H52.4903V17.4141Z" fill="#E2EAFF"/>
<path d="M40.9297 17.4141H47.709V10.0963H40.9297V17.4141Z" fill="#E2EAFF"/>
<path d="M87.1719 26.7734H93.9512V19.4557H87.1719V26.7734Z" fill="#E2EAFF"/>
<path d="M75.6113 26.7734H82.3906V19.4557H75.6113V26.7734Z" fill="#E2EAFF"/>
<path d="M64.0508 26.7734H70.8301V19.4557H64.0508V26.7734Z" fill="#E2EAFF"/>
<path d="M52.4903 26.7734H59.2695V19.4557H52.4903V26.7734Z" fill="#E2EAFF"/>
<path d="M87.1719 36.1318H93.9512V28.8141H87.1719V36.1318Z" fill="#E2EAFF"/>
<path d="M75.6113 36.1318H82.3906V28.8141H75.6113V36.1318Z" fill="#E2EAFF"/>
<path d="M52.4903 36.1318H59.2695V28.8141H52.4903V36.1318Z" fill="#E2EAFF"/>
<path d="M40.9297 36.1318H47.709V28.8141H40.9297V36.1318Z" fill="#E2EAFF"/>
<path d="M87.1719 45.4912H93.9512V38.1735H87.1719V45.4912Z" fill="#E2EAFF"/>
<path d="M64.0508 45.4912H70.8301V38.1735H64.0508V45.4912Z" fill="#E2EAFF"/>
<path d="M52.4903 45.4912H59.2695V38.1735H52.4903V45.4912Z" fill="#E2EAFF"/>
<path d="M40.9297 45.4912H47.709V38.1735H40.9297V45.4912Z" fill="#E2EAFF"/>
<path d="M75.6113 73.5625H82.3906V66.2448H75.6113V73.5625Z" fill="#E2EAFF"/>
<path d="M64.0508 73.5625H70.8301V66.2448H64.0508V73.5625Z" fill="#E2EAFF"/>
<path d="M52.4903 73.5625H59.2695V66.2448H52.4903V73.5625Z" fill="#E2EAFF"/>
<path d="M87.1719 83.3857H93.9512V76.068H87.1719V83.3857Z" fill="#E2EAFF"/>
<path d="M64.0508 83.3857H70.8301V76.068H64.0508V83.3857Z" fill="#E2EAFF"/>
<path d="M40.9297 73.5625H47.709V66.2448H40.9297V73.5625Z" fill="#E2EAFF"/>
<path d="M87.1719 54.8496H93.9512V47.5319H87.1719V54.8496Z" fill="#E2EAFF"/>
<path d="M75.6113 54.8496H82.3906V47.5319H75.6113V54.8496Z" fill="#E2EAFF"/>
<path d="M64.0508 54.8496H70.8301V47.5319H64.0508V54.8496Z" fill="#E2EAFF"/>
<path d="M52.4903 54.8496H59.2695V47.5319H52.4903V54.8496Z" fill="#E2EAFF"/>
<path d="M40.9297 54.8496H47.709V47.5319H40.9297V54.8496Z" fill="#E2EAFF"/>
<path d="M87.1719 64.209H93.9512V56.8913H87.1719V64.209Z" fill="#E2EAFF"/>
<path d="M75.6113 64.209H82.3906V56.8913H75.6113V64.209Z" fill="#E2EAFF"/>
<path d="M64.0508 64.209H70.8301V56.8913H64.0508V64.209Z" fill="#E2EAFF"/>
<path d="M52.4903 64.209H59.2695V56.8913H52.4903V64.209Z" fill="#E2EAFF"/>
<path d="M40.9297 64.209H47.709V56.8913H40.9297V64.209Z" fill="#E2EAFF"/>
<path d="M97.2913 105.425C97.067 105.425 96.8849 105.243 96.8849 105.019V1.5867H38.3949V84.8352C38.3949 85.0594 38.213 85.2414 37.9884 85.2414C37.7639 85.2414 37.582 85.0596 37.582 84.8352V1.18065C37.582 0.956417 37.7639 0.774414 37.9884 0.774414H97.2911C97.5154 0.774414 97.6975 0.956233 97.6975 1.18065V105.019C97.6975 105.243 97.5156 105.425 97.2913 105.425Z" fill="#282828"/>
<path d="M67.7902 52.248H91.6684V80.3071V90.544L67.5898 90.4939L67.7902 52.248Z" fill="white"/>
<path d="M91.6675 100.044C91.4432 100.044 91.2611 99.862 91.2611 99.6375V52.6543H69.5568C69.3325 52.6543 69.1504 52.4724 69.1504 52.248C69.1504 52.0238 69.3323 51.8418 69.5568 51.8418H91.6675C91.8918 51.8418 92.0739 52.0236 92.0739 52.248V99.6375C92.0739 99.862 91.8918 100.044 91.6675 100.044Z" fill="#282828"/>
<path d="M9.44423 39.6794V28.6406H59.4081V39.6794H67.5926V134.572H1.25977V39.6794H9.44423Z" fill="white"/>
<path d="M64.1475 62.4448H56.5588C56.3344 62.4448 56.1523 62.263 56.1523 62.0385V47.9834C56.1523 47.7592 56.3342 47.5771 56.5588 47.5771H64.1475C64.3719 47.5771 64.5539 47.759 64.5539 47.9834C64.5539 48.2076 64.3721 48.3896 64.1475 48.3896H56.965V61.6323H64.1475C64.3719 61.6323 64.5539 61.8141 64.5539 62.0385C64.5538 62.263 64.3719 62.4448 64.1475 62.4448Z" fill="#282828"/>
<path d="M51.2061 62.4448H43.6173C43.393 62.4448 43.2109 62.263 43.2109 62.0385V56.5449C43.2109 56.3207 43.3928 56.1387 43.6173 56.1387C43.8417 56.1387 44.0238 56.3205 44.0238 56.5449V61.6323H50.7999V47.9834C50.7999 47.7592 50.9818 47.5771 51.2063 47.5771C51.4306 47.5771 51.6127 47.759 51.6127 47.9834V62.0385C51.6125 62.263 51.4306 62.4448 51.2061 62.4448Z" fill="#282828"/>
<path d="M35.2983 62.0385H38.2647V47.9834H30.6758V57.6823L35.2983 62.0385Z" fill="white"/>
<path d="M38.2649 62.4446H35.2983C35.0739 62.4446 34.8919 62.2628 34.8919 62.0383C34.8919 61.8141 35.0738 61.6321 35.2983 61.6321H37.8585V48.3896H31.0824V57.6823C31.0824 57.9065 30.9005 58.0885 30.6759 58.0885C30.4514 58.0885 30.2695 57.9067 30.2695 57.6823V47.9834C30.2695 47.7592 30.4514 47.5771 30.6759 47.5771H38.2647C38.489 47.5771 38.6711 47.759 38.6711 47.9834V62.0385C38.6713 62.2628 38.4892 62.4446 38.2649 62.4446Z" fill="#282828"/>
<path d="M25.3253 62.4446H17.7365C17.5122 62.4446 17.3301 62.2628 17.3301 62.0383V58.5668C17.3301 58.3426 17.512 58.1606 17.7365 58.1606C17.9608 58.1606 18.1429 58.3424 18.1429 58.5668V61.6321H24.919V48.3896H22.6066C22.3823 48.3896 22.2002 48.2078 22.2002 47.9834C22.2002 47.7592 22.3821 47.5771 22.6066 47.5771H25.3253C25.5496 47.5771 25.7317 47.759 25.7317 47.9834V62.0385C25.7315 62.2628 25.5496 62.4446 25.3253 62.4446Z" fill="#282828"/>
<path d="M12.3839 62.4448H4.79508C4.57075 62.4448 4.38867 62.263 4.38867 62.0385V47.9834C4.38867 47.7592 4.57056 47.5771 4.79508 47.5771C5.01959 47.5771 5.20149 47.759 5.20149 47.9834V61.6323H11.9776V55.6601C11.9776 55.4359 12.1595 55.2539 12.384 55.2539C12.6086 55.2539 12.7905 55.4357 12.7905 55.6601V62.0385C12.7903 62.263 12.6082 62.4448 12.3839 62.4448Z" fill="#282828"/>
<path d="M64.1475 116.845H56.5588C56.3344 116.845 56.1523 116.663 56.1523 116.439V102.384C56.1523 102.16 56.3342 101.978 56.5588 101.978H60.3531C60.5775 101.978 60.7596 102.159 60.7596 102.384C60.7596 102.608 60.5777 102.79 60.3531 102.79H56.9652V116.033H63.7413V106.667C63.7413 106.443 63.9232 106.261 64.1477 106.261C64.3721 106.261 64.5541 106.443 64.5541 106.667V116.439C64.5538 116.663 64.3719 116.845 64.1475 116.845Z" fill="#282828"/>
<path d="M51.2061 116.845H43.6173C43.393 116.845 43.2109 116.663 43.2109 116.439V102.384C43.2109 102.16 43.3928 101.978 43.6173 101.978C43.8417 101.978 44.0238 102.159 44.0238 102.384V116.033H50.7999V112.443C50.7999 112.219 50.9818 112.037 51.2063 112.037C51.4306 112.037 51.6127 112.219 51.6127 112.443V116.439C51.6125 116.663 51.4306 116.845 51.2061 116.845Z" fill="#282828"/>
<path d="M38.2667 116.845H30.6779C30.4536 116.845 30.2715 116.663 30.2715 116.439V102.384C30.2715 102.16 30.4534 101.978 30.6779 101.978H38.2667C38.491 101.978 38.6731 102.159 38.6731 102.384V116.439C38.6731 116.663 38.491 116.845 38.2667 116.845ZM31.0841 116.033H37.8603V102.79H31.0841V116.033Z" fill="#282828"/>
<path d="M25.3255 116.845C25.1011 116.845 24.919 116.663 24.919 116.439V102.79H18.1429V112.967C18.1429 113.192 17.961 113.374 17.7365 113.374C17.5122 113.374 17.3301 113.192 17.3301 112.967V102.384C17.3301 102.16 17.512 101.978 17.7365 101.978H25.3253C25.5496 101.978 25.7317 102.159 25.7317 102.384V116.439C25.7317 116.663 25.5498 116.845 25.3255 116.845Z" fill="#282828"/>
<path d="M8.58966 116.845H4.79508C4.57075 116.845 4.38867 116.663 4.38867 116.439V102.384C4.38867 102.16 4.57057 101.978 4.79508 101.978H12.3839C12.6082 101.978 12.7903 102.159 12.7903 102.384V108.762C12.7903 108.986 12.6084 109.168 12.3839 109.168C12.1593 109.168 11.9774 108.987 11.9774 108.762V102.79H5.20131V116.033H8.58947C8.8138 116.033 8.99588 116.215 8.99588 116.439C8.99607 116.663 8.81417 116.845 8.58966 116.845Z" fill="#282828"/>
<path d="M64.1475 80.4202H56.5588C56.3344 80.4202 56.1523 80.2383 56.1523 80.0139V72.5963C56.1523 72.372 56.3342 72.19 56.5588 72.19C56.7831 72.19 56.9652 72.3718 56.9652 72.5963V79.6079H63.7413V65.959C63.7413 65.7347 63.9232 65.5527 64.1477 65.5527C64.3721 65.5527 64.5541 65.7346 64.5541 65.959V80.0141C64.5538 80.2382 64.3719 80.4202 64.1475 80.4202Z" fill="#282828"/>
<path d="M51.2063 80.4204H47.8554C47.6311 80.4204 47.449 80.2385 47.449 80.0141C47.449 79.7899 47.6309 79.6079 47.8554 79.6079H50.7999V66.3652H43.6173C43.393 66.3652 43.2109 66.1834 43.2109 65.959C43.2109 65.7347 43.3928 65.5527 43.6173 65.5527H51.2061C51.4305 65.5527 51.6125 65.7346 51.6125 65.959V80.0141C51.6127 80.2384 51.4308 80.4204 51.2063 80.4204Z" fill="#282828"/>
<path d="M34.0718 80.4204H30.6779C30.4536 80.4204 30.2715 80.2385 30.2715 80.0141V65.959C30.2715 65.7347 30.4534 65.5527 30.6779 65.5527H34.8907C35.115 65.5527 35.2969 65.7346 35.2969 65.959C35.2969 66.1832 35.115 66.3652 34.8907 66.3652H31.0843V79.6079H34.072C34.2963 79.6079 34.4784 79.7897 34.4784 80.0141C34.4782 80.2384 34.2961 80.4204 34.0718 80.4204Z" fill="#282828"/>
<path d="M17.7365 80.4204C17.5122 80.4204 17.3301 80.2385 17.3301 80.0141V65.959C17.3301 65.7347 17.512 65.5527 17.7365 65.5527H25.3253C25.5496 65.5527 25.7317 65.7346 25.7317 65.959V72.5963C25.7317 72.8205 25.5498 73.0025 25.3253 73.0025C25.1009 73.0025 24.9189 72.8207 24.9189 72.5963V66.365H18.1429V80.0139C18.1429 80.2384 17.961 80.4204 17.7365 80.4204Z" fill="#282828"/>
<path d="M12.384 80.4204H9.50375C9.27943 80.4204 9.09734 80.2385 9.09734 80.0141C9.09734 79.7899 9.27924 79.6079 9.50375 79.6079H11.9776V66.3652H4.79508C4.57075 66.3652 4.38867 66.1834 4.38867 65.959C4.38867 65.7347 4.57057 65.5527 4.79508 65.5527H12.3839C12.6082 65.5527 12.7903 65.7346 12.7903 65.959V80.0141C12.7905 80.2384 12.6084 80.4204 12.384 80.4204Z" fill="#282828"/>
<path d="M64.1475 98.3958H56.5588C56.3344 98.3958 56.1523 98.2139 56.1523 97.9895V83.9346C56.1523 83.7103 56.3342 83.5283 56.5588 83.5283H64.1475C64.3719 83.5283 64.5539 83.7101 64.5539 83.9346V97.9895C64.5538 98.2139 64.3719 98.3958 64.1475 98.3958ZM56.965 97.5835H63.7411V84.3406H56.965V97.5835Z" fill="#282828"/>
<path d="M51.2061 98.3958H43.6173C43.393 98.3958 43.2109 98.2139 43.2109 97.9895V83.9346C43.2109 83.7103 43.3928 83.5283 43.6173 83.5283H51.2061C51.4305 83.5283 51.6125 83.7101 51.6125 83.9346V97.9895C51.6125 98.2139 51.4306 98.3958 51.2061 98.3958ZM44.0238 97.5835H50.7999V84.3406H44.0238V97.5835Z" fill="#282828"/>
<path d="M38.2649 94.868C38.0406 94.868 37.8585 94.6862 37.8585 94.4618V84.3408H30.6759C30.4516 84.3408 30.2695 84.159 30.2695 83.9346C30.2695 83.7103 30.4514 83.5283 30.6759 83.5283H38.2647C38.489 83.5283 38.6711 83.7101 38.6711 83.9346V94.4618C38.6713 94.6862 38.4892 94.868 38.2649 94.868Z" fill="#282828"/>
<path d="M25.3253 98.3958H17.7365C17.5122 98.3958 17.3301 98.2139 17.3301 97.9895V83.9346C17.3301 83.7103 17.512 83.5283 17.7365 83.5283H25.3253C25.5496 83.5283 25.7317 83.7101 25.7317 83.9346V97.9895C25.7315 98.2139 25.5496 98.3958 25.3253 98.3958ZM18.1427 97.5835H24.9189V84.3406H18.1427V97.5835Z" fill="#282828"/>
<path d="M12.3839 98.3958H4.79508C4.57075 98.3958 4.38867 98.2139 4.38867 97.9895V83.9346C4.38867 83.7103 4.57056 83.5283 4.79508 83.5283C5.01959 83.5283 5.20149 83.7101 5.20149 83.9346V97.5835H11.9776V92.1866C11.9776 91.9624 12.1595 91.7804 12.384 91.7804C12.6086 91.7804 12.7905 91.9622 12.7905 92.1866V97.9895C12.7903 98.2139 12.6082 98.3958 12.3839 98.3958Z" fill="#282828"/>
<path d="M67.5927 134.978C67.3684 134.978 67.1863 134.796 67.1863 134.572V40.0854H59.4083C59.184 40.0854 59.0019 39.9036 59.0019 39.6792V29.0467H9.8508V39.6792C9.8508 39.9034 9.6689 40.0854 9.44439 40.0854H1.66634V134.572C1.66634 134.796 1.48444 134.978 1.25993 134.978C1.0356 134.978 0.853516 134.796 0.853516 134.572V39.6793C0.853516 39.4551 1.03541 39.2731 1.25993 39.2731H9.03798V28.6406C9.03798 28.4164 9.21988 28.2344 9.44439 28.2344H59.4083C59.6326 28.2344 59.8147 28.4162 59.8147 28.6406V39.2731H67.5927C67.8171 39.2731 67.9992 39.4549 67.9992 39.6793V134.572C67.999 134.796 67.8171 134.978 67.5927 134.978Z" fill="#282828"/>
<path d="M186.159 57.4922H136.898V130.824H186.159V57.4922Z" fill="white"/>
<path d="M177.754 70.9766H183.385V64.898H177.754V70.9766Z" fill="#E2EAFF"/>
<path d="M158.546 70.9766H164.178V64.898H158.546V70.9766Z" fill="#E2EAFF"/>
<path d="M148.945 70.9766H154.576V64.898H148.945V70.9766Z" fill="#E2EAFF"/>
<path d="M139.341 70.9766H144.973V64.898H139.341V70.9766Z" fill="#E2EAFF"/>
<path d="M177.754 78.751H183.385V72.6724H177.754V78.751Z" fill="#E2EAFF"/>
<path d="M168.15 78.751H173.781V72.6724H168.15V78.751Z" fill="#E2EAFF"/>
<path d="M158.546 78.751H164.178V72.6724H158.546V78.751Z" fill="#E2EAFF"/>
<path d="M148.945 78.751H154.576V72.6724H148.945V78.751Z" fill="#E2EAFF"/>
<path d="M177.754 86.5254H183.385V80.4468H177.754V86.5254Z" fill="#E2EAFF"/>
<path d="M168.15 86.5254H173.781V80.4468H168.15V86.5254Z" fill="#E2EAFF"/>
<path d="M148.945 86.5254H154.576V80.4468H148.945V86.5254Z" fill="#E2EAFF"/>
<path d="M139.341 86.5254H144.973V80.4468H139.341V86.5254Z" fill="#E2EAFF"/>
<path d="M177.754 94.2988H183.385V88.2203H177.754V94.2988Z" fill="#E2EAFF"/>
<path d="M158.546 94.2988H164.178V88.2203H158.546V94.2988Z" fill="#E2EAFF"/>
<path d="M148.945 94.2988H154.576V88.2203H148.945V94.2988Z" fill="#E2EAFF"/>
<path d="M139.341 94.2988H144.973V88.2203H139.341V94.2988Z" fill="#E2EAFF"/>
<path d="M168.15 117.617H173.781V111.539H168.15V117.617Z" fill="#E2EAFF"/>
<path d="M158.546 117.617H164.178V111.539H158.546V117.617Z" fill="#E2EAFF"/>
<path d="M148.945 117.617H154.576V111.539H148.945V117.617Z" fill="#E2EAFF"/>
<path d="M177.754 125.777H183.385V119.699H177.754V125.777Z" fill="#E2EAFF"/>
<path d="M158.546 125.777H164.178V119.699H158.546V125.777Z" fill="#E2EAFF"/>
<path d="M139.341 117.617H144.973V111.539H139.341V117.617Z" fill="#E2EAFF"/>
<path d="M177.754 102.073H183.385V95.9947H177.754V102.073Z" fill="#E2EAFF"/>
<path d="M168.15 102.073H173.781V95.9947H168.15V102.073Z" fill="#E2EAFF"/>
<path d="M158.546 102.073H164.178V95.9947H158.546V102.073Z" fill="#E2EAFF"/>
<path d="M148.945 102.073H154.576V95.9947H148.945V102.073Z" fill="#E2EAFF"/>
<path d="M139.341 102.073H144.973V95.9947H139.341V102.073Z" fill="#E2EAFF"/>
<path d="M177.754 109.848H183.385V103.769H177.754V109.848Z" fill="#E2EAFF"/>
<path d="M168.15 109.848H173.781V103.769H168.15V109.848Z" fill="#E2EAFF"/>
<path d="M158.546 109.848H164.178V103.769H158.546V109.848Z" fill="#E2EAFF"/>
<path d="M148.945 109.848H154.576V103.769H148.945V109.848Z" fill="#E2EAFF"/>
<path d="M139.341 109.848H144.973V103.769H139.341V109.848Z" fill="#E2EAFF"/>
<path d="M186.159 144.153C185.935 144.153 185.753 143.971 185.753 143.747V57.8984H137.305V126.981C137.305 127.205 137.123 127.387 136.899 127.387C136.674 127.387 136.492 127.206 136.492 126.981V57.4922C136.492 57.2679 136.674 57.0859 136.899 57.0859H186.159C186.383 57.0859 186.565 57.2678 186.565 57.4922V143.747C186.565 143.971 186.383 144.153 186.159 144.153Z" fill="#282828"/>
<path d="M482.866 331.359H279.947C279.723 331.359 279.541 331.178 279.541 330.953C279.541 330.729 279.723 330.547 279.947 330.547H482.459V231.847C474.118 231.837 458.945 231.825 458.349 231.845C458.197 231.861 458.041 231.787 457.959 231.645C457.846 231.451 457.912 231.202 458.106 231.09C458.24 231.012 458.252 231.005 482.866 231.035C483.09 231.035 483.272 231.217 483.272 231.441V330.953C483.272 331.178 483.09 331.359 482.866 331.359Z" fill="#282828"/>
<path d="M260.167 7.53711C207.073 7.53711 164.031 50.5329 164.031 103.571C164.031 196.064 260.167 293.46 260.167 293.46C260.167 293.46 356.304 195.178 356.304 103.571C356.304 50.5329 313.262 7.53711 260.167 7.53711Z" fill="white"/>
<path d="M260.167 293.866C260.059 293.866 259.954 293.823 259.878 293.745C259.637 293.502 235.542 268.958 211.762 233.426C197.792 212.553 186.66 192.026 178.676 172.415C168.689 147.883 163.625 124.721 163.625 103.571C163.625 77.811 173.667 53.5927 191.902 35.3774C210.136 17.1624 234.38 7.13086 260.167 7.13086C285.955 7.13086 310.199 17.1624 328.433 35.3774C346.667 53.5927 356.71 77.811 356.71 103.571C356.71 124.519 351.646 147.556 341.659 172.041C333.674 191.616 322.543 212.157 308.574 233.094C284.794 268.734 260.699 293.498 260.458 293.744C260.382 293.822 260.277 293.866 260.168 293.866C260.168 293.866 260.167 293.866 260.167 293.866ZM260.167 7.94333C207.382 7.94333 164.438 50.842 164.438 103.572C164.438 151.244 190.535 200.247 212.429 232.962C234.754 266.322 257.355 289.977 260.166 292.877C262.97 289.959 285.575 266.1 307.906 232.631C329.799 199.815 355.897 150.786 355.897 103.571C355.897 50.842 312.953 7.94333 260.167 7.94333Z" fill="#282828"/>
<path d="M260.167 171.694C296.625 171.694 326.18 142.17 326.18 105.751C326.18 69.3314 296.625 39.8076 260.167 39.8076C223.709 39.8076 194.154 69.3314 194.154 105.751C194.154 142.17 223.709 171.694 260.167 171.694Z" fill="#30A2FF"/>
<path d="M299.9 95.2518C298.794 95.2518 297.687 94.8302 296.844 93.987C287.064 84.2178 274.039 78.8376 260.167 78.8376C246.295 78.8376 233.27 84.2178 223.49 93.9872C221.803 95.673 219.064 95.6735 217.378 93.987C215.689 92.301 215.689 89.5669 217.378 87.8808C228.789 76.4813 243.987 70.2021 260.167 70.2021C276.348 70.2021 291.543 76.4806 302.955 87.8809C304.644 89.5671 304.644 92.301 302.955 93.9872C302.112 94.8301 301.005 95.2518 299.9 95.2518Z" fill="white"/>
<path d="M287.674 107.464C286.568 107.464 285.462 107.043 284.618 106.199C278.098 99.6871 269.416 96.1005 260.167 96.1005C250.919 96.1005 242.236 99.6871 235.716 106.199C234.03 107.885 231.291 107.886 229.604 106.2C227.916 104.513 227.916 101.779 229.604 100.093C237.756 91.9498 248.61 87.4648 260.167 87.4648C271.725 87.4648 282.579 91.9496 290.73 100.093C292.419 101.779 292.419 104.513 290.73 106.2C289.887 107.042 288.78 107.464 287.674 107.464Z" fill="white"/>
<path d="M275.449 119.677C274.343 119.677 273.236 119.255 272.393 118.412C265.651 111.678 254.683 111.678 247.941 118.412C246.254 120.098 243.515 120.098 241.829 118.412C240.14 116.726 240.14 113.992 241.829 112.306C251.941 102.205 268.393 102.205 278.505 112.306C280.193 113.992 280.193 116.726 278.505 118.412C277.661 119.255 276.555 119.677 275.449 119.677Z" fill="white"/>
<path d="M260.166 139.26C257.857 139.26 255.686 138.361 254.053 136.73C252.421 135.1 251.521 132.931 251.521 130.624C251.521 128.317 252.421 126.148 254.054 124.517C255.686 122.887 257.857 121.988 260.166 121.988C262.475 121.988 264.647 122.887 266.279 124.518C267.911 126.148 268.811 128.317 268.811 130.624C268.811 132.931 267.912 135.099 266.278 136.731C264.647 138.361 262.475 139.26 260.166 139.26Z" fill="white"/>
<path d="M174.549 196.805L126.864 203.249L107.212 212.233C101.212 233.095 154.944 231.85 154.944 231.85L126.917 266.127C124.228 269.415 123.843 273.97 125.979 277.623C131.866 287.692 144.341 303.807 150.737 311.884C152.321 313.884 155.576 313.194 156.168 310.734L159.531 296.757L198.737 232.235C209.079 215.216 194.655 194.088 174.549 196.805Z" fill="white"/>
<path d="M153.155 313.459C152.094 313.459 151.09 312.986 150.417 312.136C143.664 303.608 131.463 287.81 125.627 277.828C123.397 274.015 123.779 269.321 126.601 265.871L130.281 261.37C130.423 261.196 130.68 261.171 130.853 261.313C131.027 261.454 131.053 261.71 130.911 261.884L127.23 266.385C124.626 269.57 124.272 273.901 126.329 277.418C132.14 287.357 144.314 303.12 151.054 311.632C151.696 312.443 152.734 312.806 153.762 312.58C154.782 312.355 155.534 311.63 155.772 310.64L159.134 296.662C159.187 296.444 159.407 296.31 159.624 296.363C159.843 296.415 159.977 296.634 159.924 296.852L156.562 310.83C156.254 312.11 155.248 313.084 153.936 313.373C153.675 313.431 153.413 313.459 153.155 313.459Z" fill="#282828"/>
<path d="M102.405 218.435L142.979 217.439C162.525 216.959 180.431 228.014 188.348 245.434C201.336 274.011 221.602 315.952 235.945 333.127C237.632 335.147 235.924 338.134 233.274 337.795L192.731 332.614C186.183 331.777 180.42 327.987 177.174 322.382L139.893 258.004C139.893 258.004 65.2379 261.514 71.8458 247.111C78.4539 232.708 102.405 218.435 102.405 218.435Z" fill="white"/>
<path d="M233.67 338.227C233.522 338.227 233.372 338.218 233.222 338.198L192.679 333.017C186.041 332.169 180.113 328.269 176.822 322.586L175.602 320.478C175.489 320.284 175.555 320.035 175.75 319.923C175.944 319.81 176.193 319.877 176.305 320.071L177.525 322.179C180.69 327.644 186.394 331.395 192.782 332.211L233.325 337.393C234.615 337.558 235.505 336.835 235.906 336.104C236.393 335.214 236.289 334.173 235.633 333.387C232.906 330.122 229.822 325.784 226.466 320.493C226.346 320.303 226.402 320.052 226.592 319.932C226.782 319.812 227.033 319.869 227.153 320.058C230.49 325.32 233.553 329.629 236.257 332.867C237.132 333.915 237.27 335.305 236.618 336.494C236.024 337.578 234.899 338.227 233.67 338.227Z" fill="#282828"/>
<path d="M174.549 196.805L126.864 203.249L97.8692 216.03C91.8697 236.893 154.944 231.85 154.944 231.85L130.597 261.626C131.757 263.343 159.424 295.141 160.051 295.9L198.736 232.236C209.078 215.215 194.655 194.088 174.549 196.805Z" fill="#30A2FF"/>
<path d="M182.489 319.374C185.703 319.65 188.918 319.909 192.139 320.083C195.365 320.256 198.582 320.286 201.811 320.272C208.283 320.243 214.757 320.185 221.223 319.896C222.947 319.819 224.67 319.725 226.392 319.612C213.521 299.157 198.646 268.095 188.347 245.435C180.43 228.015 162.524 216.959 142.979 217.439L102.405 218.435C102.405 218.435 78.4537 232.709 71.8458 247.112C65.2379 261.515 139.893 258.005 139.893 258.005L175.058 318.729C177.538 318.932 180.016 319.163 182.489 319.374Z" fill="#30A2FF"/>
<path d="M188.347 245.841C188.193 245.841 188.045 245.752 187.977 245.602C180.096 228.263 162.441 217.367 142.988 217.845L107.533 218.715C107.31 218.719 107.123 218.543 107.117 218.319C107.112 218.095 107.289 217.909 107.514 217.903L142.968 217.033C162.734 216.549 180.701 227.63 188.717 245.266C188.809 245.471 188.719 245.711 188.515 245.804C188.46 245.829 188.403 245.841 188.347 245.841Z" fill="#282828"/>
<path d="M160.425 293.867C160.285 293.867 160.148 293.794 160.073 293.664L139.664 258.421C138.952 258.452 136.742 258.543 133.567 258.627C133.328 258.631 133.156 258.455 133.151 258.231C133.145 258.007 133.322 257.82 133.546 257.814C137.418 257.713 139.849 257.6 139.873 257.599C140.024 257.593 140.168 257.67 140.244 257.801L160.776 293.257C160.889 293.451 160.823 293.7 160.628 293.812C160.564 293.849 160.494 293.867 160.425 293.867Z" fill="#282828"/>
<path d="M154.943 258.467C154.943 258.467 154.942 258.467 154.941 258.467L141.93 258.419C141.706 258.418 141.525 258.235 141.525 258.011C141.526 257.787 141.708 257.606 141.932 257.606C141.932 257.606 141.933 257.606 141.933 257.606L154.945 257.654C155.169 257.655 155.35 257.838 155.349 258.062C155.349 258.286 155.167 258.467 154.943 258.467Z" fill="#282828"/>
<path d="M126.864 203.249L105.985 218.094C105.985 218.094 85.0602 236.457 83.4886 255.787C83.4886 255.787 42.8515 251.58 54.1332 207.833L105.929 204.267L126.864 203.249Z" fill="#30A2FF"/>
<path d="M51.0801 168.356C60.1619 153.048 69.7759 149.48 74.2497 148.227C78.7237 146.973 85.4661 147.386 93.2822 147.524C101.098 147.661 110.284 148.613 113.618 151.203C117.851 154.492 122.183 158.848 124.588 170.05L124.077 172.269L73.7844 179.635L69.6298 178.101L51.0801 168.356Z" fill="white"/>
<path d="M70.1241 178.814C70.0602 178.814 69.9953 178.799 69.9348 178.767L50.8905 168.715C50.792 168.663 50.7193 168.573 50.6891 168.466C50.659 168.359 50.6737 168.244 50.7306 168.148C57.2246 157.203 65.1007 150.368 74.14 147.835C77.968 146.763 83.398 146.891 89.6856 147.04C90.8572 147.067 92.0599 147.096 93.2892 147.117C100.401 147.242 109.762 147.994 113.974 150.867C118.712 154.099 122.348 158.491 124.694 169.422C124.741 169.641 124.602 169.857 124.382 169.904C124.162 169.951 123.947 169.811 123.9 169.592C121.61 158.925 118.093 154.66 113.516 151.538C109.256 148.633 99.0061 148.03 93.2748 147.93C92.044 147.908 90.8393 147.88 89.6662 147.852C83.4443 147.705 78.0702 147.578 74.3592 148.618C65.6285 151.064 57.9891 157.651 51.6484 168.197L70.3139 178.049C70.5124 178.154 70.5882 178.399 70.4834 178.598C70.4109 178.735 70.27 178.814 70.1241 178.814Z" fill="#282828"/>
<path d="M57.4297 218.722L74.25 149.783C74.25 149.783 102.293 149.212 112.146 151.441C112.146 151.441 114.023 192.417 114.529 202.245L57.4297 218.722Z" fill="white"/>
<path d="M130.328 200.519C130.328 200.519 128.067 187.259 124.487 174.691C124.334 174.152 124.02 173.08 124.02 173.08L112.93 176.108L112.977 177.52L113.745 200.519H130.328Z" fill="white"/>
<path d="M130.328 200.925H113.745C113.526 200.925 113.346 200.752 113.339 200.533L112.524 176.122C112.518 175.934 112.641 175.766 112.823 175.717L123.913 172.688C124.126 172.63 124.347 172.753 124.41 172.966C124.41 172.966 124.724 174.04 124.878 174.58C128.423 187.025 130.706 200.318 130.729 200.451C130.749 200.569 130.716 200.69 130.639 200.781C130.561 200.873 130.448 200.925 130.328 200.925ZM114.138 200.113H129.844C129.404 197.634 127.252 185.879 124.096 174.803C124.002 174.471 123.847 173.938 123.742 173.577L113.346 176.416L114.138 200.113Z" fill="#282828"/>
<path d="M109.525 197.857C109.525 197.857 101.157 183.514 89.7259 187.757C78.2944 192.001 61.9989 202.196 61.9989 202.196C61.9989 202.196 66.1658 190.872 69.5709 178.689C69.6556 178.386 69.8235 177.778 69.8235 177.778L52.0604 169.977C52.0604 169.977 51.8346 170.336 51.7223 170.519C49.0169 174.909 46.5017 180.249 44.498 186.728C35.3829 216.203 48.9798 226.216 58.6253 226.389C68.2707 226.563 92.4551 201.096 96.2684 201.107L109.525 197.857Z" fill="white"/>
<path d="M58.724 226.796C58.689 226.796 58.6538 226.796 58.6189 226.796C53.5049 226.704 48.5631 224.04 45.399 219.67C41.7187 214.588 38.5078 204.726 44.1106 186.608C45.9689 180.599 48.4138 175.114 51.3773 170.306C51.4902 170.122 51.7171 169.761 51.7171 169.761C51.8241 169.59 52.04 169.524 52.2248 169.605L69.9879 177.406C70.1725 177.488 70.2697 177.692 70.2161 177.887L69.963 178.798C67.2 188.684 63.8995 198.104 62.7769 201.24C66.4942 198.972 79.8629 190.986 89.5854 187.377C101.202 183.064 109.792 197.506 109.877 197.652C109.942 197.763 109.95 197.897 109.9 198.015C109.85 198.133 109.747 198.221 109.623 198.251L96.3659 201.502C96.3338 201.509 96.2923 201.515 96.268 201.513C96.2674 201.513 96.2669 201.513 96.2661 201.513C94.9486 201.513 90.1678 205.528 85.1062 209.779C76.0728 217.365 64.8429 226.796 58.724 226.796ZM52.2195 170.49C52.1652 170.576 52.1099 170.666 52.0693 170.732C49.1416 175.482 46.7253 180.905 44.8871 186.848C39.3831 204.645 42.4855 214.261 46.0573 219.194C49.0722 223.358 53.7737 225.896 58.6335 225.983C64.416 226.082 76.0755 216.302 84.5834 209.157C90.942 203.817 94.6453 200.769 96.2156 200.702L108.883 197.596C107.322 195.197 99.6868 184.492 89.8684 188.138C78.6073 192.318 62.3779 202.438 62.2153 202.54C62.0681 202.632 61.8783 202.62 61.7436 202.511C61.6088 202.401 61.5584 202.219 61.6184 202.056C61.66 201.942 65.819 190.606 69.1804 178.58L69.3387 178.009L52.2195 170.49Z" fill="#282828"/>
<path d="M99.2499 199.453C99.0817 199.453 98.9243 199.348 98.866 199.18C98.1386 197.087 96.4936 195.304 94.4654 194.413C94.2601 194.322 94.1668 194.083 94.2572 193.877C94.3477 193.672 94.5874 193.579 94.7929 193.669C97.024 194.65 98.8338 196.611 99.634 198.914C99.7076 199.126 99.5953 199.357 99.3835 199.431C99.339 199.446 99.2942 199.453 99.2499 199.453Z" fill="#282828"/>
<path d="M103.416 198.618C103.241 198.618 103.079 198.504 103.027 198.328C102.261 195.764 100.359 193.553 97.9385 192.414C97.7355 192.319 97.6483 192.077 97.7438 191.874C97.8394 191.671 98.0822 191.584 98.2846 191.679C100.911 192.915 102.975 195.313 103.805 198.095C103.87 198.31 103.747 198.537 103.532 198.601C103.494 198.612 103.454 198.618 103.416 198.618Z" fill="#282828"/>
<path d="M94.9902 203.795V201.504C94.9902 199.49 96.6227 197.856 98.6365 197.856H113.745L94.9902 203.795Z" fill="#282828"/>
<path d="M68.528 182.677L49.407 173.175C48.9146 172.928 48.7349 172.315 49.0159 171.841L51.0806 167.416C51.3337 166.989 51.8729 166.829 52.3179 167.048L70.9015 176.097C71.366 176.326 71.5612 176.885 71.3402 177.354L69.8129 182.233C69.5852 182.716 69.0049 182.916 68.528 182.677Z" fill="white"/>
<path d="M68.952 183.185C68.7441 183.185 68.5377 183.136 68.3458 183.04L49.2255 173.539C48.8892 173.37 48.6367 173.068 48.5311 172.708C48.4256 172.348 48.4745 171.957 48.6658 171.634L50.7121 167.245C51.0899 166.603 51.8667 166.373 52.4975 166.685L71.079 175.732C71.7304 176.054 72.0127 176.841 71.7198 177.5L70.2002 182.355C70.1946 182.372 70.1878 182.39 70.1799 182.406C70.0225 182.74 69.7441 182.99 69.3958 183.11C69.2507 183.16 69.101 183.185 68.952 183.185ZM51.8988 167.358C51.7118 167.358 51.5302 167.454 51.4297 167.623L49.3836 172.013C49.2869 172.18 49.268 172.333 49.3108 172.479C49.3537 172.626 49.4524 172.744 49.5888 172.812L68.7083 182.313C68.7087 182.314 68.7092 182.314 68.7098 182.314C68.842 182.38 68.9915 182.39 69.1306 182.342C69.2625 182.297 69.3695 182.204 69.4338 182.081L70.9516 177.233C70.9571 177.216 70.9641 177.198 70.9719 177.181C71.0977 176.915 70.9851 176.592 70.7212 176.461L52.1396 167.414C52.0623 167.376 51.98 167.358 51.8988 167.358Z" fill="#282828"/>
<path d="M126.183 176.367L113.302 179.758C112.977 179.838 112.737 179.694 112.622 179.156L112.346 173.628C112.242 173.143 112.387 172.711 112.678 172.636L124.356 169.617C124.66 169.538 125.014 169.876 125.151 170.376L126.498 175.287C126.639 175.801 126.496 176.289 126.183 176.367Z" fill="white"/>
<path d="M113.145 180.183C112.95 180.183 112.805 180.123 112.708 180.062C112.468 179.912 112.31 179.643 112.224 179.24C112.219 179.219 112.216 179.198 112.215 179.176L111.941 173.679C111.803 172.975 112.067 172.374 112.576 172.242L124.254 169.223C124.788 169.086 125.341 169.534 125.542 170.268L126.889 175.179C127.008 175.612 126.971 176.055 126.789 176.364C126.67 176.567 126.49 176.707 126.283 176.76L113.404 180.15C113.31 180.173 113.223 180.183 113.145 180.183ZM113.025 179.101C113.077 179.325 113.138 179.373 113.139 179.373C113.139 179.372 113.162 179.373 113.203 179.363L126.074 175.975C126.12 175.929 126.19 175.705 126.105 175.393L124.758 170.482C124.673 170.172 124.498 170.019 124.443 170.011L112.78 173.029C112.753 173.055 112.68 173.25 112.743 173.543C112.747 173.564 112.75 173.586 112.751 173.607L113.025 179.101Z" fill="#282828"/>
<path d="M171.007 203.795H94.9902V201.504C94.9902 199.49 96.6227 197.856 98.6365 197.856H176.351L175.727 200.176C175.153 202.311 173.217 203.795 171.007 203.795Z" fill="#282828"/>
<path d="M173.174 201.107H127.313C125.354 201.107 123.916 199.267 124.387 197.365L133.055 162.381C133.388 161.036 134.595 160.091 135.98 160.091H181.842C183.801 160.091 185.239 161.93 184.768 163.832L176.1 198.817C175.767 200.162 174.56 201.107 173.174 201.107Z" fill="#282828"/>
<path d="M157.601 175.113C158.438 175.112 159.115 174.432 159.113 173.595C159.112 172.758 158.433 172.081 157.596 172.083C156.76 172.084 156.083 172.763 156.084 173.6C156.086 174.437 156.765 175.114 157.601 175.113Z" fill="#30A2FF"/>
<path d="M86.6247 127.093C86.6247 127.093 83.0703 123.128 85.3254 120.51C85.3254 120.51 82.7508 111.201 91.6826 108.195C100.614 105.189 105.586 111.528 106.015 113.054C106.015 113.054 107.978 112.381 108.811 115.607L88.7392 129.095L86.6247 127.093Z" fill="#30A2FF"/>
<path d="M85.9608 120.697C85.7792 120.697 85.6136 120.575 85.5671 120.391C85.5206 120.206 85.6084 120.019 85.7689 119.933C85.7988 119.913 85.854 119.873 85.9333 119.815C88.6289 117.868 95.8569 113.255 104.735 112.483C104.959 112.464 105.156 112.629 105.175 112.852C105.195 113.076 105.029 113.273 104.806 113.292C96.129 114.047 89.0501 118.566 86.4092 120.474C86.172 120.645 86.1471 120.663 86.0602 120.685C86.0272 120.693 85.9936 120.697 85.9608 120.697Z" fill="white"/>
<path d="M92.2342 130.893L84.8105 148.024C84.8105 148.024 88.021 154.015 97.3277 155.018C106.13 155.967 99.2509 148.762 99.2509 148.762L103.49 136.627L92.2342 130.893Z" fill="white"/>
<path d="M98.7912 155.511C98.3356 155.511 97.8336 155.481 97.2842 155.422C87.8724 154.408 84.5877 148.468 84.4525 148.215C84.3938 148.106 84.3885 147.976 84.4377 147.862L91.8612 130.731C91.9057 130.628 91.9909 130.548 92.0966 130.51C92.2018 130.472 92.3186 130.48 92.4185 130.531L103.674 136.265C103.855 136.358 103.94 136.569 103.873 136.761L99.7149 148.665C100.456 149.479 102.916 152.389 102.02 154.205C101.589 155.079 100.527 155.511 98.7912 155.511ZM85.2661 147.994C85.8632 148.943 89.2614 153.74 97.3711 154.614C99.5703 154.851 100.927 154.585 101.291 153.846C101.917 152.576 99.7612 149.885 98.9567 149.042C98.8514 148.932 98.8167 148.772 98.8669 148.628L102.989 136.828L92.435 131.45L85.2661 147.994Z" fill="#282828"/>
<path d="M96.759 129.807C98.2286 128.925 107.198 122.5 109.667 122.106C112.136 121.712 114.535 120.723 116.436 119.098C117.194 118.451 117.884 117.684 118.244 116.755C118.604 115.825 118.588 114.708 118.018 113.89C117.448 113.072 116.264 112.675 115.389 113.152C115.8 112.523 115.713 111.649 115.287 111.031C114.861 110.413 114.15 110.033 113.415 109.879C112.071 109.598 110.597 110.051 109.643 111.038C108.685 112.028 108.269 113.454 107.284 114.418C106.314 115.368 104.928 115.74 103.594 115.985C101.669 116.339 99.7126 116.504 97.7901 116.871C95.8676 117.238 93.9505 117.823 92.3359 118.93C91.0997 119.778 89.1276 121.682 89.1869 123.357C89.213 124.1 90.2852 124.845 90.7476 125.438C91.3742 126.242 93.6081 130.031 96.759 129.807Z" fill="#282828"/>
<path d="M92.4966 126.903C92.4966 126.903 91.6596 122.012 87.9064 124.045C83.389 126.494 86.2357 135.53 91.8561 131.683C91.8561 131.683 95.8218 142.056 103.779 141.811C111.735 141.566 112.381 131.503 110.433 121.751C110.433 121.751 106.891 123.475 100.478 122.396C96.1779 121.673 96.0951 125.725 96.1919 128.062L92.4966 126.903Z" fill="white"/>
<path d="M103.496 142.221C96.414 142.221 92.5441 134.32 91.6654 132.286C89.8588 133.357 88.4937 133.086 87.6451 132.643C86.215 131.897 85.2811 130.136 85.2658 128.158C85.2505 126.198 86.1653 124.527 87.7128 123.688C88.8457 123.074 89.8623 122.979 90.7353 123.402C92.1403 124.085 92.6878 125.915 92.8452 126.586L95.769 127.503C95.7401 125.765 95.9378 123.801 97.1831 122.704C97.9881 121.994 99.1192 121.756 100.545 121.995C106.732 123.036 110.221 121.402 110.256 121.385C110.369 121.331 110.502 121.331 110.614 121.387C110.726 121.443 110.807 121.548 110.831 121.671C111.786 126.45 112.859 135.13 109.326 139.575C107.99 141.256 106.127 142.145 103.791 142.217C103.692 142.22 103.594 142.221 103.496 142.221ZM91.856 131.277C91.8964 131.277 91.9374 131.283 91.977 131.295C92.0956 131.332 92.1912 131.421 92.2355 131.537C92.2742 131.639 96.2097 141.637 103.766 141.405C105.852 141.341 107.509 140.555 108.69 139.069C111.906 135.023 111.028 127.034 110.129 122.313C108.941 122.747 105.607 123.67 100.41 122.796C99.2376 122.599 98.3327 122.773 97.7204 123.312C96.5929 124.306 96.5281 126.363 96.5979 128.044C96.6034 128.176 96.544 128.303 96.4392 128.383C96.3346 128.464 96.1974 128.488 96.0705 128.448L92.3749 127.29C92.2298 127.244 92.1222 127.121 92.0962 126.971C92.0925 126.949 91.7007 124.772 90.3781 124.132C89.7546 123.83 88.9881 123.921 88.1 124.402C86.8214 125.095 86.0655 126.496 86.0785 128.151C86.0912 129.807 86.8721 131.323 88.0214 131.923C89.0473 132.459 90.294 132.259 91.6265 131.347C91.6948 131.301 91.7748 131.277 91.856 131.277Z" fill="#282828"/>
<path d="M92.2327 130.114C92.107 130.114 91.9833 130.056 91.9037 129.947C91.368 129.211 90.4342 128.749 89.5243 128.774C89.2952 128.779 89.1135 128.603 89.1076 128.378C89.1017 128.154 89.2788 127.968 89.5033 127.962C90.6924 127.935 91.8619 128.509 92.5608 129.469C92.6929 129.651 92.6527 129.904 92.4714 130.036C92.3991 130.089 92.3153 130.114 92.2327 130.114Z" fill="#282828"/>
<path d="M396.051 191.258C396.051 191.258 372.622 153.406 344.892 155.425C317.162 157.443 338.284 230.515 338.284 230.515L406.197 215.919L396.051 191.258Z" fill="white"/>
<path d="M338.284 230.921C338.106 230.921 337.945 230.805 337.894 230.628C337.856 230.497 334.085 217.367 331.844 202.284C328.825 181.967 329.869 167.97 334.947 160.683C337.355 157.229 340.691 155.323 344.863 155.019C359.339 153.963 372.59 163.832 381.156 172.295C390.407 181.434 396.338 190.949 396.397 191.044C396.408 191.063 396.419 191.083 396.427 191.103L406.573 215.764C406.618 215.876 406.612 216.002 406.556 216.108C406.5 216.215 406.4 216.291 406.282 216.316L338.37 230.912C338.341 230.918 338.312 230.921 338.284 230.921ZM347.009 155.754C346.316 155.754 345.62 155.779 344.921 155.83C341.006 156.115 337.874 157.904 335.614 161.147C324.29 177.396 337.266 225.359 338.571 230.038L405.636 215.624L395.688 191.444C395.329 190.871 389.512 181.69 380.573 172.862C372.545 164.934 360.364 155.754 347.009 155.754Z" fill="#282828"/>
<path d="M367.236 219.443C367.207 219.443 367.178 219.44 367.15 219.434C366.93 219.387 366.791 219.171 366.838 218.951C370.606 201.519 360.624 177.786 360.523 177.549C360.435 177.342 360.531 177.104 360.737 177.016C360.944 176.928 361.182 177.024 361.271 177.23C361.373 177.47 371.455 201.437 367.633 219.123C367.591 219.313 367.423 219.443 367.236 219.443Z" fill="#282828"/>
<path d="M446.475 201.771C446.475 201.771 447.012 204.161 447.784 208.023C447.96 208.902 448.096 209.788 448.197 210.677C450.491 230.895 434.325 248.498 413.957 248.529C395.584 248.556 371.267 248.57 359.468 248.481L337.025 307.71C333.709 315.524 326.677 321.144 318.319 322.662L283.281 329.026C277.827 330.017 273.548 324.416 275.945 319.424C284.429 301.748 300.583 268.41 312.109 246.553C319.452 232.627 332.033 222.179 347.096 217.558C368.651 210.946 386.946 205.556 397.407 204.194L446.475 201.771Z" fill="white"/>
<path d="M282.008 329.548C279.791 329.548 277.738 328.539 276.344 326.711C274.673 324.521 274.387 321.731 275.579 319.248C284.151 301.389 300.249 268.174 311.749 246.363C319.1 232.424 331.94 221.783 346.977 217.17C367.329 210.926 386.497 205.204 397.355 203.791L446.455 201.365C446.654 201.357 446.829 201.488 446.872 201.681C446.877 201.705 447.419 204.121 448.183 207.943C448.357 208.816 448.498 209.72 448.601 210.631C449.691 220.236 446.591 229.921 440.096 237.202C433.458 244.643 423.931 248.919 413.958 248.934C395.76 248.962 371.654 248.976 359.748 248.889L337.405 307.854C334.019 315.834 326.913 321.514 318.392 323.062L283.354 329.426C282.901 329.508 282.451 329.548 282.008 329.548ZM446.153 202.193L397.427 204.599C386.665 206.002 367.533 211.713 347.215 217.946C332.383 222.497 319.718 232.992 312.468 246.742C300.974 268.541 284.881 301.746 276.311 319.599C275.254 321.802 275.508 324.276 276.99 326.219C278.474 328.164 280.798 329.064 283.208 328.627L318.246 322.263C326.497 320.764 333.378 315.265 336.651 307.551L359.088 248.337C359.149 248.178 359.291 248.073 359.472 248.075C371.271 248.164 395.614 248.15 413.956 248.122C423.699 248.108 433.005 243.93 439.489 236.662C445.83 229.553 448.857 220.098 447.794 210.723C447.693 209.835 447.556 208.953 447.386 208.103C446.787 205.107 446.326 202.979 446.153 202.193Z" fill="#282828"/>
<path d="M329.898 309.337C315.315 309.337 300.935 305.695 288.089 298.719C287.892 298.612 287.819 298.366 287.926 298.168C288.034 297.972 288.28 297.898 288.478 298.005C302.287 305.505 317.884 309.114 333.591 308.446C333.806 308.435 334.005 308.61 334.014 308.835C334.024 309.059 333.85 309.248 333.626 309.258C332.382 309.311 331.139 309.337 329.898 309.337Z" fill="#282828"/>
<path d="M335.896 300.96C320.89 300.96 305.857 297.699 292.216 291.46C292.012 291.367 291.922 291.126 292.016 290.922C292.109 290.718 292.35 290.629 292.554 290.721C307.099 297.373 323.237 300.615 339.226 300.094C339.455 300.087 339.639 300.262 339.646 300.487C339.653 300.711 339.477 300.898 339.253 300.906C338.135 300.942 337.016 300.96 335.896 300.96Z" fill="#282828"/>
<path d="M357.69 248.777C357.677 248.777 357.663 248.777 357.649 248.775L350.054 248.019C349.83 247.996 349.667 247.797 349.69 247.574C349.711 247.351 349.907 247.187 350.134 247.21L357.73 247.967C357.953 247.989 358.116 248.188 358.094 248.411C358.073 248.621 357.896 248.777 357.69 248.777Z" fill="#282828"/>
<path d="M395.091 117.006C398.539 113.342 404.163 112.374 409.082 113.44C414.002 114.507 418.355 117.31 422.402 120.301C426.449 123.292 430.355 126.55 434.881 128.753C438.916 130.718 443.318 131.782 447.56 133.248C451.801 134.715 456.027 136.684 459.021 140.024C463.261 144.754 464.383 151.899 462.259 157.883C460.134 163.867 455.009 168.588 449.021 170.717C443.034 172.845 436.295 172.487 430.353 170.232C425.576 168.419 421.197 165.341 418.34 161.109C415.922 157.529 414.685 153.309 413.003 149.331C411.321 145.353 408.985 141.384 405.208 139.284C403.479 138.322 401.491 137.78 399.992 136.489C399.571 136.127 399.209 135.668 398.931 135.167C395.773 133.81 393.269 130.969 392.391 127.642C391.416 123.95 392.472 119.788 395.091 117.006Z" fill="#282828"/>
<path d="M416.586 101.897C417.215 101.026 418.03 100.217 419.071 99.9457C420.946 99.4557 422.853 100.913 423.696 102.657C424.527 104.377 424.634 106.434 423.984 108.231C423.335 110.028 421.938 111.542 420.198 112.336C419.342 112.726 418.383 112.947 417.454 112.798C416.525 112.648 415.635 112.085 415.242 111.23C415.19 111.118 415.151 111.003 415.117 110.887C414.793 110.317 414.621 109.604 414.575 108.951C414.399 106.462 415.124 103.92 416.586 101.897Z" fill="#282828"/>
<path d="M389.163 163.437C394.081 155.327 402.547 150.012 411.968 148.857C411.968 148.857 424.838 146.514 431.633 147.765C449.095 151.558 451.773 169.525 448.455 180.063C447.832 182.041 447.074 184.404 446.191 186.953L448.878 200.275C449.415 202.939 447.37 205.424 444.649 205.413L438.046 205.384C435.226 210.035 431.998 213.605 428.432 214.549C420.557 216.635 408.667 207.216 405.132 204.194L398.644 204.177C396.35 204.171 394.585 202.149 394.891 199.878L396.049 191.259L381.381 185.431C381.381 185.431 382.92 173.732 389.163 163.437Z" fill="white"/>
<path d="M426.018 215.252C418.208 215.253 408.258 207.386 404.982 204.599L398.643 204.583C397.432 204.579 396.282 204.054 395.486 203.143C394.691 202.231 394.327 201.022 394.488 199.824L395.605 191.518L381.231 185.808C381.058 185.739 380.954 185.562 380.978 185.377C380.994 185.26 382.6 173.475 388.816 163.226C393.714 155.149 402.351 149.627 411.919 148.453C412.424 148.361 424.917 146.115 431.707 147.365C438.297 148.796 443.44 152.421 446.594 157.851C451.036 165.5 450.582 174.662 448.843 180.184C448.277 181.983 447.513 184.374 446.612 186.98L449.277 200.194C449.557 201.583 449.201 203.008 448.301 204.103C447.404 205.194 446.081 205.818 444.669 205.818C444.662 205.818 444.655 205.818 444.648 205.818L438.274 205.79C435.084 210.996 431.808 214.075 428.536 214.941C427.732 215.155 426.888 215.252 426.018 215.252ZM381.83 185.172L396.2 190.881C396.373 190.95 396.477 191.128 396.452 191.312L395.293 199.932C395.164 200.898 395.457 201.874 396.098 202.608C396.74 203.344 397.669 203.768 398.645 203.77L405.133 203.788C405.23 203.788 405.323 203.822 405.396 203.885C408.821 206.812 420.594 216.205 428.328 214.156C431.43 213.335 434.583 210.312 437.699 205.173C437.772 205.051 437.904 204.977 438.046 204.977C438.047 204.977 438.047 204.977 438.048 204.977L444.651 205.006C444.657 205.006 444.663 205.006 444.669 205.006C445.837 205.006 446.931 204.49 447.673 203.588C448.417 202.682 448.712 201.504 448.48 200.355L445.793 187.032C445.779 186.961 445.783 186.888 445.807 186.819C446.721 184.182 447.495 181.758 448.068 179.94C449.757 174.576 450.2 165.679 445.891 158.259C442.812 152.957 437.986 149.56 431.547 148.162C424.916 146.94 412.169 149.233 412.041 149.256C402.694 150.403 394.281 155.781 389.511 163.647C383.948 172.821 382.128 183.251 381.83 185.172Z" fill="#282828"/>
<path d="M404.625 186.283C404.588 186.283 404.552 186.278 404.515 186.268C400.963 185.279 398.059 182.339 397.118 178.777C396.176 175.216 397.248 171.227 399.849 168.615C400.008 168.456 400.265 168.455 400.424 168.613C400.583 168.772 400.583 169.029 400.425 169.188C398.024 171.599 397.034 175.282 397.904 178.57C398.773 181.858 401.454 184.573 404.733 185.485C404.95 185.546 405.076 185.77 405.016 185.986C404.966 186.165 404.802 186.283 404.625 186.283Z" fill="#282828"/>
<path d="M421.422 191.967C421.358 191.967 421.294 191.952 421.234 191.92C421.035 191.816 420.958 191.571 421.062 191.372L428.48 177.176C428.864 176.442 429.299 175.61 429.298 174.766C429.297 174.053 428.854 173.229 428.14 173.14C427.917 173.113 427.759 172.91 427.787 172.687C427.814 172.464 428.018 172.307 428.24 172.334C429.409 172.479 430.109 173.684 430.111 174.765C430.111 175.809 429.606 176.775 429.2 177.552L421.782 191.748C421.71 191.887 421.568 191.967 421.422 191.967Z" fill="#282828"/>
<path d="M430.336 197.694C430.276 197.694 430.216 197.68 430.158 197.653L413.194 189.404C412.992 189.306 412.908 189.063 413.006 188.861C413.104 188.66 413.347 188.576 413.549 188.674L430.514 196.922C430.716 197.02 430.8 197.263 430.701 197.465C430.631 197.61 430.487 197.694 430.336 197.694Z" fill="#282828"/>
<path d="M437.51 206.487C437.441 206.487 437.372 206.47 437.308 206.433C437.113 206.322 437.046 206.073 437.157 205.879C440.878 199.395 444.119 192.193 446.048 186.122C446.116 185.908 446.345 185.79 446.559 185.858C446.772 185.926 446.891 186.154 446.823 186.368C444.877 192.492 441.611 199.751 437.863 206.283C437.787 206.414 437.65 206.487 437.51 206.487Z" fill="#282828"/>
<path d="M380.393 191.392H393.034C394.291 191.392 395.14 190.11 394.649 188.955L385.736 167.973C385.294 166.932 384.271 166.256 383.139 166.256H369.013C368.269 166.256 367.766 167.015 368.056 167.7L377.233 189.302C377.771 190.569 379.016 191.392 380.393 191.392Z" fill="#30A2FF"/>
<path d="M405.132 204.193L412.045 188.715C412.045 188.715 393.082 177.899 390.08 177.821L392.032 182.518C392.032 182.518 376.969 181.321 376.594 182.789C376.394 183.57 379.377 184.972 379.377 184.972C379.377 184.972 378.677 186.481 380.983 188.049C380.983 188.049 379.774 189.912 382.768 191.007C382.768 191.007 382.877 192.578 388.844 194.416C394.812 196.254 397.22 195.31 397.22 195.31L405.132 204.193Z" fill="white"/>
<path d="M405.132 204.6C405.017 204.6 404.906 204.551 404.828 204.464L397.087 195.772C396.28 195.971 393.703 196.338 388.725 194.804C382.791 192.977 382.384 191.344 382.362 191.036C382.347 190.812 382.516 190.618 382.74 190.602C382.957 190.587 383.142 190.742 383.17 190.952C383.193 191.028 383.676 192.399 388.964 194.028C394.729 195.804 397.049 194.941 397.072 194.933C397.23 194.87 397.41 194.913 397.524 195.041L405.017 203.454L411.523 188.886C406.041 185.77 392.401 178.288 390.069 178.227C389.845 178.222 389.668 178.035 389.674 177.811C389.679 177.586 389.858 177.41 390.09 177.415C393.158 177.494 411.468 187.918 412.246 188.362C412.427 188.466 412.501 188.69 412.415 188.88L405.503 204.359C405.447 204.485 405.33 204.573 405.194 204.595C405.173 204.598 405.152 204.6 405.132 204.6Z" fill="#282828"/>
<path d="M387.136 186.921C384.75 186.921 382.373 186.483 380.129 185.617C379.92 185.536 379.816 185.301 379.896 185.092C379.978 184.882 380.214 184.779 380.422 184.859C383.586 186.08 387.024 186.414 390.364 185.828C390.586 185.789 390.796 185.936 390.835 186.157C390.874 186.378 390.726 186.589 390.505 186.628C389.388 186.824 388.261 186.921 387.136 186.921Z" fill="#282828"/>
<path d="M388.611 190.299C388.603 190.299 388.595 190.299 388.587 190.298C386.297 190.166 384.061 189.654 381.942 188.777C381.735 188.691 381.637 188.453 381.722 188.246C381.808 188.039 382.045 187.94 382.253 188.026C384.288 188.869 386.435 189.36 388.634 189.487C388.858 189.5 389.029 189.692 389.016 189.916C389.004 190.132 388.824 190.299 388.611 190.299Z" fill="#282828"/>
<path d="M389.494 193.105C389.475 193.105 389.456 193.103 389.437 193.1C387.311 192.799 385.221 192.245 383.225 191.454C383.017 191.371 382.915 191.135 382.997 190.927C383.08 190.718 383.316 190.616 383.525 190.699C385.461 191.466 387.489 192.004 389.551 192.296C389.773 192.328 389.928 192.533 389.896 192.755C389.867 192.958 389.693 193.105 389.494 193.105Z" fill="#282828"/>
<path d="M414.791 134.576L422.72 146.892L430.479 147.975C430.479 147.975 416.805 160.596 410.812 160.498C404.819 160.401 406.195 150.121 406.195 150.121L410.413 148.778L407.057 142.584L414.791 134.576Z" fill="white"/>
<path d="M410.88 160.905C410.855 160.905 410.83 160.905 410.806 160.905C409.448 160.883 408.331 160.374 407.487 159.394C404.969 156.47 405.758 150.327 405.792 150.067C405.813 149.911 405.922 149.782 406.072 149.734L409.822 148.539L406.7 142.777C406.615 142.621 406.641 142.429 406.765 142.301L414.499 134.294C414.585 134.205 414.709 134.159 414.831 134.172C414.955 134.184 415.066 134.252 415.133 134.356L422.961 146.515L430.536 147.572C430.691 147.594 430.82 147.703 430.867 147.853C430.914 148.003 430.871 148.166 430.755 148.273C430.194 148.791 416.999 160.904 410.88 160.905ZM406.57 150.428C406.451 151.599 406.092 156.53 408.103 158.865C408.799 159.672 409.688 160.074 410.819 160.092C415.857 160.17 426.796 150.721 429.561 148.256L422.664 147.294C422.547 147.278 422.443 147.211 422.379 147.112L414.727 135.227L407.556 142.652L410.771 148.584C410.828 148.691 410.836 148.817 410.79 148.93C410.745 149.042 410.652 149.128 410.537 149.165L406.57 150.428Z" fill="#282828"/>
<path d="M411.454 151.21C411.303 151.21 411.158 151.126 411.088 150.982L410.389 149.543C410.291 149.341 410.375 149.098 410.576 149C410.778 148.902 411.021 148.986 411.12 149.188L411.819 150.626C411.917 150.828 411.833 151.071 411.631 151.169C411.573 151.197 411.513 151.21 411.454 151.21Z" fill="#282828"/>
<path d="M411.979 129.957C412.482 129.274 413.233 128.737 414.077 128.649C415.385 128.513 416.621 129.509 417.098 130.733C417.575 131.958 417.43 133.34 417.078 134.606C416.849 135.434 416.513 136.271 415.874 136.846C415.235 137.421 414.225 137.658 413.497 137.2C412.946 139.106 412.357 141.048 411.189 142.652C410.021 144.256 408.15 145.487 406.168 145.364C404.515 145.262 403.044 144.252 401.91 143.045C400.035 141.049 398.868 138.475 398.171 135.828C397.475 133.181 397.223 130.441 396.973 127.715C397.396 128.509 398.472 128.824 399.316 128.51C400.16 128.196 400.745 127.364 400.911 126.479C401.095 127.867 402.081 129.118 403.388 129.621C404.695 130.125 406.268 129.858 407.335 128.952C407.302 129.761 407.322 130.591 407.611 131.347C408.049 132.497 409.396 133.541 410.617 132.758C411.03 132.494 411.067 132.212 411.175 131.767C411.333 131.113 411.576 130.506 411.979 129.957Z" fill="white"/>
<path d="M406.43 145.778C406.334 145.778 406.238 145.775 406.143 145.77C404.186 145.649 402.6 144.373 401.614 143.323C399.871 141.468 398.581 138.981 397.779 135.931C397.072 133.245 396.816 130.452 396.568 127.752C396.55 127.56 396.671 127.381 396.856 127.326C397.041 127.27 397.24 127.353 397.331 127.524C397.643 128.108 398.486 128.385 399.174 128.129C399.836 127.883 400.361 127.206 400.512 126.404C400.549 126.208 400.716 126.067 400.923 126.073C401.122 126.079 401.288 126.229 401.314 126.426C401.478 127.662 402.369 128.794 403.534 129.242C404.699 129.691 406.121 129.45 407.072 128.643C407.196 128.538 407.369 128.517 407.514 128.587C407.659 128.658 407.748 128.808 407.741 128.969C407.712 129.674 407.718 130.49 407.991 131.202C408.23 131.829 408.763 132.373 409.317 132.556C409.696 132.68 410.059 132.633 410.398 132.416C410.64 132.261 410.669 132.138 410.756 131.774L410.78 131.672C410.967 130.9 411.252 130.26 411.652 129.717C412.271 128.875 413.14 128.338 414.036 128.245C415.63 128.079 416.974 129.297 417.477 130.586C417.918 131.718 417.916 133.108 417.47 134.715C417.273 135.425 416.921 136.45 416.146 137.148C415.548 137.686 414.599 138.014 413.757 137.761C413.191 139.685 412.598 141.407 411.518 142.891C410.206 144.693 408.28 145.778 406.43 145.778ZM397.476 128.748C397.697 131.078 397.966 133.452 398.564 135.725C399.332 138.642 400.557 141.011 402.207 142.767C403.092 143.709 404.502 144.854 406.193 144.959C408.176 145.08 409.906 143.724 410.86 142.413C411.946 140.922 412.52 139.119 413.106 137.087C413.142 136.965 413.232 136.866 413.352 136.821C413.472 136.775 413.605 136.789 413.713 136.856C414.303 137.227 415.126 136.972 415.602 136.544C416.079 136.115 416.413 135.484 416.687 134.497C417.085 133.063 417.096 131.846 416.72 130.881C416.338 129.903 415.296 128.931 414.12 129.053C413.451 129.122 412.79 129.54 412.307 130.198C411.967 130.659 411.733 131.188 411.569 131.863L411.546 131.961C411.448 132.375 411.356 132.767 410.837 133.1C410.29 133.451 409.677 133.529 409.063 133.327C408.277 133.068 407.558 132.348 407.231 131.492C407.011 130.915 406.936 130.307 406.92 129.73C405.809 130.347 404.441 130.462 403.242 130C402.175 129.59 401.315 128.749 400.85 127.722C400.508 128.261 400.019 128.682 399.458 128.89C398.8 129.135 398.062 129.061 397.476 128.748Z" fill="#282828"/>
<path d="M412.731 135.792C412.709 135.792 412.686 135.791 412.664 135.787C412.442 135.75 412.293 135.54 412.33 135.319C412.535 134.096 413.305 133.007 414.391 132.405C414.587 132.297 414.834 132.368 414.943 132.564C415.052 132.76 414.981 133.007 414.784 133.116C413.927 133.591 413.293 134.486 413.131 135.453C413.098 135.652 412.926 135.792 412.731 135.792Z" fill="#282828"/>
</svg>
