<svg width="819" height="784" viewBox="0 0 819 784" fill="none" xmlns="http://www.w3.org/2000/svg">
<path d="M315.051 232.306C311.757 232.306 308.843 233.816 306.869 236.146C303.841 225.597 294.229 217.832 282.707 217.832C274.054 217.832 266.43 222.195 261.883 228.83C255.822 209.427 237.715 195.344 216.313 195.344C202.457 195.344 190.02 201.284 181.3 210.712C168.599 180.142 138.473 158.635 103.306 158.635C59.2769 158.635 23.1574 192.342 19.2521 235.354C17.3125 233.474 14.6794 232.306 11.7656 232.306C5.81479 232.306 0.991499 237.129 0.991499 243.08H187.752H257.461H264.047H304.277H307.953H325.823C325.825 237.129 321.002 232.306 315.051 232.306Z" fill="#D4DCFF"/>
<path d="M181.172 210.425C168.4 180.008 138.361 158.635 103.304 158.635C94.6082 158.635 86.2274 159.967 78.3369 162.41C81.0456 161.944 135.514 153.369 161.506 211.98C164.46 218.644 173.427 219.864 177.935 214.138C178.954 212.844 180.034 211.607 181.172 210.425Z" fill="#E6EBFF"/>
<path d="M261.883 228.831C255.822 209.428 237.714 195.345 216.313 195.345C209.427 195.345 202.893 196.814 196.992 199.447C197.474 199.313 236.103 188.647 255.288 231.127C256.275 233.313 259.375 233.38 260.457 231.237C260.863 230.423 261.336 229.607 261.883 228.831Z" fill="#E6EBFF"/>
<path d="M306.869 236.146C303.841 225.596 294.229 217.831 282.707 217.831C279.297 217.831 276.052 218.518 273.087 219.745C278.923 218.3 294.896 216.546 303.219 237.416C303.7 238.621 305.342 238.695 305.953 237.548C306.214 237.055 306.519 236.573 306.869 236.146Z" fill="#E6EBFF"/>
<path d="M398.833 771.143C435.241 771.143 464.756 741.628 464.756 705.22C464.756 668.812 435.241 639.297 398.833 639.297C362.425 639.297 332.91 668.812 332.91 705.22C332.91 741.628 362.425 771.143 398.833 771.143Z" fill="#5A54D3"/>
<path d="M739.525 390.509C654.694 298.735 533.366 241.173 398.833 241.173C264.3 241.173 142.972 298.737 58.1406 390.509C45.8178 403.84 46.6731 424.641 60.1839 436.767C73.3081 448.546 93.517 447.732 105.475 434.772C178.466 355.662 282.962 306.038 398.833 306.038C514.704 306.038 619.203 355.662 692.191 434.772C704.149 447.734 724.358 448.546 737.482 436.767C750.993 424.641 751.848 403.838 739.525 390.509Z" fill="#5A54D3"/>
<path d="M398.833 375.272C303.739 375.272 217.924 415.721 157.66 480.307C145.37 493.478 146.554 514.275 159.963 526.308C173.012 538.018 193.132 537.361 205.094 524.541C253.506 472.65 322.434 440.137 398.833 440.137C475.234 440.137 544.162 472.647 592.574 524.539C604.534 537.359 624.657 538.016 637.705 526.306C651.115 514.273 652.3 493.476 640.008 480.305C579.742 415.721 493.929 375.272 398.833 375.272Z" fill="#5A54D3"/>
<path d="M398.833 505.52C342.323 505.52 291.232 529.124 254.875 566.98C242.282 580.091 243.365 601.149 256.893 613.291C269.874 624.939 289.738 624.225 301.847 611.671C326.38 586.232 360.784 570.382 398.833 570.382C436.881 570.382 471.286 586.232 495.819 611.671C507.928 624.227 527.791 624.942 540.773 613.291C554.303 601.149 555.383 580.091 542.792 566.98C506.433 529.124 455.345 505.52 398.833 505.52Z" fill="#5A54D3"/>
<path d="M398.833 758.501C435.241 758.501 464.756 728.986 464.756 692.577C464.756 656.169 435.241 626.654 398.833 626.654C362.425 626.654 332.91 656.169 332.91 692.577C332.91 728.986 362.425 758.501 398.833 758.501Z" fill="#5A54D3"/>
<path d="M739.525 377.866C654.694 286.094 533.366 228.53 398.833 228.53C264.3 228.53 142.972 286.094 58.1406 377.866C45.8178 391.198 46.6731 411.999 60.1839 424.125C73.3081 435.903 93.517 435.089 105.475 422.129C178.466 343.019 282.962 293.395 398.833 293.395C514.704 293.395 619.203 343.019 692.191 422.129C704.149 435.091 724.358 435.903 737.482 424.125C750.993 411.999 751.848 391.196 739.525 377.866Z" fill="#5A54D3"/>
<path d="M398.833 362.63C303.739 362.63 217.924 403.078 157.66 467.664C145.37 480.836 146.554 501.632 159.963 513.666C173.012 525.375 193.132 524.718 205.094 511.899C253.506 460.007 322.434 427.495 398.833 427.495C475.234 427.495 544.162 460.005 592.574 511.899C604.534 524.718 624.657 525.375 637.705 513.666C651.115 501.632 652.3 480.836 640.008 467.664C579.742 403.078 493.929 362.63 398.833 362.63Z" fill="#5A54D3"/>
<path d="M398.833 492.877C342.323 492.877 291.232 516.481 254.875 554.338C242.282 567.449 243.365 588.507 256.893 600.648C269.874 612.297 289.738 611.582 301.847 599.028C326.38 573.59 360.784 557.74 398.833 557.74C436.881 557.74 471.286 573.59 495.819 599.028C507.928 611.584 527.791 612.299 540.773 600.648C554.303 588.507 555.383 567.449 542.792 554.338C506.433 516.481 455.345 492.877 398.833 492.877Z" fill="#5A54D3"/>
<path d="M398.833 745.858C435.242 745.858 464.756 716.343 464.756 679.935C464.756 643.527 435.242 614.012 398.833 614.012C362.425 614.012 332.91 643.527 332.91 679.935C332.91 716.343 362.425 745.858 398.833 745.858Z" fill="#5A54D3"/>
<path d="M739.526 365.224C654.694 273.45 533.367 215.888 398.833 215.888C264.3 215.888 142.973 273.452 58.1407 365.224C45.8179 378.555 46.6732 399.356 60.184 411.482C73.3082 423.261 93.5171 422.446 105.475 409.486C178.466 330.376 282.962 280.752 398.833 280.752C514.704 280.752 619.203 330.376 692.191 409.486C704.149 422.448 724.358 423.261 737.482 411.482C750.993 399.356 751.848 378.553 739.526 365.224Z" fill="#5A54D3"/>
<path d="M398.833 349.987C303.739 349.987 217.924 390.435 157.66 455.022C145.37 468.193 146.554 488.99 159.963 501.023C173.012 512.732 193.132 512.076 205.094 499.256C253.506 447.362 322.434 414.852 398.833 414.852C475.234 414.852 544.162 447.362 592.574 499.256C604.534 512.076 624.657 512.732 637.705 501.023C651.115 488.99 652.3 468.193 640.008 455.022C579.742 390.435 493.929 349.987 398.833 349.987Z" fill="#5A54D3"/>
<path d="M398.833 480.234C342.323 480.234 291.232 503.839 254.875 541.695C242.283 554.806 243.365 575.864 256.893 588.005C269.874 599.654 289.738 598.939 301.847 586.385C326.38 560.947 360.784 545.097 398.833 545.097C436.881 545.097 471.286 560.947 495.819 586.385C507.928 598.942 527.791 599.656 540.773 588.005C554.303 575.864 555.383 554.806 542.793 541.695C506.433 503.839 455.345 480.234 398.833 480.234Z" fill="#5A54D3"/>
<path d="M398.833 745.502C435.242 745.502 464.756 715.987 464.756 679.578C464.756 643.17 435.242 613.655 398.833 613.655C362.425 613.655 332.91 643.17 332.91 679.578C332.91 715.987 362.425 745.502 398.833 745.502Z" fill="#6C5CE7"/>
<path d="M739.526 364.867C654.694 273.093 533.367 215.531 398.833 215.531C264.3 215.531 142.973 273.095 58.1408 364.867C45.818 378.199 46.6733 398.999 60.1841 411.126C73.3083 422.904 93.5172 422.09 105.475 409.13C178.466 330.02 282.962 280.396 398.833 280.396C514.704 280.396 619.203 330.02 692.191 409.13C704.149 422.092 724.358 422.904 737.482 411.126C750.993 398.999 751.848 378.197 739.526 364.867Z" fill="#6C5CE7"/>
<path d="M398.833 349.631C303.739 349.631 217.925 390.079 157.661 454.665C145.37 467.837 146.554 488.633 159.963 500.667C173.012 512.376 193.132 511.719 205.094 498.9C253.506 447.008 322.434 414.496 398.833 414.496C475.235 414.496 544.162 447.006 592.574 498.9C604.534 511.719 624.657 512.376 637.705 500.667C651.115 488.633 652.301 467.837 640.008 454.665C579.742 390.079 493.929 349.631 398.833 349.631Z" fill="#6C5CE7"/>
<path d="M398.833 479.878C342.323 479.878 291.233 503.482 254.875 541.339C242.283 554.45 243.365 575.508 256.893 587.649C269.874 599.298 289.738 598.583 301.847 586.029C326.38 560.591 360.785 544.741 398.833 544.741C436.881 544.741 471.286 560.591 495.819 586.029C507.928 598.585 527.791 599.298 540.773 587.649C554.303 575.508 555.383 554.45 542.793 541.339C506.433 503.482 455.345 479.878 398.833 479.878Z" fill="#6C5CE7"/>
<g opacity="0.08">
<path d="M580.548 324.209L628.351 276.407C560.626 237.691 482.276 215.531 398.833 215.531C362.606 215.531 327.35 219.741 293.492 227.634L164.556 356.571C230.399 308.683 311.371 280.396 398.833 280.396C464.236 280.394 526.012 296.212 580.548 324.209Z" fill="white"/>
<path d="M478.12 426.635L528.526 376.229C488.694 359.128 444.856 349.631 398.833 349.631C303.739 349.631 217.925 390.079 157.661 454.665C145.37 467.837 146.554 488.633 159.963 500.667C173.012 512.376 193.134 511.719 205.094 498.9C253.506 447.008 322.434 414.496 398.833 414.496C426.447 414.496 453.075 418.762 478.12 426.635Z" fill="white"/>
<path d="M423.364 481.392C415.322 480.403 407.138 479.878 398.833 479.878C342.323 479.878 291.233 503.482 254.875 541.339C242.283 554.45 243.365 575.508 256.893 587.649C269.875 599.298 289.738 598.583 301.847 586.029C315.617 571.751 332.497 560.498 351.386 553.368L423.364 481.392Z" fill="white"/>
<path d="M398.833 613.655C362.424 613.655 332.91 643.169 332.91 679.578C332.91 698.418 340.826 715.4 353.499 727.414L446.669 634.244C434.655 621.572 417.675 613.655 398.833 613.655Z" fill="white"/>
<path d="M675.637 307.411L629.245 353.804C648.179 367.235 665.893 382.272 682.195 398.719L728.015 352.899C711.72 336.478 694.215 321.268 675.637 307.411Z" fill="white"/>
<path d="M532.356 450.692C552.552 462.527 571.056 476.949 587.399 493.514L633.256 447.657C616.941 431.166 598.901 416.391 579.439 403.608L532.356 450.692Z" fill="white"/>
<path d="M433.717 549.333C457.479 555.707 478.665 568.432 495.351 585.565L541.199 539.717C524.778 523.002 505.455 509.153 484.045 499.005L433.717 549.333Z" fill="white"/>
</g>
<path d="M533.609 765.374C528.103 765.374 523.234 767.897 519.932 771.792C514.869 754.162 498.807 741.182 479.548 741.182C465.087 741.182 452.343 748.475 444.742 759.564C434.614 727.134 404.346 703.594 368.578 703.594C345.421 703.594 324.633 713.521 310.057 729.279C288.829 678.186 238.479 642.239 179.704 642.239C106.115 642.239 45.7469 698.576 39.2173 770.465C35.9773 767.325 31.573 765.372 26.7044 765.372C16.7597 765.372 8.69863 773.433 8.69863 783.378H320.842H437.353H448.362H515.603H521.746H551.615C551.615 773.435 543.553 765.374 533.609 765.374Z" fill="#AFBDF9"/>
<path d="M309.848 728.803C288.503 677.967 238.296 642.243 179.703 642.243C165.169 642.243 151.163 644.472 137.972 648.553C142.5 647.775 233.535 633.439 276.979 731.399C281.917 742.536 296.903 744.575 304.439 735.004C306.139 732.849 307.945 730.777 309.848 728.803Z" fill="#C0CFF9"/>
<path d="M444.742 759.566C434.614 727.135 404.346 703.596 368.578 703.596C357.07 703.596 346.151 706.052 336.284 710.452C337.088 710.227 401.652 692.4 433.717 763.4C435.368 767.054 440.549 767.165 442.355 763.583C443.04 762.225 443.83 760.862 444.742 759.566Z" fill="#C0CFF9"/>
<path d="M519.932 771.792C514.869 754.162 498.807 741.183 479.548 741.183C473.848 741.183 468.424 742.33 463.467 744.382C473.22 741.967 499.919 739.036 513.83 773.915C514.633 775.931 517.379 776.052 518.398 774.138C518.841 773.315 519.349 772.507 519.932 771.792Z" fill="#C0CFF9"/>
<path d="M405.628 526.052C409.955 526.052 413.778 528.035 416.372 531.093C420.349 517.243 432.968 507.046 448.098 507.046C459.46 507.046 469.472 512.774 475.444 521.488C483.401 496.011 507.179 477.517 535.28 477.517C553.472 477.517 569.804 485.314 581.256 497.696C597.933 457.556 637.489 429.316 683.664 429.316C741.476 429.316 788.903 473.577 794.031 530.052C796.578 527.583 800.036 526.05 803.861 526.05C811.674 526.05 818.007 532.383 818.007 540.196H572.782H481.25H472.601H419.776H414.949H391.485C391.483 532.385 397.816 526.052 405.628 526.052Z" fill="#C6D0F7"/>
<path d="M581.417 497.32C598.186 457.381 637.631 429.316 683.661 429.316C695.081 429.316 706.084 431.068 716.446 434.274C712.888 433.662 641.37 422.4 607.24 499.361C603.361 508.109 591.587 509.712 585.666 502.193C584.331 500.497 582.912 498.871 581.417 497.32Z" fill="#DEE7FF"/>
<path d="M475.441 521.488C483.399 496.011 507.176 477.517 535.278 477.517C544.32 477.517 552.897 479.445 560.649 482.904C560.016 482.726 509.295 468.721 484.103 524.501C482.807 527.372 478.735 527.458 477.316 524.646C476.778 523.576 476.156 522.505 475.441 521.488Z" fill="#DEE7FF"/>
<path d="M416.372 531.093C420.349 517.243 432.967 507.046 448.098 507.046C452.576 507.046 456.838 507.947 460.732 509.558C453.071 507.659 432.095 505.359 421.167 532.761C420.537 534.344 418.379 534.439 417.577 532.936C417.23 532.288 416.83 531.655 416.372 531.093Z" fill="#DEE7FF"/>
<path d="M158.442 537.856L174.357 537.208L173.253 510.102L157.338 510.751L158.442 537.856Z" fill="#F9E8CA"/>
<path d="M155.246 454.207L153.382 451.839C152.328 450.498 152.559 448.556 153.9 447.502C155.242 446.448 157.183 446.679 158.237 448.02L160.626 451.057L160.035 448.15C159.177 443.934 174.448 440.827 175.306 445.044L197.832 470.145C197.867 470.996 197.774 471.819 197.614 472.62C197.854 473.919 198.04 475.236 198.094 476.595L199.094 501.122C199.72 516.52 187.788 529.511 172.349 530.139C151.079 531.005 143.418 505.539 143.146 498.867L142.331 478.867C141.914 468.57 147.144 459.373 155.246 454.207Z" fill="#282828"/>
<path d="M162.622 467.248L197.658 465.82L199.096 501.119C199.1 501.246 199.098 501.374 199.103 501.501L184.635 502.091C170.21 502.679 158.041 491.462 157.453 477.037L157.289 473.033C157.164 469.965 159.553 467.373 162.622 467.248Z" fill="#F9E8CA"/>
<path d="M142.994 498.87L147.74 498.676L147.213 485.744L142.467 485.939C139.882 486.044 137.871 488.226 137.977 490.812L138.121 494.38C138.227 496.965 140.409 498.976 142.994 498.87Z" fill="#F9E8CA"/>
<path d="M182.276 507.079C181.844 507.096 181.513 507.495 181.596 507.919C182.092 510.481 184.399 512.366 187.086 512.258C189.773 512.148 191.92 510.083 192.205 507.487C192.253 507.057 191.892 506.685 191.46 506.705L182.276 507.079Z" fill="white"/>
<path d="M170.163 558.752L166.674 555.914C162.959 551.912 161.544 546.272 163.508 541.15L165.886 534.945C166.545 533.228 168.001 531.893 169.875 531.415C169.906 531.407 169.934 531.4 169.964 531.394C173.502 530.497 177.384 531.629 180.049 534.2L207.475 561.504L251.564 556.771L258.034 563.941L202.424 585.005L170.163 558.752Z" fill="#F2B657"/>
<path d="M165.551 531.549L170.735 531.337C172.984 531.244 175.85 530.758 177.321 532.462C211.79 572.407 207.948 626.047 207.948 626.047L153.885 635.246L150.332 548.062C149.975 539.299 156.788 531.905 165.551 531.549Z" fill="#FDCB6E"/>
<path d="M249.716 669.057L186.251 655.391C177.695 651.19 171.135 644.299 168.357 632.916L207.825 626.177C207.825 626.177 257.656 641.828 276.789 647.74C278.07 648.135 279.245 648.773 280.275 649.63C281.716 650.829 283.567 652.632 284.01 654.27L311.042 708.149L298.642 708.654C281.077 678.343 268.866 670.679 249.716 669.057Z" fill="#4F4ABC"/>
<path d="M250.798 566.336C250.798 566.336 258.85 565.684 261.168 560.461C263.486 555.238 262.918 546.227 262.918 546.227L245.558 559.461L250.798 566.336Z" fill="#F7DDCB"/>
<g opacity="0.3">
<path d="M193.61 637.895L258.522 659.231C258.541 659.238 258.522 659.231 258.541 659.238C261.276 660.089 263.306 662.475 264.056 665.24L280.5 724.832C282.697 724.623 284.962 724.59 287.202 724.867C298.272 726.226 300.173 733.222 300.173 733.222L300.56 735.626L267.153 736.969L266.207 734.604L264.326 729.401C264.326 729.401 264.375 729.377 264.423 729.353L249.763 688.335C237.134 665.365 165.862 692.659 154.144 644.638L193.61 637.895Z" fill="#CCCCCC"/>
</g>
<path d="M193.61 628.494L261.429 654.39C261.449 654.397 261.429 654.39 261.449 654.397C264.183 655.248 266.214 657.635 266.963 660.399L285.885 728.969L269.166 729.649L252.668 683.492C240.039 660.52 165.86 683.259 154.142 635.236L193.61 628.494Z" fill="#6C5CE7"/>
<path d="M157.887 564.077L154.36 561.059C150.632 556.771 149.33 550.622 151.505 544.948L154.155 538.031C154.892 536.107 156.483 534.638 158.46 534.055C162.143 532.97 166.126 534.102 168.811 536.848L196.398 566.034L242.13 559.586L248.616 567.271L201.23 587.413C194.661 590.206 187.078 589.037 181.652 584.398L157.887 564.077Z" fill="#FFD188"/>
<path d="M268.929 541.492L253.083 556.884C252.945 557.018 252.77 557.104 252.58 557.132L243.441 558.508C242.543 558.644 242.015 557.53 242.689 556.921L259.475 541.79C259.598 541.68 259.747 541.604 259.909 541.572L268.108 539.932C269.007 539.755 269.584 540.854 268.929 541.492Z" fill="#282828"/>
<path d="M244.668 568.241C244.668 568.241 252.72 567.588 255.038 562.366C256.493 559.087 256.811 554.311 256.846 551.213C256.861 549.928 255.39 549.198 254.366 549.976L249.033 554.041C249.033 554.041 247.968 551.436 247.214 551.572C245.953 551.799 245.806 556.501 245.806 556.501L239.425 561.365L244.668 568.241Z" fill="#F9E8CA"/>
<path d="M268.484 728.2L266.131 721.321C266.131 721.321 277.538 713.854 288.827 715.893C300.115 717.932 302.642 727.164 302.642 727.164L268.484 728.2Z" fill="#EABE46"/>
<path d="M294.469 701.718C298.715 699.048 306.599 695.044 313.053 695.43C323.769 696.07 326.748 704.867 326.748 704.867L298.964 709.278L294.469 701.718Z" fill="#EABE46"/>
<path d="M269.646 731.327L303.243 730.332L302.642 727.165L268.478 728.178L269.646 731.327Z" fill="white"/>
<path d="M300.688 712.555L327.297 708.273L326.748 704.867L298.964 709.278L300.688 712.555Z" fill="white"/>
<path d="M202.479 469.75C202.479 469.75 214.555 472.391 214.458 474.046C214.389 475.221 192.834 483.304 181.764 481.252C173.641 479.746 164.595 478.202 153.751 473.02C153.751 473.02 178.244 465.06 202.479 469.75Z" fill="#FFD188"/>
<path d="M142.683 471.851C140.569 452.206 155.017 441.484 171.53 440.903C188.041 440.322 201.055 446.173 202.478 469.749C202.478 469.749 192.709 473.767 174.452 474.26C165.212 474.506 142.683 471.851 142.683 471.851Z" fill="#FDCB6E"/>
<path d="M345.116 152.363C345.116 152.363 352.069 99.7517 390.15 96.1553L391.48 120.3C391.48 120.3 373.002 123.004 362.344 151.412L345.116 152.363Z" fill="#4F4ABC"/>
<path d="M460.948 152.363C460.948 152.363 453.995 99.7517 415.914 96.1553L414.582 120.3C414.582 120.3 433.06 123.004 443.718 151.412L460.948 152.363Z" fill="#4F4ABC"/>
<path d="M410.158 95.4111H395.909C379.616 95.4111 366.41 108.62 366.41 124.91V193.123H439.66V124.91C439.657 108.617 426.449 95.4111 410.158 95.4111Z" fill="#6C5CE7"/>
<path d="M403.507 98.7911H402.557C386.348 98.7911 373.416 85.2673 374.14 69.0738L375.041 44.0481C375.484 34.1682 383.623 26.3857 393.511 26.3857H412.957C422.619 26.3857 430.57 33.9889 431.002 43.6398L431.922 69.0738C432.648 85.2673 419.716 98.7911 403.507 98.7911Z" fill="#F9E8CA"/>
<path d="M374.665 54.5293H371.11C370.224 54.5293 369.507 55.2464 369.507 56.132V64.2061C369.507 65.0917 370.224 65.8088 371.11 65.8088H374.259L374.665 54.5293Z" fill="#F9E8CA"/>
<path d="M434.957 54.5293H431.4L431.808 65.811H434.959C435.845 65.811 436.562 65.0939 436.562 64.2083V56.1342C436.56 55.2464 435.843 54.5293 434.957 54.5293Z" fill="#F9E8CA"/>
<path d="M406.179 68.9551H399.818C394.511 68.9551 390.21 73.2578 390.21 78.5628V96.8752C390.21 102.182 394.513 106.483 399.818 106.483H406.179C411.486 106.483 415.789 102.18 415.789 96.8752V78.5628C415.787 73.2578 411.484 68.9551 406.179 68.9551Z" fill="#F9E8CA"/>
<path d="M433.51 36.9036C433.51 29.2961 430.549 22.3949 425.743 17.2325C426.957 15.9819 429.27 13.122 427.345 11.0981C424.82 8.43914 416.051 10.3551 416.051 10.3551C416.051 10.3551 422.606 4.01114 416.051 4.1105C409.495 4.20986 399.723 8.05466 399.723 8.05466C399.723 8.05466 410.735 -5.73478 391.98 2.7713C373.224 11.2774 372.585 35.7286 372.585 35.7286L372.646 35.707C372.628 36.1066 372.585 36.4997 372.585 36.9036V54.5292H374.665L375.043 44.0511C375.486 34.1712 383.625 26.3887 393.513 26.3887H412.96C422.621 26.3887 430.572 33.9919 431.004 43.6428L431.397 54.5292H433.51V36.9036Z" fill="#282828"/>
<path d="M431.925 69.0748L431.508 57.549C426.972 64.3574 420.008 69.4247 411.826 71.4918C409.806 68.8372 406.625 67.1157 403.032 67.1157C399.44 67.1157 396.259 68.8372 394.239 71.4918C386.057 69.4247 379.093 64.3552 374.555 57.5469L374.14 69.0748C373.415 85.2683 386.346 98.7921 402.557 98.7921H403.508C419.716 98.7921 432.648 85.2683 431.925 69.0748Z" fill="#282828"/>
<path d="M407.341 72.4404H398.725C398.105 72.4404 397.667 73.0215 397.803 73.6263C398.343 76.0174 400.479 77.8037 403.034 77.8037C405.587 77.8037 407.726 76.0174 408.266 73.6263C408.4 73.0215 407.961 72.4404 407.341 72.4404Z" fill="white"/>
<path d="M403.032 233.347L343.654 187.274H462.41L403.032 233.347Z" fill="#F2B657"/>
<path d="M438.171 207.797H368.984C366.427 207.797 364.284 205.868 364.016 203.325L358.675 152.794C358.364 149.844 360.677 147.273 363.645 147.273H443.513C446.481 147.273 448.794 149.844 448.483 152.794L443.141 203.325C442.871 205.868 440.729 207.797 438.171 207.797Z" fill="#282828"/>
<path d="M431.529 267.65C429.641 271.03 425.181 271.911 422.123 269.535C412.977 262.433 408.445 253.318 411.772 247.361C415.118 241.367 425.358 240.468 436.279 244.611C439.822 245.955 441.26 250.216 439.413 253.525L431.529 267.65Z" fill="#282828"/>
<path d="M422.818 269.963L436.711 244.836C439.919 246.359 441.18 250.366 439.413 253.528L431.529 267.65C429.777 270.786 425.825 271.734 422.818 269.963Z" fill="white"/>
<path d="M419.828 247.225L415.543 254.478C413.841 257.36 410.203 258.442 407.203 256.958L326.471 217.026C317.44 212.559 314.109 201.357 319.235 192.681C324.361 184.006 335.778 181.518 344.049 187.274L417.977 238.723C420.723 240.637 421.53 244.344 419.828 247.225Z" fill="#FDCB6E"/>
<path d="M375.099 267.65C376.987 271.03 381.447 271.911 384.506 269.535C393.651 262.433 398.183 253.318 394.857 247.361C391.511 241.367 381.27 240.468 370.349 244.611C366.807 245.955 365.368 250.216 367.215 253.525L375.099 267.65Z" fill="#282828"/>
<path d="M386.236 247.225L390.521 254.478C392.223 257.36 395.861 258.442 398.861 256.958L479.593 217.026C488.624 212.559 491.955 201.357 486.829 192.681C481.704 184.006 470.286 181.518 462.015 187.274L388.087 238.723C385.342 240.637 384.534 244.344 386.236 247.225Z" fill="#FFD188"/>
<path d="M347.147 152.25C347.147 152.25 348.484 178.449 362.936 193.124L358.089 151.647L347.147 152.25Z" fill="#F9E8CA"/>
<path d="M459.579 152.25C459.579 152.25 458.242 178.449 443.789 193.124L448.634 151.647L459.579 152.25Z" fill="#F9E8CA"/>
<path d="M383.81 269.963L369.917 244.836C366.71 246.359 365.448 250.366 367.215 253.528L375.099 267.65C376.851 270.786 380.804 271.734 383.81 269.963Z" fill="white"/>
<path d="M592.091 427.463L668.032 424.746C676.614 420.599 683.219 413.751 686.068 402.388L646.644 395.394C646.644 395.394 596.713 410.723 577.541 416.514C576.258 416.901 575.079 417.531 574.042 418.382C572.593 419.573 570.731 421.363 570.277 422.998L542.899 476.702L555.297 477.288C573.731 448.916 592.091 427.463 592.091 427.463Z" fill="#FFEBD3"/>
<g opacity="0.3">
<path d="M664.105 400.369L595.737 428.123C595.717 428.129 595.737 428.123 595.717 428.129C592.978 428.963 590.931 431.337 590.166 434.095L573.34 493.58C571.145 493.355 568.877 493.31 566.637 493.571C555.559 494.858 553.612 501.842 553.612 501.842L553.211 504.244L586.609 505.803L587.57 503.444L589.486 498.252C589.486 498.252 589.436 498.228 589.388 498.204L604.312 457.281C617.088 434.391 691.505 455.311 703.529 407.363L664.105 400.369Z" fill="#CCCCCC"/>
</g>
<path d="M660.846 397.804L592.862 423.264C592.842 423.27 597.162 423.681 597.141 423.687C594.402 424.521 592.354 426.895 591.589 429.653L572.227 498.099L585.503 496.112L601.437 452.419C614.213 429.53 688.245 452.743 700.272 404.798L660.846 397.804Z" fill="#FFEBD3"/>
<path d="M585.502 496.111L587.727 489.739C587.727 489.739 577.184 482.738 566.693 484.563C556.202 486.389 553.802 494.942 553.802 494.942L585.502 496.111Z" fill="#282828"/>
<path d="M559.518 470.792C555.45 468.2 547.897 464.302 541.689 464.632C531.384 465.181 528.466 473.62 528.466 473.62L555.15 478.033L559.518 470.792Z" fill="#282828"/>
<path d="M581.29 498.905L556.796 498.095C555.105 498.039 553.772 496.637 553.8 494.943L585.509 496.09C584.85 497.836 583.152 498.967 581.29 498.905Z" fill="white"/>
<path d="M549.964 480.583L531.189 477.438C529.384 477.136 528.163 475.425 528.466 473.619L555.15 478.032C554.148 479.909 552.061 480.935 549.964 480.583Z" fill="white"/>
<path d="M706.251 263.076L705.331 253.297C703.466 233.49 689.969 221.588 674.944 223.003C658.571 224.993 649.058 238.609 650.922 258.416C650.922 258.416 651.652 265.562 652.495 273.217C653 277.815 656.627 287.192 657.411 298.137C658.195 309.081 656.137 321.59 657.363 326.05C664.772 353.001 713.396 350.53 715.938 318.499C717.36 300.642 706.542 306.278 706.251 263.076Z" fill="#282828"/>
<path d="M683.647 258.74C683.187 262.954 681.498 266.989 678.791 270.076C676.946 272.18 674.611 273.916 672.352 275.595C669.868 277.444 667.3 279.353 665.31 281.79C662.952 284.68 661.548 288.131 660.191 291.471C659.418 293.369 658.619 295.333 657.658 297.158C653.474 305.09 645.652 311.362 636.198 314.367C627.532 317.121 617.905 317.153 608.254 314.49L607.967 315.531C617.134 318.06 626.318 318.196 634.664 315.941C635.291 315.773 635.909 315.589 636.524 315.395C646.248 312.302 654.299 305.839 658.615 297.659C659.602 295.786 660.409 293.797 661.191 291.875C662.52 288.609 663.894 285.233 666.149 282.468C668.054 280.135 670.568 278.264 672.998 276.457C675.301 274.744 677.683 272.972 679.603 270.78C682.37 267.626 684.115 263.531 684.662 259.239C684.368 259.101 684.018 258.926 683.647 258.74Z" fill="#AFBDF9"/>
<path d="M687.263 289.949L675.034 291.411L677.252 309.958L689.481 308.496L687.263 289.949Z" fill="#FFEBD3"/>
<path d="M662.165 239.429C662.476 245.116 658.77 252.199 652.579 256.221C652.415 257.771 653.869 272.382 653.869 272.382C654.402 278.056 662.083 299.414 680.173 297.712C693.304 296.476 702.886 284.864 701.655 271.77L700.918 263.932C679.515 261.454 667.194 246.961 662.165 239.429Z" fill="#FFEBD3"/>
<path d="M678.333 278.932C678.798 278.846 679.245 279.189 679.26 279.662C679.355 282.507 677.359 285.071 674.475 285.607C671.592 286.142 668.808 284.466 667.874 281.779C667.719 281.332 668.013 280.853 668.477 280.766L678.333 278.932Z" fill="white"/>
<path d="M682.609 329.357L686.487 327.074C690.761 323.676 693.008 318.313 691.839 312.956L690.42 306.463C690.027 304.668 688.789 303.128 687.007 302.374C686.979 302.361 686.951 302.35 686.923 302.337C683.562 300.918 679.553 301.454 676.529 303.594L645.308 326.464L602.432 315.155L594.959 321.27L646.766 350.458L682.609 329.357Z" fill="#F2B657"/>
<path d="M689.526 301.04L684.344 300.795C681.659 300.668 677.808 302.007 675.829 303.826C668.055 310.973 652.894 318.324 650.801 332.349C647.356 355.424 666.913 385.688 635.593 392.621C601.622 400.143 582.537 410.534 573.966 416.254C571.026 418.215 570.853 422.475 573.588 424.713L596.473 443.455C600.799 446.997 606.629 448.043 611.954 446.332C649.345 434.32 676.754 450.676 694.768 421.172C708.506 398.669 697.848 382.83 698.473 358.74C699.051 336.423 704.641 317.648 704.641 317.648C705.052 308.889 698.287 301.454 689.526 301.04Z" fill="#FDCB6E"/>
<path d="M601.752 324.728C601.752 324.728 593.89 322.873 592.382 317.36C590.874 311.848 592.795 303.024 592.795 303.024L607.966 318.721L601.752 324.728Z" fill="#F7DDCB"/>
<path d="M693.943 336.466L697.885 334.015C702.216 330.336 704.428 324.454 703.132 318.517L701.551 311.281C701.112 309.267 699.758 307.576 697.894 306.701C694.416 305.075 690.308 305.595 687.241 307.905L655.577 332.611L611.334 319.359L603.766 325.982L647.583 353.02C653.657 356.768 661.329 356.755 667.39 352.986L693.943 336.466Z" fill="#FFD188"/>
<path d="M697.92 263.494C697.695 263.453 697.142 263.352 696.662 263.259C698.349 267.479 698.937 271.936 698.289 276.126C697.403 281.884 694.09 287.174 689.426 290.274C687.098 291.823 684.389 292.892 681.771 293.924C678.892 295.06 675.914 296.236 673.358 298.069C670.328 300.244 668.073 303.212 665.891 306.083C664.649 307.714 663.366 309.401 661.964 310.913C655.858 317.479 646.671 321.495 636.759 321.933C627.674 322.333 618.371 319.855 609.748 314.768L609.2 315.699C617.39 320.531 626.223 323.056 634.867 323.056C635.515 323.056 636.161 323.041 636.805 323.013C647 322.562 656.456 318.421 662.755 311.649C664.196 310.098 665.494 308.39 666.751 306.737C668.885 303.932 671.092 301.029 673.989 298.948C676.436 297.195 679.35 296.043 682.169 294.931C684.839 293.877 687.601 292.788 690.027 291.175C694.935 287.909 698.425 282.347 699.356 276.292C700.002 272.119 699.488 267.702 697.92 263.494Z" fill="#AFBDF9"/>
<path d="M587.563 297.438L600.914 315.037C601.031 315.191 601.191 315.303 601.374 315.359L610.202 318.094C611.071 318.364 611.76 317.34 611.183 316.636L596.864 299.153C596.761 299.025 596.622 298.928 596.467 298.872L588.607 296.019C587.747 295.71 587.01 296.71 587.563 297.438Z" fill="#282828"/>
<path d="M607.526 327.532C607.526 327.532 599.663 325.676 598.156 320.164C597.21 316.702 597.614 311.935 598.046 308.867C598.225 307.595 599.789 307.092 600.683 308.016L605.344 312.837C605.344 312.837 606.787 310.423 607.513 310.669C608.725 311.083 608.163 315.753 608.163 315.753L613.74 321.523L607.526 327.532Z" fill="#F9E8CA"/>
<path d="M756.49 185.287C740.787 185.287 728.013 198.061 728.013 213.765C728.013 219.324 729.613 224.694 732.646 229.33L728.136 242.862L741.994 238.242C746.401 240.857 751.401 242.238 756.49 242.238C772.193 242.238 784.968 229.463 784.968 213.76C784.968 198.061 772.193 185.287 756.49 185.287ZM756.49 240.08C751.637 240.08 746.865 238.719 742.694 236.142L742.264 235.876L731.551 239.447L735.033 229.003L734.73 228.561C731.75 224.184 730.173 219.067 730.173 213.765C730.173 199.254 741.977 187.447 756.49 187.447C771.001 187.447 782.808 199.252 782.808 213.765C782.808 228.273 771.003 240.08 756.49 240.08Z" fill="#F2B657"/>
<path d="M767.923 211.056L751.984 203.088C749.971 202.082 747.604 203.546 747.604 205.795V221.733C747.604 223.984 749.971 225.446 751.984 224.44L767.923 216.472C770.154 215.355 770.154 212.171 767.923 211.056Z" fill="#F2B657"/>
<path d="M491.7 25.1074C475.997 25.1074 463.223 37.8817 463.223 53.5849C463.223 59.1447 464.823 64.5145 467.856 69.1498L463.346 82.6822L477.205 78.062C481.611 80.6777 486.611 82.0601 491.7 82.0601C507.404 82.0601 520.178 69.2859 520.178 53.5827C520.176 37.8838 507.401 25.1074 491.7 25.1074ZM491.7 79.9023C486.845 79.9023 482.073 78.5415 477.904 75.9646L477.475 75.6989L466.761 79.2694L470.243 68.8258L469.941 68.383C466.96 64.0069 465.383 58.8898 465.383 53.5849C465.383 39.074 477.187 27.2674 491.7 27.2674C506.213 27.2674 518.018 39.0718 518.018 53.5849C518.016 68.0957 506.211 79.9023 491.7 79.9023Z" fill="#F2B657"/>
<path d="M472.692 50.0234C470.725 50.0234 469.131 51.6175 469.131 53.5853C469.131 55.553 470.725 57.1471 472.692 57.1471C474.66 57.1471 476.254 55.553 476.254 53.5853C476.256 51.6175 474.66 50.0234 472.692 50.0234Z" fill="#F2B657"/>
<path d="M485.365 50.0234C483.397 50.0234 481.803 51.6175 481.803 53.5853C481.803 55.553 483.397 57.1471 485.365 57.1471C487.333 57.1471 488.927 55.553 488.927 53.5853C488.927 51.6175 487.333 50.0234 485.365 50.0234Z" fill="#F2B657"/>
<path d="M498.035 50.0234C496.068 50.0234 494.474 51.6175 494.474 53.5853C494.474 55.553 496.068 57.1471 498.035 57.1471C500.003 57.1471 501.597 55.553 501.597 53.5853C501.597 51.6175 500.003 50.0234 498.035 50.0234Z" fill="#F2B657"/>
<path d="M510.708 50.0234C508.74 50.0234 507.146 51.6175 507.146 53.5853C507.146 55.553 508.74 57.1471 510.708 57.1471C512.676 57.1471 514.27 55.553 514.27 53.5853C514.27 51.6175 512.674 50.0234 510.708 50.0234Z" fill="#F2B657"/>
<path d="M66.3984 508.692C66.3984 524.396 79.1726 537.17 94.8758 537.17C99.9626 537.17 104.965 535.789 109.372 533.172L123.23 537.792L118.72 524.259C121.753 519.622 123.353 514.252 123.353 508.692C123.353 492.989 110.579 480.215 94.8758 480.215C79.1726 480.215 66.3984 492.989 66.3984 508.692ZM68.5584 508.692C68.5584 494.181 80.3628 482.375 94.8758 482.375C109.387 482.375 121.193 494.179 121.193 508.692C121.193 513.997 119.619 519.114 116.636 523.49L116.333 523.933L119.815 534.377L109.102 530.806L108.672 531.072C104.501 533.649 99.7293 535.01 94.8758 535.01C80.3628 535.008 68.5584 523.203 68.5584 508.692Z" fill="#F2B657"/>
<path d="M107.102 520.918H82.6482C80.8402 520.918 79.3736 519.452 79.3736 517.644V500.361C79.3736 498.554 80.8402 497.087 82.6482 497.087H107.102C108.909 497.087 110.376 498.554 110.376 500.361V517.644C110.376 519.454 108.909 520.918 107.102 520.918Z" fill="#FFD188"/>
<path d="M110.376 517.644V513.205L106.251 506.667C105.561 505.574 103.993 505.501 103.203 506.524L95.5542 516.447C94.6945 517.562 93.0205 517.588 92.1306 516.497L87.3916 510.708C86.668 509.825 85.3201 509.823 84.5922 510.7L79.3715 517.003V517.644C79.3715 519.452 80.8381 520.919 82.646 520.919H107.099C108.909 520.919 110.376 519.454 110.376 517.644Z" fill="#F2B657"/>
<path d="M98.4679 504.757C98.4679 506.742 96.8587 508.352 94.8737 508.352C92.8886 508.352 91.2794 506.742 91.2794 504.757C91.2794 502.772 92.8886 501.163 94.8737 501.163C96.8609 501.163 98.4679 502.772 98.4679 504.757Z" fill="#F2B657"/>
</svg>
