<svg width="1080" height="1080" viewBox="0 0 1080 1080" fill="none" xmlns="http://www.w3.org/2000/svg">
<path d="M1080.03 0H0.0322266V1080H1080.03V0Z" fill="white"/>
<path d="M993.676 684.132C984.599 684.121 975.521 687.575 968.598 694.5C962.509 700.589 959.107 708.346 958.383 716.301C947.212 713.115 935.433 711.374 923.24 711.374C895.368 711.374 869.597 720.314 848.582 735.445C846.854 731.147 844.253 727.116 840.769 723.632C826.943 709.806 804.524 709.806 790.698 723.632C789.454 724.876 788.363 726.209 787.344 727.578C757.605 677.503 703.007 643.921 640.542 643.921C628.068 643.921 615.92 645.295 604.206 647.837C590.844 566.92 520.59 505.189 435.886 505.189C358.903 505.189 293.851 556.174 272.594 626.212C270.037 623.801 266.598 622.313 262.805 622.313C254.915 622.313 248.517 628.711 248.517 636.601C248.517 638.96 249.098 641.18 250.111 643.142C212.52 648.097 179.939 668.874 159.265 698.591C147.725 683.091 129.261 673.047 108.451 673.047C86.063 673.047 66.4027 684.678 55.147 702.218C52.5679 699.686 49.0385 698.12 45.1397 698.12C37.2492 698.12 30.8513 704.518 30.8513 712.409C30.8513 713.517 30.9895 714.59 31.2293 715.625C24.1877 713.543 16.74 712.409 9.02448 712.409C5.97024 712.409 2.96352 712.603 0 712.942V1078.76H1080V561.362C1030.08 580.031 994.388 627.858 993.676 684.132Z" fill="white"/>
<path d="M452.051 380.306C448.757 380.306 445.843 381.815 443.869 384.146C440.841 373.597 431.229 365.831 419.707 365.831C411.054 365.831 403.429 370.195 398.883 376.83C392.822 357.427 374.714 343.344 353.313 343.344C339.457 343.344 327.019 349.284 318.299 358.712C305.599 328.142 275.473 306.635 240.306 306.635C196.277 306.635 160.157 340.341 156.252 383.353C154.312 381.474 151.679 380.306 148.765 380.306C142.814 380.306 137.991 385.129 137.991 391.08H324.751H394.461H401.047H441.277H444.953H462.823C462.825 385.129 458.002 380.306 452.051 380.306Z" fill="#D4DCFF"/>
<path d="M318.172 358.425C305.4 328.008 275.361 306.635 240.304 306.635C231.608 306.635 223.227 307.967 215.337 310.41C218.046 309.944 272.514 301.369 298.506 359.98C301.46 366.644 310.427 367.864 314.935 362.138C315.954 360.844 317.034 359.607 318.172 358.425Z" fill="#E6EBFF"/>
<path d="M398.882 376.831C392.821 357.427 374.714 343.344 353.312 343.344C346.426 343.344 339.892 344.813 333.991 347.446C334.473 347.312 373.102 336.646 392.287 379.127C393.275 381.313 396.374 381.38 397.456 379.237C397.862 378.423 398.335 377.606 398.882 376.831Z" fill="#E6EBFF"/>
<path d="M443.868 384.146C440.84 373.597 431.228 365.831 419.707 365.831C416.296 365.831 413.052 366.518 410.086 367.745C415.922 366.3 431.895 364.546 440.218 385.416C440.7 386.621 442.341 386.695 442.953 385.548C443.214 385.055 443.518 384.574 443.868 384.146Z" fill="#E6EBFF"/>
<path d="M535.833 919.144C572.242 919.144 601.757 889.629 601.757 853.221C601.757 816.813 572.242 787.298 535.833 787.298C499.425 787.298 469.91 816.813 469.91 853.221C469.91 889.629 499.425 919.144 535.833 919.144Z" fill="#5A54D3"/>
<path d="M876.526 538.509C791.694 446.735 670.367 389.173 535.833 389.173C401.3 389.173 279.973 446.737 195.141 538.509C182.818 551.841 183.673 572.642 197.184 584.768C210.308 596.546 230.517 595.732 242.475 582.772C315.466 503.662 419.962 454.038 535.833 454.038C651.704 454.038 756.203 503.662 829.191 582.772C841.149 595.734 861.358 596.546 874.482 584.768C887.993 572.642 888.848 551.839 876.526 538.509Z" fill="#5A54D3"/>
<path d="M535.833 523.272C440.739 523.272 354.924 563.721 294.66 628.307C282.37 641.478 283.554 662.275 296.963 674.308C310.011 686.018 330.132 685.361 342.094 672.541C390.506 620.65 459.434 588.137 535.833 588.137C612.234 588.137 681.162 620.647 729.574 672.539C741.534 685.359 761.657 686.016 774.705 674.306C788.114 662.273 789.3 641.476 777.008 628.305C716.742 563.721 630.929 523.272 535.833 523.272Z" fill="#5A54D3"/>
<path d="M535.833 653.52C479.323 653.52 428.233 677.125 391.876 714.981C379.283 728.092 380.365 749.15 393.893 761.291C406.875 772.94 426.738 772.225 438.847 759.671C463.38 734.233 497.785 718.383 535.833 718.383C573.882 718.383 608.286 734.233 632.819 759.671C644.928 772.227 664.792 772.942 677.773 761.291C691.304 749.15 692.384 728.092 679.793 714.981C643.434 677.125 592.345 653.52 535.833 653.52Z" fill="#5A54D3"/>
<path d="M535.833 906.502C572.242 906.502 601.757 876.987 601.757 840.578C601.757 804.17 572.242 774.655 535.833 774.655C499.425 774.655 469.91 804.17 469.91 840.578C469.91 876.987 499.425 906.502 535.833 906.502Z" fill="#5A54D3"/>
<path d="M876.526 525.867C791.694 434.095 670.367 376.531 535.833 376.531C401.3 376.531 279.973 434.095 195.141 525.867C182.818 539.198 183.673 559.999 197.184 572.125C210.308 583.904 230.517 583.089 242.475 570.129C315.466 491.019 419.962 441.396 535.833 441.396C651.704 441.396 756.203 491.019 829.191 570.129C841.149 583.092 861.358 583.904 874.482 572.125C887.993 559.999 888.848 539.196 876.526 525.867Z" fill="#5A54D3"/>
<path d="M535.833 510.63C440.739 510.63 354.924 551.078 294.66 615.664C282.37 628.836 283.554 649.633 296.963 661.666C310.011 673.375 330.132 672.719 342.094 659.899C390.506 608.007 459.434 575.495 535.833 575.495C612.234 575.495 681.162 608.005 729.574 659.899C741.534 672.719 761.657 673.375 774.705 661.666C788.114 649.633 789.3 628.836 777.008 615.664C716.742 551.078 630.929 510.63 535.833 510.63Z" fill="#5A54D3"/>
<path d="M535.833 640.878C479.323 640.878 428.233 664.482 391.876 702.338C379.283 715.45 380.365 736.507 393.893 748.649C406.875 760.298 426.738 759.583 438.847 747.029C463.38 721.59 497.785 705.74 535.833 705.74C573.882 705.74 608.286 721.59 632.819 747.029C644.928 759.585 664.792 760.3 677.773 748.649C691.304 736.507 692.384 715.45 679.793 702.338C643.434 664.482 592.345 640.878 535.833 640.878Z" fill="#5A54D3"/>
<path d="M535.833 893.859C572.242 893.859 601.757 864.344 601.757 827.936C601.757 791.528 572.242 762.013 535.833 762.013C499.425 762.013 469.91 791.528 469.91 827.936C469.91 864.344 499.425 893.859 535.833 893.859Z" fill="#5A54D3"/>
<path d="M876.526 513.224C791.694 421.45 670.367 363.888 535.833 363.888C401.3 363.888 279.973 421.452 195.141 513.224C182.818 526.556 183.673 547.356 197.184 559.483C210.308 571.261 230.517 570.447 242.475 557.487C315.466 478.377 419.962 428.753 535.833 428.753C651.704 428.753 756.203 478.377 829.191 557.487C841.149 570.449 861.358 571.261 874.482 559.483C887.993 547.356 888.848 526.553 876.526 513.224Z" fill="#5A54D3"/>
<path d="M535.833 497.988C440.739 497.988 354.924 538.436 294.66 603.022C282.37 616.194 283.554 636.99 296.963 649.023C310.011 660.733 330.132 660.076 342.094 647.257C390.506 595.363 459.434 562.852 535.833 562.852C612.234 562.852 681.162 595.363 729.574 647.257C741.534 660.076 761.657 660.733 774.705 649.023C788.114 636.99 789.3 616.194 777.008 603.022C716.742 538.436 630.929 497.988 535.833 497.988Z" fill="#5A54D3"/>
<path d="M535.833 628.235C479.323 628.235 428.233 651.84 391.876 689.696C379.283 702.807 380.365 723.865 393.893 736.006C406.875 747.655 426.738 746.94 438.847 734.386C463.38 708.948 497.785 693.098 535.833 693.098C573.882 693.098 608.286 708.948 632.819 734.386C644.928 746.942 664.792 747.657 677.773 736.006C691.304 723.865 692.384 702.807 679.793 689.696C643.434 651.84 592.345 628.235 535.833 628.235Z" fill="#5A54D3"/>
<path d="M535.833 893.503C572.242 893.503 601.757 863.988 601.757 827.579C601.757 791.171 572.242 761.656 535.833 761.656C499.425 761.656 469.91 791.171 469.91 827.579C469.91 863.988 499.425 893.503 535.833 893.503Z" fill="#6C5CE7"/>
<path d="M876.526 512.868C791.694 421.094 670.367 363.532 535.833 363.532C401.3 363.532 279.973 421.096 195.141 512.868C182.818 526.199 183.673 547 197.184 559.126C210.308 570.905 230.517 570.09 242.475 557.13C315.466 478.02 419.962 428.397 535.833 428.397C651.704 428.397 756.203 478.02 829.191 557.13C841.149 570.093 861.358 570.905 874.482 559.126C887.993 547 888.848 526.197 876.526 512.868Z" fill="#6C5CE7"/>
<path d="M535.833 497.631C440.739 497.631 354.924 538.079 294.66 602.665C282.37 615.837 283.554 636.634 296.963 648.667C310.011 660.376 330.132 659.72 342.094 646.9C390.506 595.008 459.434 562.496 535.833 562.496C612.234 562.496 681.162 595.006 729.574 646.9C741.534 659.72 761.657 660.376 774.705 648.667C788.114 636.634 789.3 615.837 777.008 602.665C716.742 538.079 630.929 497.631 535.833 497.631Z" fill="#6C5CE7"/>
<path d="M535.833 627.879C479.323 627.879 428.233 651.483 391.876 689.339C379.283 702.451 380.365 723.508 393.893 735.65C406.875 747.299 426.738 746.584 438.847 734.03C463.38 708.591 497.785 692.741 535.833 692.741C573.882 692.741 608.286 708.591 632.819 734.03C644.928 746.586 664.792 747.299 677.773 735.65C691.304 723.508 692.384 702.451 679.793 689.339C643.434 651.483 592.345 627.879 535.833 627.879Z" fill="#6C5CE7"/>
<g opacity="0.08">
<path d="M717.548 472.21L765.351 424.407C697.626 385.691 619.277 363.532 535.834 363.532C499.606 363.532 464.351 367.742 430.493 375.634L301.556 504.571C367.399 456.684 448.371 428.397 535.834 428.397C601.236 428.394 663.012 444.212 717.548 472.21Z" fill="white"/>
<path d="M615.12 574.635L665.526 524.229C625.693 507.129 581.856 497.631 535.833 497.631C440.739 497.631 354.924 538.079 294.66 602.665C282.37 615.837 283.554 636.634 296.963 648.667C310.011 660.376 330.134 659.72 342.094 646.9C390.506 595.008 459.434 562.496 535.833 562.496C563.446 562.496 590.075 566.762 615.12 574.635Z" fill="white"/>
<path d="M560.363 629.393C552.322 628.404 544.137 627.879 535.832 627.879C479.322 627.879 428.232 651.483 391.875 689.339C379.282 702.451 380.364 723.508 393.892 735.65C406.874 747.299 426.737 746.584 438.846 734.03C452.616 719.752 469.497 708.499 488.386 701.368L560.363 629.393Z" fill="white"/>
<path d="M535.833 761.656C499.424 761.656 469.91 791.17 469.91 827.579C469.91 846.419 477.827 863.401 490.499 875.415L583.669 782.245C571.655 769.573 554.675 761.656 535.833 761.656Z" fill="white"/>
<path d="M812.637 455.412L766.244 501.804C785.179 515.235 802.893 530.273 819.194 546.719L865.014 500.899C848.719 484.479 831.215 469.268 812.637 455.412Z" fill="white"/>
<path d="M669.355 598.693C689.551 610.527 708.056 624.95 724.399 641.515L770.256 595.658C753.941 579.166 735.901 564.392 716.439 551.609L669.355 598.693Z" fill="white"/>
<path d="M570.717 697.333C594.479 703.708 615.664 716.432 632.35 733.565L678.198 687.717C661.778 671.003 642.455 657.153 621.045 647.005L570.717 697.333Z" fill="white"/>
</g>
<path d="M670.608 913.374C665.103 913.374 660.234 915.897 656.931 919.792C651.868 902.162 635.807 889.182 616.548 889.182C602.087 889.182 589.343 896.475 581.742 907.564C571.613 875.134 541.345 851.594 505.578 851.594C482.421 851.594 461.633 861.521 447.057 877.279C425.829 826.186 375.479 790.239 316.703 790.239C243.114 790.239 182.747 846.576 176.217 918.465C172.977 915.325 168.573 913.372 163.704 913.372C153.759 913.372 145.698 921.433 145.698 931.378H457.842H574.352H585.362H652.603H658.746H688.614C688.614 921.435 680.553 913.374 670.608 913.374Z" fill="#AFBDF9"/>
<path d="M446.847 876.803C425.502 825.968 375.295 790.243 316.703 790.243C302.168 790.243 288.163 792.473 274.972 796.553C279.499 795.775 370.534 781.439 413.978 879.4C418.916 890.537 433.902 892.576 441.439 883.005C443.138 880.849 444.944 878.778 446.847 876.803Z" fill="#C0CFF9"/>
<path d="M581.741 907.566C571.613 875.135 541.345 851.596 505.577 851.596C494.069 851.596 483.15 854.052 473.283 858.452C474.087 858.227 538.651 840.4 570.716 911.4C572.367 915.054 577.549 915.165 579.354 911.583C580.039 910.225 580.83 908.862 581.741 907.566Z" fill="#C0CFF9"/>
<path d="M656.931 919.792C651.868 902.162 635.807 889.183 616.548 889.183C610.848 889.183 605.424 890.33 600.467 892.382C610.219 889.967 636.919 887.036 650.829 921.915C651.633 923.931 654.378 924.052 655.398 922.138C655.841 921.315 656.348 920.507 656.931 919.792Z" fill="#C0CFF9"/>
<path d="M542.628 674.053C546.955 674.053 550.778 676.035 553.372 679.094C557.348 665.244 569.967 655.047 585.098 655.047C596.46 655.047 606.471 660.775 612.444 669.488C620.401 644.011 644.178 625.517 672.28 625.517C690.471 625.517 706.803 633.315 718.255 645.696C734.933 605.557 774.489 577.317 820.663 577.317C878.476 577.317 925.903 621.577 931.031 678.053C933.577 675.584 937.035 674.05 940.861 674.05C948.673 674.05 955.007 680.383 955.007 688.196H709.782H618.25H609.601H556.776H551.948H528.484C528.482 680.386 534.815 674.053 542.628 674.053Z" fill="#C6D0F7"/>
<path d="M718.417 645.32C735.185 605.382 774.631 577.317 820.661 577.317C832.08 577.317 843.084 579.069 853.445 582.274C849.888 581.663 778.37 570.401 744.24 647.361C740.36 656.109 728.586 657.712 722.666 650.193C721.331 648.498 719.912 646.871 718.417 645.32Z" fill="#DEE7FF"/>
<path d="M612.441 669.488C620.399 644.011 644.176 625.517 672.278 625.517C681.319 625.517 689.897 627.446 697.649 630.904C697.016 630.727 646.295 616.722 621.103 672.501C619.807 675.372 615.735 675.458 614.316 672.646C613.778 671.577 613.156 670.506 612.441 669.488Z" fill="#DEE7FF"/>
<path d="M553.372 679.094C557.349 665.244 569.967 655.046 585.098 655.046C589.576 655.046 593.838 655.947 597.732 657.558C590.071 655.66 569.095 653.359 558.167 680.761C557.537 682.344 555.379 682.44 554.577 680.936C554.23 680.288 553.83 679.655 553.372 679.094Z" fill="#DEE7FF"/>
<path d="M295.441 685.857L311.356 685.208L310.252 658.103L294.337 658.751L295.441 685.857Z" fill="#F9E8CA"/>
<path d="M292.245 602.207L290.381 599.839C289.327 598.498 289.558 596.556 290.9 595.502C292.241 594.448 294.183 594.679 295.237 596.02L297.626 599.057L297.034 596.15C296.177 591.934 311.448 588.828 312.305 593.044L334.832 618.145C334.867 618.996 334.774 619.819 334.614 620.621C334.854 621.919 335.039 623.236 335.093 624.595L336.093 649.122C336.72 664.521 324.788 677.511 309.348 678.139C288.079 679.006 280.417 653.539 280.145 646.867L279.331 626.867C278.914 616.571 284.143 607.373 292.245 602.207Z" fill="#282828"/>
<path d="M299.622 615.248L334.657 613.821L336.096 649.119C336.1 649.247 336.098 649.374 336.102 649.502L321.635 650.091C307.21 650.679 295.041 639.462 294.453 625.037L294.289 621.033C294.164 617.966 296.553 615.374 299.622 615.248Z" fill="#F9E8CA"/>
<path d="M279.994 646.871L284.74 646.677L284.213 633.745L279.467 633.939C276.882 634.045 274.871 636.227 274.977 638.812L275.121 642.381C275.227 644.966 277.409 646.977 279.994 646.871Z" fill="#F9E8CA"/>
<path d="M319.276 655.079C318.844 655.096 318.514 655.496 318.596 655.919C319.092 658.481 321.399 660.367 324.086 660.259C326.773 660.148 328.92 658.084 329.206 655.487C329.253 655.057 328.892 654.686 328.46 654.705L319.276 655.079Z" fill="white"/>
<path d="M307.162 706.753L303.674 703.914C299.959 699.912 298.544 694.272 300.507 689.151L302.886 682.945C303.544 681.228 305 679.893 306.875 679.416C306.905 679.407 306.933 679.4 306.964 679.394C310.502 678.498 314.383 679.629 317.049 682.2L344.474 709.504L388.564 704.772L395.033 711.941L339.424 733.005L307.162 706.753Z" fill="#F2B657"/>
<path d="M302.551 679.549L307.735 679.338C309.984 679.245 312.85 678.759 314.321 680.463C348.79 720.408 344.948 774.047 344.948 774.047L290.885 783.247L287.332 696.063C286.975 687.3 293.788 679.906 302.551 679.549Z" fill="#FDCB6E"/>
<path d="M386.716 817.058L323.251 803.391C314.695 799.19 308.135 792.3 305.357 780.917L344.825 774.177C344.825 774.177 394.656 789.829 413.789 795.741C415.07 796.136 416.245 796.773 417.276 797.631C418.716 798.83 420.567 800.633 421.01 802.27L448.043 856.149L435.642 856.655C418.077 826.344 405.867 818.68 386.716 817.058Z" fill="#4F4ABC"/>
<path d="M387.798 714.336C387.798 714.336 395.85 713.684 398.168 708.461C400.486 703.238 399.918 694.227 399.918 694.227L382.558 707.461L387.798 714.336Z" fill="#F7DDCB"/>
<g opacity="0.3">
<path d="M330.61 785.895L395.522 807.232C395.542 807.238 395.522 807.232 395.542 807.238C398.276 808.089 400.307 810.476 401.056 813.241L417.5 872.833C419.697 872.623 421.963 872.591 424.203 872.867C435.273 874.226 437.173 881.222 437.173 881.222L437.56 883.626L404.154 884.97L403.207 882.605L401.326 877.401C401.326 877.401 401.376 877.378 401.423 877.354L386.763 836.335C374.134 813.366 302.863 840.66 291.145 792.639L330.61 785.895Z" fill="#CCCCCC"/>
</g>
<path d="M330.609 776.495L398.429 802.391C398.448 802.397 398.429 802.391 398.448 802.397C401.183 803.248 403.213 805.635 403.963 808.4L422.884 876.969L406.166 877.65L389.668 831.493C377.038 808.521 302.86 831.259 291.142 783.236L330.609 776.495Z" fill="#6C5CE7"/>
<path d="M294.887 712.077L291.36 709.059C287.632 704.772 286.329 698.622 288.504 692.948L291.155 686.031C291.891 684.107 293.483 682.638 295.459 682.055C299.142 680.971 303.125 682.102 305.81 684.848L333.398 714.034L379.129 707.586L385.616 715.271L338.23 735.413C331.661 738.206 324.077 737.038 318.651 732.398L294.887 712.077Z" fill="#FFD188"/>
<path d="M405.929 689.492L390.083 704.884C389.945 705.018 389.77 705.105 389.58 705.133L380.441 706.509C379.542 706.645 379.015 705.53 379.689 704.921L396.474 689.79C396.598 689.68 396.747 689.604 396.909 689.572L405.108 687.933C406.007 687.756 406.583 688.855 405.929 689.492Z" fill="#282828"/>
<path d="M381.667 716.241C381.667 716.241 389.72 715.589 392.037 710.366C393.493 707.087 393.811 702.311 393.845 699.214C393.86 697.929 392.389 697.199 391.366 697.976L386.032 702.041C386.032 702.041 384.968 699.436 384.214 699.573C382.952 699.799 382.805 704.502 382.805 704.502L376.425 709.366L381.667 716.241Z" fill="#F9E8CA"/>
<path d="M405.484 876.2L403.132 869.321C403.132 869.321 414.539 861.854 425.827 863.893C437.115 865.932 439.642 875.164 439.642 875.164L405.484 876.2Z" fill="#EABE46"/>
<path d="M431.469 849.719C435.715 847.049 443.599 843.044 450.053 843.431C460.769 844.07 463.748 852.868 463.748 852.868L435.964 857.279L431.469 849.719Z" fill="#EABE46"/>
<path d="M406.646 879.328L440.243 878.333L439.642 875.166L405.478 876.179L406.646 879.328Z" fill="white"/>
<path d="M437.688 860.555L464.297 856.274L463.748 852.868L435.964 857.278L437.688 860.555Z" fill="white"/>
<path d="M339.478 617.75C339.478 617.75 351.555 620.392 351.458 622.046C351.389 623.221 329.834 631.304 318.764 629.252C310.64 627.746 301.594 626.202 290.751 621.02C290.751 621.02 315.243 613.061 339.478 617.75Z" fill="#FFD188"/>
<path d="M279.683 619.852C277.568 600.206 292.017 589.484 308.53 588.903C325.041 588.322 338.055 594.174 339.478 617.75C339.478 617.75 329.709 621.768 311.452 622.26C302.212 622.506 279.683 619.852 279.683 619.852Z" fill="#FDCB6E"/>
<path d="M482.115 300.362C482.115 300.362 489.068 247.751 527.149 244.155L528.48 268.299C528.48 268.299 510.001 271.004 499.343 299.412L482.115 300.362Z" fill="#4F4ABC"/>
<path d="M597.948 300.362C597.948 300.362 590.995 247.751 552.914 244.155L551.581 268.299C551.581 268.299 570.06 271.004 580.717 299.412L597.948 300.362Z" fill="#4F4ABC"/>
<path d="M547.158 243.411H532.908C516.615 243.411 503.409 256.62 503.409 272.91V341.123H576.659V272.91C576.657 256.617 563.449 243.411 547.158 243.411Z" fill="#6C5CE7"/>
<path d="M540.507 246.792H539.556C523.348 246.792 510.416 233.268 511.139 217.074L512.04 192.049C512.483 182.169 520.622 174.386 530.51 174.386H549.957C559.618 174.386 567.569 181.989 568.001 191.64L568.921 217.074C569.647 233.268 556.715 246.792 540.507 246.792Z" fill="#F9E8CA"/>
<path d="M511.664 202.529H508.109C507.223 202.529 506.506 203.247 506.506 204.132V212.206C506.506 213.092 507.223 213.809 508.109 213.809H511.258L511.664 202.529Z" fill="#F9E8CA"/>
<path d="M571.956 202.529H568.398L568.807 213.811H571.958C572.844 213.811 573.561 213.094 573.561 212.208V204.134C573.559 203.247 572.842 202.529 571.956 202.529Z" fill="#F9E8CA"/>
<path d="M543.179 216.955H536.818C531.511 216.955 527.21 221.258 527.21 226.563V244.876C527.21 250.183 531.513 254.483 536.818 254.483H543.179C548.486 254.483 552.789 250.181 552.789 244.876V226.563C552.787 221.258 548.484 216.955 543.179 216.955Z" fill="#F9E8CA"/>
<path d="M570.509 184.904C570.509 177.296 567.548 170.395 562.742 165.233C563.956 163.982 566.269 161.122 564.344 159.098C561.819 156.439 553.05 158.355 553.05 158.355C553.05 158.355 559.605 152.011 553.05 152.111C546.494 152.21 536.722 156.055 536.722 156.055C536.722 156.055 547.734 142.265 528.979 150.771C510.223 159.277 509.584 183.729 509.584 183.729L509.644 183.707C509.627 184.107 509.584 184.5 509.584 184.904V202.529H511.664L512.042 192.051C512.485 182.171 520.624 174.389 530.512 174.389H549.959C559.62 174.389 567.571 181.992 568.003 191.643L568.396 202.529H570.509V184.904Z" fill="#282828"/>
<path d="M568.924 217.075L568.507 205.549C563.971 212.357 557.007 217.425 548.825 219.492C546.805 216.837 543.624 215.116 540.032 215.116C536.44 215.116 533.258 216.837 531.238 219.492C523.056 217.425 516.092 212.355 511.554 205.547L511.139 217.075C510.414 233.268 523.346 246.792 539.556 246.792H540.507C556.715 246.792 569.647 233.268 568.924 217.075Z" fill="#282828"/>
<path d="M544.341 220.44H535.725C535.105 220.44 534.666 221.021 534.802 221.626C535.342 224.017 537.478 225.803 540.034 225.803C542.587 225.803 544.725 224.017 545.265 221.626C545.399 221.021 544.961 220.44 544.341 220.44Z" fill="white"/>
<path d="M540.032 381.347L480.653 335.274H599.41L540.032 381.347Z" fill="#F2B657"/>
<path d="M575.17 355.797H505.983C503.426 355.797 501.283 353.868 501.015 351.325L495.674 300.794C495.363 297.844 497.676 295.273 500.644 295.273H580.512C583.48 295.273 585.793 297.844 585.482 300.794L580.14 351.325C579.87 353.868 577.728 355.797 575.17 355.797Z" fill="#282828"/>
<path d="M568.529 415.649C566.641 419.03 562.181 419.911 559.122 417.535C549.977 410.433 545.445 401.318 548.772 395.361C552.118 389.367 562.358 388.468 573.279 392.611C576.821 393.954 578.26 398.216 576.413 401.525L568.529 415.649Z" fill="#282828"/>
<path d="M559.817 417.963L573.711 392.836C576.918 394.359 578.18 398.366 576.413 401.528L568.529 415.65C566.777 418.786 562.824 419.735 559.817 417.963Z" fill="white"/>
<path d="M556.828 395.225L552.542 402.478C550.84 405.36 547.203 406.442 544.203 404.958L463.47 365.026C454.439 360.559 451.109 349.358 456.234 340.681C461.36 332.006 472.778 329.518 481.049 335.274L554.977 386.723C557.722 388.637 558.53 392.344 556.828 395.225Z" fill="#FDCB6E"/>
<path d="M512.098 415.649C513.986 419.03 518.447 419.911 521.505 417.535C530.651 410.433 535.182 401.318 531.856 395.361C528.51 389.367 518.269 388.468 507.348 392.611C503.806 393.954 502.367 398.216 504.214 401.525L512.098 415.649Z" fill="#282828"/>
<path d="M523.235 395.225L527.521 402.478C529.223 405.36 532.86 406.442 535.86 404.958L616.592 365.026C625.623 360.559 628.954 349.358 623.829 340.681C618.703 332.006 607.285 329.518 599.014 335.274L525.086 386.723C522.341 388.637 521.533 392.344 523.235 395.225Z" fill="#FFD188"/>
<path d="M484.146 300.25C484.146 300.25 485.484 326.448 499.936 341.124L495.089 299.647L484.146 300.25Z" fill="#F9E8CA"/>
<path d="M596.579 300.25C596.579 300.25 595.242 326.448 580.789 341.124L585.634 299.647L596.579 300.25Z" fill="#F9E8CA"/>
<path d="M520.81 417.963L506.917 392.836C503.709 394.359 502.448 398.366 504.214 401.528L512.098 415.65C513.85 418.786 517.803 419.735 520.81 417.963Z" fill="white"/>
<path d="M729.09 575.462L805.032 572.745C813.613 568.598 820.219 561.751 823.068 550.387L783.643 543.393C783.643 543.393 733.713 558.722 714.541 564.513C713.257 564.9 712.078 565.531 711.041 566.382C709.592 567.572 707.73 569.362 707.276 570.998L679.898 624.702L692.297 625.287C710.73 596.915 729.09 575.462 729.09 575.462Z" fill="#FFEBD3"/>
<g opacity="0.3">
<path d="M801.104 548.369L732.736 576.123C732.717 576.129 732.736 576.123 732.717 576.129C729.978 576.963 727.93 579.337 727.165 582.095L710.339 641.579C708.144 641.355 705.876 641.309 703.637 641.571C692.558 642.858 690.612 649.841 690.612 649.841L690.21 652.243L723.608 653.803L724.569 651.444L726.485 646.251C726.485 646.251 726.435 646.228 726.388 646.204L741.311 605.281C754.088 582.391 828.504 603.311 840.529 555.363L801.104 548.369Z" fill="#CCCCCC"/>
</g>
<path d="M797.845 545.803L729.861 571.263C729.842 571.269 734.162 571.68 734.14 571.686C731.401 572.52 729.353 574.894 728.589 577.652L709.227 646.098L722.502 644.111L738.436 600.418C751.213 577.529 825.244 600.742 837.271 552.797L797.845 545.803Z" fill="#FFEBD3"/>
<path d="M722.502 644.111L724.727 637.739C724.727 637.739 714.184 630.738 703.693 632.563C693.202 634.389 690.802 642.942 690.802 642.942L722.502 644.111Z" fill="#282828"/>
<path d="M696.517 618.792C692.45 616.2 684.896 612.301 678.688 612.632C668.383 613.18 665.465 621.62 665.465 621.62L692.149 626.032L696.517 618.792Z" fill="#282828"/>
<path d="M718.29 646.904L693.795 646.094C692.104 646.038 690.771 644.636 690.799 642.943L722.508 644.09C721.849 645.835 720.152 646.967 718.29 646.904Z" fill="white"/>
<path d="M686.963 628.583L668.189 625.438C666.383 625.136 665.163 623.425 665.465 621.619L692.15 626.032C691.147 627.909 689.061 628.935 686.963 628.583Z" fill="white"/>
<path d="M843.25 411.075L842.33 401.297C840.466 381.49 826.968 369.588 811.943 371.003C795.571 372.992 786.058 386.609 787.922 406.416C787.922 406.416 788.652 413.561 789.495 421.216C790 425.815 793.627 435.191 794.411 446.136C795.195 457.081 793.136 469.589 794.363 474.05C801.772 501 850.396 498.529 852.938 466.498C854.359 448.642 843.542 454.277 843.25 411.075Z" fill="#282828"/>
<path d="M820.646 406.74C820.186 410.954 818.496 414.989 815.79 418.076C813.945 420.18 811.61 421.916 809.351 423.595C806.867 425.444 804.299 427.353 802.309 429.79C799.951 432.68 798.547 436.131 797.19 439.471C796.417 441.369 795.618 443.333 794.657 445.158C790.473 453.09 782.651 459.362 773.197 462.367C764.531 465.121 754.904 465.153 745.253 462.49L744.966 463.531C754.133 466.06 763.317 466.196 771.663 463.941C772.29 463.773 772.908 463.589 773.523 463.395C783.247 460.302 791.298 453.839 795.613 445.659C796.601 443.786 797.408 441.797 798.19 439.875C799.519 436.609 800.892 433.233 803.148 430.468C805.053 428.135 807.567 426.264 809.997 424.457C812.299 422.744 814.682 420.972 816.602 418.78C819.369 415.626 821.114 411.531 821.661 407.239C821.367 407.101 821.017 406.926 820.646 406.74Z" fill="#AFBDF9"/>
<path d="M824.263 437.948L812.034 439.41L814.251 457.957L826.48 456.495L824.263 437.948Z" fill="#FFEBD3"/>
<path d="M799.164 387.428C799.475 393.115 795.769 400.198 789.578 404.22C789.414 405.77 790.868 420.381 790.868 420.381C791.401 426.055 799.082 447.413 817.172 445.711C830.303 444.475 839.885 432.863 838.654 419.769L837.917 411.931C816.514 409.453 804.193 394.96 799.164 387.428Z" fill="#FFEBD3"/>
<path d="M815.333 426.932C815.797 426.845 816.244 427.189 816.259 427.662C816.354 430.507 814.359 433.071 811.475 433.606C808.591 434.142 805.807 432.466 804.874 429.779C804.718 429.332 805.012 428.852 805.477 428.766L815.333 426.932Z" fill="white"/>
<path d="M819.609 477.357L823.486 475.074C827.76 471.676 830.007 466.313 828.838 460.956L827.419 454.463C827.026 452.668 825.788 451.128 824.006 450.374C823.978 450.361 823.95 450.35 823.922 450.337C820.561 448.918 816.552 449.454 813.528 451.594L782.308 474.464L739.432 463.155L731.958 469.27L783.766 498.458L819.609 477.357Z" fill="#F2B657"/>
<path d="M826.525 449.039L821.344 448.795C818.659 448.667 814.807 450.007 812.829 451.825C805.055 458.973 789.894 466.323 787.801 480.348C784.356 503.423 803.912 533.687 772.592 540.621C738.622 548.142 719.536 558.534 710.965 564.253C708.026 566.215 707.853 570.474 710.587 572.712L733.473 591.454C737.799 594.997 743.629 596.042 748.953 594.331C786.345 582.319 813.753 598.675 831.768 569.172C845.505 546.669 834.848 530.829 835.472 506.739C836.051 484.422 841.641 465.647 841.641 465.647C842.052 456.888 835.286 449.454 826.525 449.039Z" fill="#FDCB6E"/>
<path d="M738.751 472.728C738.751 472.728 730.889 470.873 729.381 465.36C727.874 459.848 729.794 451.024 729.794 451.024L744.966 466.721L738.751 472.728Z" fill="#F7DDCB"/>
<path d="M830.942 484.465L834.884 482.014C839.215 478.335 841.427 472.454 840.131 466.516L838.55 459.28C838.112 457.267 836.757 455.575 834.893 454.701C831.416 453.074 827.307 453.595 824.24 455.904L792.577 480.61L748.333 467.358L740.765 473.981L784.582 501.02C790.656 504.767 798.329 504.754 804.39 500.985L830.942 484.465Z" fill="#FFD188"/>
<path d="M834.919 411.494C834.694 411.453 834.141 411.351 833.662 411.259C835.349 415.479 835.936 419.935 835.288 424.126C834.403 429.884 831.089 435.174 826.426 438.274C824.097 439.822 821.389 440.892 818.771 441.924C815.892 443.06 812.913 444.235 810.358 446.069C807.327 448.244 805.072 451.212 802.891 454.083C801.649 455.714 800.366 457.4 798.964 458.912C792.857 465.479 783.671 469.494 773.759 469.933C764.674 470.332 755.371 467.855 746.748 462.768L746.199 463.699C754.39 468.531 763.222 471.056 771.866 471.056C772.514 471.056 773.16 471.041 773.804 471.013C783.999 470.561 793.456 466.421 799.754 459.649C801.195 458.098 802.493 456.39 803.75 454.737C805.884 451.931 808.092 449.028 810.988 446.948C813.436 445.194 816.35 444.043 819.168 442.931C821.838 441.877 824.601 440.788 827.026 439.174C831.934 435.908 835.425 430.346 836.355 424.292C837.001 420.119 836.487 415.702 834.919 411.494Z" fill="#AFBDF9"/>
<path d="M724.563 445.437L737.913 463.036C738.03 463.19 738.19 463.302 738.374 463.358L747.201 466.093C748.07 466.363 748.759 465.339 748.182 464.635L733.863 447.152C733.76 447.024 733.622 446.927 733.466 446.871L725.606 444.018C724.746 443.709 724.01 444.709 724.563 445.437Z" fill="#282828"/>
<path d="M744.525 475.531C744.525 475.531 736.662 473.676 735.155 468.164C734.209 464.701 734.613 459.934 735.045 456.867C735.224 455.595 736.788 455.091 737.682 456.016L742.343 460.837C742.343 460.837 743.786 458.422 744.512 458.668C745.724 459.083 745.162 463.753 745.162 463.753L750.739 469.522L744.525 475.531Z" fill="#F9E8CA"/>
<path d="M893.49 333.288C877.787 333.288 865.013 346.062 865.013 361.765C865.013 367.325 866.613 372.695 869.646 377.33L865.136 390.862L878.994 386.242C883.401 388.858 888.401 390.238 893.49 390.238C909.193 390.238 921.968 377.464 921.968 361.761C921.968 346.062 909.193 333.288 893.49 333.288ZM893.49 388.08C888.637 388.08 883.865 386.72 879.694 384.143L879.264 383.877L868.551 387.447L872.033 377.004L871.73 376.561C868.749 372.185 867.173 367.068 867.173 361.765C867.173 347.254 878.977 335.448 893.49 335.448C908.001 335.448 919.808 347.252 919.808 361.765C919.808 376.274 908.003 388.08 893.49 388.08Z" fill="#F2B657"/>
<path d="M904.923 359.056L888.984 351.088C886.971 350.082 884.604 351.546 884.604 353.795V369.733C884.604 371.984 886.971 373.446 888.984 372.44L904.923 364.472C907.154 363.355 907.154 360.171 904.923 359.056Z" fill="#F2B657"/>
<path d="M628.7 173.108C612.997 173.108 600.223 185.882 600.223 201.585C600.223 207.145 601.823 212.515 604.856 217.15L600.346 230.683L614.204 226.062C618.611 228.678 623.611 230.061 628.7 230.061C644.403 230.061 657.178 217.286 657.178 201.583C657.175 185.884 644.401 173.108 628.7 173.108ZM628.7 227.903C623.844 227.903 619.073 226.542 614.904 223.965L614.474 223.699L603.761 227.27L607.243 216.826L606.94 216.384C603.959 212.007 602.383 206.89 602.383 201.585C602.383 187.074 614.187 175.268 628.7 175.268C643.213 175.268 655.018 187.072 655.018 201.585C655.015 216.096 643.211 227.903 628.7 227.903Z" fill="#F2B657"/>
<path d="M609.692 198.024C607.724 198.024 606.13 199.618 606.13 201.586C606.13 203.553 607.724 205.147 609.692 205.147C611.659 205.147 613.254 203.553 613.254 201.586C613.256 199.618 611.659 198.024 609.692 198.024Z" fill="#F2B657"/>
<path d="M622.365 198.024C620.397 198.024 618.803 199.618 618.803 201.586C618.803 203.553 620.397 205.147 622.365 205.147C624.332 205.147 625.926 203.553 625.926 201.586C625.926 199.618 624.332 198.024 622.365 198.024Z" fill="#F2B657"/>
<path d="M635.035 198.024C633.068 198.024 631.474 199.618 631.474 201.586C631.474 203.553 633.068 205.147 635.035 205.147C637.003 205.147 638.597 203.553 638.597 201.586C638.597 199.618 637.003 198.024 635.035 198.024Z" fill="#F2B657"/>
<path d="M647.707 198.024C645.74 198.024 644.146 199.618 644.146 201.586C644.146 203.553 645.74 205.147 647.707 205.147C649.675 205.147 651.269 203.553 651.269 201.586C651.269 199.618 649.673 198.024 647.707 198.024Z" fill="#F2B657"/>
<path d="M203.398 656.693C203.398 672.396 216.173 685.17 231.876 685.17C236.963 685.17 241.965 683.79 246.372 681.172L260.23 685.792L255.72 672.26C258.753 667.622 260.353 662.252 260.353 656.693C260.353 640.989 247.579 628.215 231.876 628.215C216.173 628.215 203.398 640.989 203.398 656.693ZM205.558 656.693C205.558 642.182 217.363 630.375 231.876 630.375C246.387 630.375 258.193 642.18 258.193 656.693C258.193 661.998 256.619 667.115 253.636 671.491L253.333 671.934L256.815 682.377L246.102 678.807L245.672 679.072C241.501 681.649 236.729 683.01 231.876 683.01C217.363 683.008 205.558 671.203 205.558 656.693Z" fill="#F2B657"/>
<path d="M244.102 668.918H219.649C217.841 668.918 216.374 667.452 216.374 665.644V648.362C216.374 646.554 217.841 645.087 219.649 645.087H244.102C245.91 645.087 247.377 646.554 247.377 648.362V665.644C247.377 667.454 245.91 668.918 244.102 668.918Z" fill="#FFD188"/>
<path d="M247.376 665.644V661.205L243.25 654.667C242.561 653.574 240.993 653.501 240.202 654.524L232.554 664.447C231.694 665.562 230.02 665.588 229.13 664.497L224.391 658.708C223.668 657.825 222.32 657.823 221.592 658.7L216.371 665.003V665.644C216.371 667.452 217.838 668.919 219.646 668.919H244.099C245.909 668.919 247.376 667.454 247.376 665.644Z" fill="#F2B657"/>
<path d="M235.468 652.758C235.468 654.743 233.859 656.352 231.874 656.352C229.888 656.352 228.279 654.743 228.279 652.758C228.279 650.773 229.888 649.164 231.874 649.164C233.861 649.164 235.468 650.773 235.468 652.758Z" fill="#F2B657"/>
</svg>
