<?xml version="1.0" encoding="UTF-8"?>
<svg id="Layer_2" data-name="Layer 2" xmlns="http://www.w3.org/2000/svg" viewBox="0 0 531.16 122.58">
  <defs>
    <style>
      .cls-1 {
        fill: #fff;
      }

      .cls-2 {
        fill: #c44141;
      }
    </style>
  </defs>
  <g id="Layer_1-2" data-name="Layer 1">
    <g>
      <g>
        <g>
          <path class="cls-1" d="M17.35,0c-.74,0-1.47,0-2.21,0-.99,.33-1.31,1.04-1.3,2.06,.03,5.62,.01,11.24,.01,16.86,0,1.91,.34,2.27,2.23,2.31,7.1,.12,14.06,1.16,20.83,3.34,12.12,3.89,22.53,10.52,31.14,19.9,8.25,8.99,13.86,19.43,16.81,31.28,1.36,5.48,1.98,11.04,2.09,16.68,.03,1.47,.53,1.91,1.98,1.91,5.74,0,11.49,0,17.23,.01,.91,0,1.62-.26,2.06-1.09v-1.29c-.12-1.95-.23-3.91-.36-5.86-.5-7.48-1.95-14.77-4.27-21.89-4.13-12.67-10.71-23.94-19.68-33.79-7.92-8.7-17.16-15.67-27.73-20.86C45.51,4.32,34.25,1.22,22.39,.35,20.71,.23,19.03,.12,17.35,0Z"/>
          <path class="cls-1" d="M13.85,41.22c0,2.55,0,5.1,0,7.65,0,2.39,.2,2.61,2.63,2.67,4.99,.12,9.84,1.05,14.41,3.04,13.78,5.99,22.21,16.39,25.12,31.15,.42,2.12,.46,4.33,.61,6.5,.11,1.66,.51,2.11,2.2,2.11,5.47,0,10.93-.03,16.4,.02,1.42,.01,2.22-.61,2.15-2.28-.2-5.02-.76-9.98-2.04-14.83-2.42-9.16-6.68-17.38-12.86-24.57-8.55-9.95-19.18-16.6-31.89-19.91-4.87-1.27-9.82-1.84-14.84-1.92-1.33-.02-1.88,.54-1.89,1.91,0,2.83,0,5.65,0,8.48Z"/>
        </g>
        <g>
          <polygon class="cls-2" points="0 79.14 18.53 89.03 38.73 68.77 0 79.14"/>
          <polygon class="cls-1" points="18.52 88.98 28.36 107.5 38.73 68.77 18.52 88.98"/>
        </g>
      </g>
      <g>
        <g>
          <path class="cls-1" d="M137.94,77.46V18.99c0-6.59-5.58-11.71-9.61-12.9v-1.1h23.43l49.23,59.21V20.27c0-7.59-4.03-12.72-10.07-14.18v-1.1h22.88v1.1c-6.04,1.46-10.07,6.59-10.07,14.18V92.74h-2.75L140.68,20.36v57.1c0,7.6,4.03,12.72,10.07,14.18v1.1h-22.88v-1.1c6.04-1.46,10.07-6.59,10.07-14.18Z"/>
          <path class="cls-1" d="M235.03,61.45c7.05-1.1,12.54-4.03,12.54-12.08,0-4.58-2.01-9.7-7.32-9.7-4.48,0-7.78,2.38-7.78,7.14,0,2.29,1.19,4.21,1.19,6.41,0,4.03-4.48,5.95-7.96,5.95-4.39,0-8.14-3.02-8.14-7.69,0-11.16,15.83-14.55,24.52-14.55,11.8,0,22.88,4.21,22.88,17.84v22.88c0,2.65,1.1,6.22,4.3,6.22,1.83,0,3.39-1.28,4.39-2.75l1.37,.73c-2.29,7.41-8.6,10.89-16.11,10.89-4.39,0-9.06-1.28-10.89-5.77-5.12,2.75-10.71,6.59-16.75,6.59-9.06,0-16.38-4.12-16.38-14.09,0-11.62,10.16-16.38,20.13-18.03Zm12.54,22.14v-23.43c-7.96,2.29-14.37,7.32-14.37,16.29,0,5.12,2.65,9.52,8.24,9.52,2.29,0,4.3-1.1,6.13-2.38Z"/>
          <path class="cls-1" d="M282.98,40.58h-6.77v-2.93c5.22-1.28,19.95-11.71,22.33-17.2h1.83v17.2h9.15v2.93h-9.15l-.09,37.06c0,4.12,2.1,6.22,4.39,6.22,1.56,0,3.2-.92,4.39-2.75l1.37,.73c-1.74,5.49-6.5,10.89-16.11,10.89-4.58,0-11.35-1.92-11.35-10.07V40.58Z"/>
          <path class="cls-1" d="M343.2,36.92c16.1,0,24.34,11.07,24.34,24.52l-36.24,3.02c1.01,10.71,6.68,19.03,18.21,18.67,8.05-.27,15.37-3.93,20.86-12.08l1.19,.55c-5.31,13.36-15.37,21.87-29.28,21.87-17.75,0-28.37-10.61-28.37-28.37s11.9-28.18,29.28-28.18Zm7.59,22.14c1.37-9.33-1.28-19.49-7.87-19.49-9.24,0-11.99,12.81-11.8,21.87l19.67-2.38Z"/>
          <path class="cls-1" d="M384.1,103.08c3.84-.09,7.87,1.46,8.24,5.49,.18,2.1,1.83,4.94,4.03,7.14,2.47,2.47,6.59,3.75,12.44,3.75,5.4,0,10.71-1.46,13.36-3.84,2.01-1.74,3.02-3.66,3.02-5.4,0-2.93-2.2-4.94-10.89-4.85-6.31,.09-25.9-.73-32.39-4.58-3.29-1.92-5.22-4.94-5.12-9.88,.09-5.95,3.93-9.52,8.88-11.26-5.49-4.12-8.88-10.25-8.88-18.3,0-15.28,12.17-24.43,28.28-24.43,4.12,0,7.96,.64,11.44,1.74,.73-7.6,5.03-15.65,12.45-16.84,13.82-2.2,13.82,15.1,5.76,15.28-1.92,.09-3.75-1.46-6.68-1.46-3.2,0-6.22,1.74-7.69,4.58,7.96,3.93,12.99,11.26,12.99,21.14,0,15.19-12.08,23.88-28.28,23.88-6.31,0-11.99-1.37-16.65-3.84-1.65,1.01-2.65,2.38-2.01,4.21,1.01,2.93,10.25,2.56,20.31,2.84,10.43,.27,26.9,.18,26.63,15.01-.27,14.64-16.65,19.4-31.2,19.12-6.04-.09-16.47-.37-22.05-4.85-6.77-5.49-3.11-14.46,4.03-14.64Zm20.96-20.59c8.05,0,9.97-12.99,9.97-21.14s-1.74-21.69-9.97-21.69-9.97,13.63-9.97,21.69,1.92,21.14,9.97,21.14Z"/>
          <path class="cls-1" d="M469.85,36.92c3.84,0,7.32,.64,10.34,1.83-2.93-4.39-4.67-9.24-4.67-15.37,0-13.63,14.92-21.14,26.9-21.14,8.42,0,18.67,4.3,18.67,14.09v21.32h9.15v2.93h-9.15l-.09,37.06c0,2.65,1.19,6.22,4.39,6.22,1.83,0,3.48-1.28,4.39-2.75l1.37,.73c-2.29,7.41-8.6,10.89-16.11,10.89-6.31,0-11.35-3.2-11.35-10.07V40.58h-6.77v-2.93c8.42-2.1,20.41-11.99,20.41-21.32,0-7.96-8.42-11.35-15.19-11.35-10.16,0-23.88,6.5-23.88,18.21,0,7.78,3.93,14.46,8.97,20.13,4.48,4.3,6.95,10.61,6.95,18.12l-36.24,3.02c.92,9.88,6.04,18.67,17.57,18.67,9.06,0,16.47-4.58,21.5-12.08l1.19,.55c-5.12,12.81-14.92,21.87-29.28,21.87-17.75,0-28.37-10.61-28.37-28.37s12.08-28.18,29.28-28.18Zm7.59,22.14c.28-1.56,.37-3.2,.37-4.76,0-5.03-1.56-14.73-8.24-14.73-9.97,0-11.8,14.46-11.8,21.87l19.67-2.38Z"/>
        </g>
        <g>
          <path class="cls-2" d="M384.1,103.08c3.84-.09,7.87,1.46,8.24,5.49,.18,2.1,1.83,4.94,4.03,7.14,2.47,2.47,6.59,3.75,12.44,3.75,5.4,0,10.71-1.46,13.36-3.84,2.01-1.74,3.02-3.66,3.02-5.4,0-2.93-2.2-4.94-10.89-4.85-6.31,.09-25.9-.73-32.39-4.58-3.29-1.92-5.22-4.94-5.12-9.88,.09-5.95,3.93-9.52,8.88-11.26-5.49-4.12-8.88-10.25-8.88-18.3,0-15.28,12.17-24.43,28.28-24.43,4.12,0,7.96,.64,11.44,1.74,.73-7.6,5.03-15.65,12.45-16.84,13.82-2.2,13.82,15.1,5.76,15.28-1.92,.09-3.75-1.46-6.68-1.46-3.2,0-6.22,1.74-7.69,4.58,7.96,3.93,12.99,11.26,12.99,21.14,0,15.19-12.08,23.88-28.28,23.88-6.31,0-11.99-1.37-16.65-3.84-1.65,1.01-2.65,2.38-2.01,4.21,1.01,2.93,10.25,2.56,20.31,2.84,10.43,.27,26.9,.18,26.63,15.01-.27,14.64-16.65,19.4-31.2,19.12-6.04-.09-16.47-.37-22.05-4.85-6.77-5.49-3.11-14.46,4.03-14.64Zm20.96-20.59c8.05,0,9.97-12.99,9.97-21.14s-1.74-21.69-9.97-21.69-9.97,13.63-9.97,21.69,1.92,21.14,9.97,21.14Z"/>
          <path class="cls-2" d="M469.85,36.92c3.84,0,7.32,.64,10.34,1.83-2.93-4.39-4.67-9.24-4.67-15.37,0-13.63,14.92-21.14,26.9-21.14,8.42,0,18.67,4.3,18.67,14.09v21.32h9.15v2.93h-9.15l-.09,37.06c0,2.65,1.19,6.22,4.39,6.22,1.83,0,3.48-1.28,4.39-2.75l1.37,.73c-2.29,7.41-8.6,10.89-16.11,10.89-6.31,0-11.35-3.2-11.35-10.07V40.58h-6.77v-2.93c8.42-2.1,20.41-11.99,20.41-21.32,0-7.96-8.42-11.35-15.19-11.35-10.16,0-23.88,6.5-23.88,18.21,0,7.78,3.93,14.46,8.97,20.13,4.48,4.3,6.95,10.61,6.95,18.12l-36.24,3.02c.92,9.88,6.04,18.67,17.57,18.67,9.06,0,16.47-4.58,21.5-12.08l1.19,.55c-5.12,12.81-14.92,21.87-29.28,21.87-17.75,0-28.37-10.61-28.37-28.37s12.08-28.18,29.28-28.18Zm7.59,22.14c.28-1.56,.37-3.2,.37-4.76,0-5.03-1.56-14.73-8.24-14.73-9.97,0-11.8,14.46-11.8,21.87l19.67-2.38Z"/>
        </g>
      </g>
    </g>
  </g>
</svg>