<?xml version="1.0" encoding="UTF-8"?>
<svg id="Layer_2" data-name="Layer 2" xmlns="http://www.w3.org/2000/svg" viewBox="0 0 558.7 115.97">
  <defs>
    <style>
      .cls-1 {
        fill: #fff;
      }
    </style>
  </defs>
  <g id="Layer_1-2" data-name="Layer 1">
    <g>
      <g>
        <path class="cls-1" d="M160.79,20.99l31.12,47.08V20.55c0-3.09,.66-5.4,1.99-6.95,1.33-1.54,3.11-2.32,5.37-2.32s4.16,.77,5.5,2.32c1.34,1.54,2.02,3.86,2.02,6.95v62.83c0,7.01-2.91,10.52-8.72,10.52-1.45,0-2.76-.21-3.92-.63-1.16-.42-2.25-1.08-3.27-1.99-1.02-.91-1.96-1.97-2.83-3.19-.87-1.22-1.74-2.46-2.62-3.73l-30.35-46.54v46.81c0,3.05-.71,5.36-2.13,6.92s-3.23,2.34-5.45,2.34-4.12-.79-5.5-2.37c-1.38-1.58-2.07-3.88-2.07-6.89V23.01c0-2.62,.29-4.67,.87-6.16,.69-1.63,1.83-2.97,3.43-4.01,1.6-1.04,3.32-1.55,5.18-1.55,1.45,0,2.7,.24,3.73,.71,1.04,.47,1.94,1.11,2.72,1.91,.78,.8,1.58,1.83,2.4,3.11,.82,1.27,1.66,2.6,2.53,3.98Z"/>
        <path class="cls-1" d="M261.06,85.51c-3.6,2.8-7.08,4.9-10.43,6.29-3.36,1.4-7.13,2.1-11.31,2.1-3.81,0-7.17-.75-10.05-2.26s-5.11-3.55-6.68-6.13c-1.56-2.58-2.34-5.38-2.34-8.39,0-4.07,1.29-7.54,3.87-10.41,2.58-2.87,6.12-4.8,10.63-5.78,.94-.22,3.29-.71,7.03-1.47,3.74-.76,6.95-1.46,9.62-2.1,2.67-.64,5.57-1.41,8.69-2.32-.18-3.92-.97-6.8-2.37-8.64-1.4-1.83-4.3-2.75-8.69-2.75-3.78,0-6.62,.53-8.53,1.58-1.91,1.05-3.54,2.63-4.9,4.74-1.36,2.11-2.33,3.5-2.89,4.17-.56,.67-1.77,1.01-3.62,1.01-1.67,0-3.12-.54-4.33-1.61-1.22-1.07-1.83-2.44-1.83-4.11,0-2.62,.93-5.16,2.78-7.63,1.85-2.47,4.74-4.5,8.66-6.1,3.92-1.6,8.81-2.4,14.66-2.4,6.54,0,11.68,.77,15.42,2.32,3.74,1.54,6.38,3.99,7.93,7.33,1.54,3.34,2.32,7.77,2.32,13.3,0,3.49,0,6.45-.03,8.88-.02,2.43-.05,5.14-.08,8.12,0,2.8,.46,5.71,1.39,8.75,.93,3.03,1.39,4.99,1.39,5.86,0,1.53-.72,2.92-2.15,4.17-1.44,1.25-3.06,1.88-4.88,1.88-1.53,0-3.03-.72-4.52-2.15-1.49-1.43-3.07-3.51-4.74-6.24Zm-.98-21.52c-2.18,.8-5.35,1.64-9.51,2.53-4.16,.89-7.04,1.54-8.64,1.96-1.6,.42-3.13,1.24-4.58,2.45-1.45,1.22-2.18,2.92-2.18,5.09s.85,4.17,2.56,5.75c1.71,1.58,3.94,2.37,6.7,2.37,2.94,0,5.66-.64,8.15-1.93,2.49-1.29,4.31-2.95,5.48-4.99,1.34-2.25,2.02-5.96,2.02-11.12v-2.13Z"/>
        <path class="cls-1" d="M287.82,34.72h1.63v-8.94c0-2.4,.06-4.28,.19-5.64,.13-1.36,.48-2.53,1.06-3.51,.58-1.02,1.42-1.84,2.51-2.48,1.09-.64,2.31-.95,3.65-.95,1.89,0,3.6,.71,5.12,2.13,1.02,.94,1.66,2.1,1.93,3.46,.27,1.36,.41,3.3,.41,5.8v10.14h5.45c2.11,0,3.71,.5,4.82,1.5,1.11,1,1.66,2.28,1.66,3.84,0,2-.79,3.4-2.37,4.2-1.58,.8-3.84,1.2-6.78,1.2h-2.78v27.36c0,2.33,.08,4.11,.25,5.37,.16,1.25,.6,2.27,1.31,3.05,.71,.78,1.86,1.17,3.46,1.17,.87,0,2.05-.15,3.54-.46,1.49-.31,2.65-.46,3.49-.46,1.2,0,2.28,.48,3.24,1.44,.96,.96,1.44,2.15,1.44,3.57,0,2.4-1.31,4.23-3.92,5.5-2.62,1.27-6.38,1.91-11.28,1.91-4.65,0-8.17-.78-10.57-2.34-2.4-1.56-3.97-3.72-4.71-6.48-.74-2.76-1.12-6.45-1.12-11.06v-28.55h-1.96c-2.14,0-3.78-.51-4.9-1.53-1.13-1.02-1.69-2.31-1.69-3.87s.59-2.84,1.77-3.84c1.18-1,2.9-1.5,5.15-1.5Z"/>
        <path class="cls-1" d="M368.03,67.31h-29.1c.04,3.38,.72,6.36,2.04,8.94,1.33,2.58,3.09,4.52,5.29,5.83,2.2,1.31,4.62,1.96,7.27,1.96,1.78,0,3.41-.21,4.88-.63,1.47-.42,2.9-1.07,4.28-1.96,1.38-.89,2.65-1.84,3.81-2.86,1.16-1.02,2.67-2.4,4.52-4.14,.76-.65,1.85-.98,3.27-.98,1.53,0,2.76,.42,3.71,1.25,.94,.84,1.42,2.02,1.42,3.54,0,1.34-.53,2.92-1.58,4.71-1.05,1.8-2.64,3.52-4.77,5.18-2.13,1.65-4.8,3.02-8.01,4.11-3.21,1.09-6.91,1.63-11.09,1.63-9.55,0-16.98-2.72-22.29-8.17-5.3-5.45-7.96-12.84-7.96-22.18,0-4.4,.65-8.47,1.96-12.23,1.31-3.76,3.21-6.98,5.72-9.67,2.51-2.69,5.59-4.75,9.26-6.18,3.67-1.43,7.74-2.15,12.21-2.15,5.81,0,10.8,1.23,14.96,3.68,4.16,2.45,7.27,5.62,9.35,9.51,2.07,3.89,3.11,7.85,3.11,11.88,0,3.74-1.07,6.17-3.21,7.27-2.14,1.11-5.16,1.66-9.05,1.66Zm-29.1-8.45h26.97c-.36-5.09-1.74-8.89-4.11-11.42-2.38-2.52-5.51-3.79-9.4-3.79s-6.75,1.28-9.13,3.84c-2.38,2.56-3.82,6.35-4.33,11.36Z"/>
        <path class="cls-1" d="M446.06,44.31v43.21c0,4.94-.53,9.19-1.58,12.75-1.05,3.56-2.74,6.5-5.07,8.83-2.33,2.32-5.37,4.05-9.13,5.18-3.76,1.13-8.44,1.69-14.03,1.69-5.12,0-9.7-.72-13.73-2.15-4.03-1.44-7.14-3.29-9.32-5.56-2.18-2.27-3.27-4.6-3.27-7,0-1.82,.62-3.3,1.85-4.44,1.23-1.14,2.72-1.72,4.47-1.72,2.18,0,4.09,.96,5.72,2.89,.8,.98,1.63,1.97,2.48,2.97,.85,1,1.8,1.85,2.83,2.56s2.28,1.23,3.73,1.58c1.45,.34,3.12,.52,5.01,.52,3.85,0,6.84-.54,8.96-1.61,2.12-1.07,3.61-2.57,4.47-4.5,.85-1.93,1.35-3.99,1.5-6.18,.14-2.2,.25-5.73,.33-10.6-2.29,3.2-4.93,5.63-7.93,7.3-3,1.67-6.57,2.51-10.71,2.51-4.98,0-9.33-1.27-13.05-3.81-3.72-2.54-6.59-6.1-8.58-10.68-2-4.58-3-9.86-3-15.86,0-4.47,.61-8.5,1.83-12.1,1.22-3.6,2.95-6.63,5.2-9.1,2.25-2.47,4.85-4.33,7.79-5.59,2.94-1.25,6.18-1.88,9.7-1.88,4.21,0,7.86,.81,10.95,2.43,3.09,1.62,5.96,4.15,8.61,7.6v-2.02c0-2.58,.64-4.58,1.91-5.99,1.27-1.42,2.91-2.13,4.9-2.13,2.87,0,4.78,.94,5.72,2.81,.94,1.87,1.42,4.57,1.42,8.09Zm-43.1,18.85c0,6.03,1.32,10.59,3.95,13.68,2.63,3.09,6.04,4.63,10.22,4.63,2.47,0,4.8-.66,7-1.99,2.2-1.33,3.99-3.32,5.37-5.99,1.38-2.67,2.07-5.91,2.07-9.73,0-6.07-1.34-10.79-4.01-14.17-2.67-3.38-6.18-5.07-10.54-5.07s-7.66,1.62-10.22,4.85c-2.56,3.23-3.84,7.83-3.84,13.79Z"/>
        <path class="cls-1" d="M499.85,67.31h-29.1c.04,3.38,.72,6.36,2.04,8.94,1.33,2.58,3.09,4.52,5.29,5.83,2.2,1.31,4.62,1.96,7.27,1.96,1.78,0,3.41-.21,4.88-.63,1.47-.42,2.9-1.07,4.28-1.96,1.38-.89,2.65-1.84,3.81-2.86,1.16-1.02,2.67-2.4,4.52-4.14,.76-.65,1.85-.98,3.27-.98,1.53,0,2.76,.42,3.71,1.25,.94,.84,1.42,2.02,1.42,3.54,0,1.34-.53,2.92-1.58,4.71-1.05,1.8-2.64,3.52-4.77,5.18-2.13,1.65-4.8,3.02-8.01,4.11-3.21,1.09-6.91,1.63-11.09,1.63-9.55,0-16.98-2.72-22.29-8.17-5.3-5.45-7.96-12.84-7.96-22.18,0-4.4,.65-8.47,1.96-12.23,1.31-3.76,3.21-6.98,5.72-9.67,2.51-2.69,5.59-4.75,9.26-6.18,3.67-1.43,7.74-2.15,12.21-2.15,5.81,0,10.8,1.23,14.96,3.68,4.16,2.45,7.27,5.62,9.35,9.51,2.07,3.89,3.11,7.85,3.11,11.88,0,3.74-1.07,6.17-3.21,7.27-2.14,1.11-5.16,1.66-9.05,1.66Zm-29.1-8.45h26.97c-.36-5.09-1.74-8.89-4.11-11.42-2.38-2.52-5.51-3.79-9.4-3.79s-6.75,1.28-9.13,3.84c-2.38,2.56-3.82,6.35-4.33,11.36Z"/>
        <path class="cls-1" d="M525.46,34.72h1.63v-8.94c0-2.4,.06-4.28,.19-5.64,.13-1.36,.48-2.53,1.06-3.51,.58-1.02,1.42-1.84,2.51-2.48,1.09-.64,2.31-.95,3.65-.95,1.89,0,3.6,.71,5.12,2.13,1.02,.94,1.66,2.1,1.93,3.46,.27,1.36,.41,3.3,.41,5.8v10.14h5.45c2.11,0,3.71,.5,4.82,1.5,1.11,1,1.66,2.28,1.66,3.84,0,2-.79,3.4-2.37,4.2-1.58,.8-3.84,1.2-6.78,1.2h-2.78v27.36c0,2.33,.08,4.11,.25,5.37,.16,1.25,.6,2.27,1.31,3.05,.71,.78,1.86,1.17,3.46,1.17,.87,0,2.05-.15,3.54-.46,1.49-.31,2.65-.46,3.49-.46,1.2,0,2.28,.48,3.24,1.44,.96,.96,1.44,2.15,1.44,3.57,0,2.4-1.31,4.23-3.92,5.5-2.62,1.27-6.38,1.91-11.28,1.91-4.65,0-8.17-.78-10.57-2.34-2.4-1.56-3.97-3.72-4.71-6.48-.74-2.76-1.12-6.45-1.12-11.06v-28.55h-1.96c-2.14,0-3.78-.51-4.9-1.53-1.13-1.02-1.69-2.31-1.69-3.87s.59-2.84,1.77-3.84c1.18-1,2.9-1.5,5.15-1.5Z"/>
      </g>
      <g>
        <g>
          <path class="cls-1" d="M17.35,0c-.74,0-1.47,0-2.21,0-.99,.33-1.31,1.04-1.3,2.06,.03,5.62,.01,11.24,.01,16.86,0,1.91,.34,2.27,2.23,2.31,7.1,.12,14.06,1.16,20.83,3.34,12.12,3.89,22.53,10.52,31.14,19.9,8.25,8.99,13.86,19.43,16.81,31.28,1.36,5.48,1.98,11.04,2.09,16.68,.03,1.47,.53,1.91,1.98,1.91,5.74,0,11.49,0,17.23,.01,.91,0,1.62-.26,2.06-1.09v-1.29c-.12-1.95-.23-3.91-.36-5.86-.5-7.48-1.95-14.77-4.27-21.89-4.13-12.67-10.71-23.94-19.68-33.79-7.92-8.7-17.16-15.67-27.73-20.86C45.51,4.32,34.25,1.22,22.39,.35,20.71,.23,19.03,.12,17.35,0Z"/>
          <path class="cls-1" d="M13.85,41.22c0,2.55,0,5.1,0,7.65,0,2.39,.2,2.61,2.63,2.67,4.99,.12,9.84,1.05,14.41,3.04,13.78,5.99,22.21,16.39,25.12,31.15,.42,2.12,.46,4.33,.61,6.5,.11,1.66,.51,2.11,2.2,2.11,5.47,0,10.93-.03,16.4,.02,1.42,.01,2.22-.61,2.15-2.28-.2-5.02-.76-9.98-2.04-14.83-2.42-9.16-6.68-17.38-12.86-24.57-8.55-9.95-19.18-16.6-31.89-19.91-4.87-1.27-9.82-1.84-14.84-1.92-1.33-.02-1.88,.54-1.89,1.91,0,2.83,0,5.65,0,8.48Z"/>
        </g>
        <g>
          <polygon class="cls-1" points="0 79.14 18.53 89.03 38.73 68.77 0 79.14"/>
          <polygon class="cls-1" points="18.52 88.98 28.36 107.5 38.73 68.77 18.52 88.98"/>
        </g>
      </g>
    </g>
  </g>
</svg>