<?xml version="1.0" encoding="UTF-8"?>
<svg id="Layer_2" data-name="Layer 2" xmlns="http://www.w3.org/2000/svg" viewBox="0 0 721.49 169.49">
  <defs>
    <style>
      .cls-1 {
        fill: #232323;
      }
    </style>
  </defs>
  <g id="Layer_1-2" data-name="Layer 1">
    <g>
      <g>
        <path class="cls-1" d="M261.57,12.01c8.16,1.98,13.61,8.91,13.61,19.17v59.37L208.63,10.53h-31.67v1.48c5.44,1.61,12.99,8.53,12.99,17.44V108.49c0,10.27-5.44,17.19-13.61,19.17v1.48h30.92v-1.48c-8.16-1.98-13.61-8.91-13.61-19.17V31.31l81.52,97.84h3.71V31.19c0-10.27,5.44-17.19,13.61-19.17v-1.48h-30.92v1.48Z"/>
        <path class="cls-1" d="M367.46,117.15c-4.33,0-5.81-4.82-5.81-8.41v-30.92c0-18.43-14.97-24.12-30.92-24.12-11.75,0-33.15,4.58-33.15,19.67,0,6.31,5.07,10.39,11.01,10.39,4.7,0,10.76-2.6,10.76-8.04,0-2.97-1.61-5.57-1.61-8.66,0-6.43,4.45-9.65,10.51-9.65,7.17,0,9.9,6.93,9.9,13.11,0,10.89-7.42,14.84-16.95,16.33-13.48,2.23-27.21,8.66-27.21,24.37,0,13.48,9.9,19.05,22.14,19.05,8.16,0,15.71-5.2,22.64-8.91,2.47,6.06,8.78,7.79,14.72,7.79,10.14,0,18.68-4.7,21.77-14.72l-1.86-.99c-1.36,1.98-3.46,3.71-5.94,3.71Zm-29.31-.37c-2.47,1.73-5.2,3.22-8.29,3.22-7.54,0-11.13-5.94-11.13-12.86,0-12.12,8.66-18.93,19.42-22.02v31.67Z"/>
        <path class="cls-1" d="M415.34,117.15c-3.09,0-5.94-2.85-5.94-8.41l.12-50.1h12.37v-3.96h-12.37V31.43h-2.47c-3.22,7.42-23.13,21.52-30.18,23.25v3.96h9.15v56.9c0,11.01,9.15,13.61,15.34,13.61,12.99,0,19.42-7.3,21.77-14.72l-1.85-.99c-1.61,2.47-3.83,3.71-5.94,3.71Z"/>
        <path class="cls-1" d="M475.95,116.16c-15.58,.5-23.25-10.76-24.62-25.23l48.98-4.08c0-18.18-11.13-33.15-32.9-33.15-23.5,0-39.58,14.6-39.58,38.1s14.35,38.35,38.35,38.35c18.8,0,32.41-11.5,39.58-29.56l-1.61-.74c-7.42,11.01-17.32,15.96-28.2,16.33Zm-8.91-58.88c8.91,0,12.49,13.73,10.64,26.35l-26.59,3.22c-.25-12.25,3.46-29.56,15.96-29.56Z"/>
        <path class="cls-1" d="M583.32,33.29c-10.02,1.61-15.83,12.49-16.82,22.76-4.7-1.48-9.9-2.35-15.46-2.35-21.77,0-38.22,12.37-38.22,33.03,0,10.88,4.58,19.17,12,24.74-6.68,2.35-11.87,7.17-12,15.21-.12,6.68,2.47,10.76,6.93,13.36,8.78,5.2,35.25,6.31,43.79,6.18,11.75-.12,14.72,2.6,14.72,6.56,0,2.35-1.36,4.95-4.08,7.3-3.59,3.22-10.76,5.2-18.06,5.2-7.92,0-13.48-1.73-16.82-5.07-2.97-2.97-5.2-6.8-5.44-9.65-.5-5.44-5.94-7.54-11.13-7.42-9.65,.25-14.59,12.37-5.44,19.79,7.54,6.06,21.65,6.43,29.81,6.56,19.67,.37,41.81-6.06,42.18-25.85,.37-20.04-21.9-19.92-36-20.29-13.61-.37-26.1,.12-27.46-3.83-.87-2.47,.49-4.33,2.72-5.69,6.31,3.34,13.98,5.2,22.51,5.2,21.89,0,38.22-11.75,38.22-32.28,0-13.36-6.8-23.26-17.56-28.57,1.98-3.83,6.06-6.19,10.39-6.19,3.96,0,6.43,2.1,9.03,1.98,10.89-.25,10.89-23.63-7.79-20.66Zm-32.28,82.01c-10.89,0-13.48-17.56-13.48-28.57s2.35-29.32,13.48-29.32,13.48,18.43,13.48,29.32-2.6,28.57-13.48,28.57Z"/>
        <path class="cls-1" d="M719.64,113.44c-1.24,1.98-3.46,3.71-5.94,3.71-4.33,0-5.94-4.82-5.94-8.41l.12-50.1h12.37v-3.96h-12.37V25.87c0-13.24-13.85-19.05-25.23-19.05-16.2,0-36.37,10.14-36.37,28.57,0,8.29,2.35,14.84,6.31,20.78-4.08-1.61-8.78-2.47-13.98-2.47-23.25,0-39.58,14.35-39.58,38.1s14.35,38.35,38.35,38.35c19.42,0,32.66-12.25,39.58-29.56l-1.61-.74c-6.8,10.14-16.82,16.33-29.07,16.33-15.59,0-22.51-11.87-23.75-25.23l48.98-4.08c0-10.14-3.34-18.68-9.4-24.49-6.8-7.67-12.12-16.7-12.12-27.21,0-15.83,18.55-24.62,32.28-24.62,9.15,0,20.53,4.58,20.53,15.34,0,12.62-16.2,25.98-27.58,28.82v3.96h9.15v56.9c0,9.28,6.8,13.61,15.34,13.61,10.14,0,18.68-4.7,21.77-14.72l-1.85-.99Zm-70.75-29.81l-26.59,3.22c0-10.02,2.47-29.56,15.96-29.56,9.03,0,11.13,13.11,11.13,19.91,0,2.1-.12,4.33-.5,6.43Z"/>
      </g>
      <g>
        <g>
          <polygon class="cls-1" points="0 114.02 27.72 128.81 57.95 98.5 0 114.02"/>
          <polygon class="cls-1" points="27.71 128.73 42.42 156.44 57.95 98.5 27.71 128.73"/>
        </g>
        <g>
          <path class="cls-1" d="M149.97,127.88c-3.16,1.9-6.46,3.32-10.24,3.44-10.1,.31-18.57-7.5-18.71-17.61-.11-7.45-.6-14.81-2.57-22.03-4.27-15.71-12.8-28.66-25.4-38.9-12.92-10.49-27.78-15.97-44.39-16.49-9.35-.29-15.9-6.53-17.72-13.63C27.92,10.9,36.84-.29,49.07,0c12.87,.31,25.33,2.77,37.34,7.43,17.32,6.72,32.04,17.18,44.07,31.28,16.48,19.3,25.36,41.71,26.61,67.1,.04,.87,.07,1.74,.12,2.62,.33,5.82-.26,11.43-3.93,16.29-1.11,1.05-2.21,2.11-3.32,3.16ZM106.83,51.93c13.93,14.91,21.73,31.58,23.59,50.94,.35,3.63,.24,7.3,.49,10.95,.29,4.3,3.9,7.62,8.12,7.63,4.32,.01,7.81-3.15,8.23-7.52,.12-1.24,.09-2.51,.07-3.76-.67-32.5-13.86-58.89-39.14-79.14-12.95-10.37-27.83-16.85-44.21-19.6-5.3-.89-10.72-1.26-16.1-1.45-3.33-.12-5.75,1.94-6.99,5.03-1.25,3.09-.71,5.99,1.49,8.54,1.99,2.32,4.66,2.75,7.53,2.89,22.67,1.1,41.82,10,56.95,25.47Z"/>
          <path class="cls-1" d="M91.35,66.97c13.04,14.2,19.52,30.21,19.35,48.81-.07,7.75-4.72,14.4-11.83,17.02-7.09,2.61-14.99,.64-19.96-5.06-3.02-3.47-4.5-7.55-4.47-12.15,.04-6.06-1.21-11.8-4.36-17.03-5.74-9.54-14.17-14.87-25.25-15.85-3.73-.33-7.37-.75-10.63-2.78-7.15-4.46-10.35-12.87-7.91-20.86,2.39-7.84,9.76-13.05,18.15-12.75,15.51,.55,29.27,5.77,41.27,15.58,2.15,1.76,4.13,3.71,5.63,5.07Zm-7.81,6.11c-1.52-1.27-4.2-3.78-7.14-5.91-9.62-6.97-20.45-10.52-32.31-10.97-4.65-.18-8.39,3.19-8.7,7.73-.3,4.42,2.96,8.18,7.54,8.7,2.6,.29,5.24,.38,7.78,.94,15.14,3.37,25.5,12.38,31.1,26.83,1.96,5.05,2.41,10.35,2.57,15.72,.14,4.6,3.87,8.03,8.3,7.93,4.55-.1,8.1-3.68,8.13-8.33,.1-15.93-5.3-29.73-17.27-42.64Z"/>
        </g>
      </g>
    </g>
  </g>
</svg>